{"glyphs":{"0":{"ha":814,"x_min":61,"x_max":754,"o":"m 61 505 q 153 925 61 783 q 420 1068 245 1068 q 754 530 754 1068 q 660 123 754 264 q 397 -18 566 -18 q 149 116 237 -18 q 61 505 61 250 m 197 511 q 409 92 197 92 q 618 517 618 92 q 413 958 618 958 q 197 511 197 958 z "},"1":{"ha":814,"x_min":144,"x_max":518,"o":"m 387 0 l 387 899 q 281 829 355 867 q 144 774 207 790 l 144 905 q 322 978 227 928 q 468 1074 417 1029 l 518 1074 l 518 0 l 387 0 z "},"2":{"ha":814,"x_min":81,"x_max":741,"o":"m 578 775 q 525 908 578 860 q 379 957 471 957 q 248 924 314 957 q 123 829 181 890 l 123 958 q 240 1040 175 1011 q 394 1068 306 1068 q 623 992 536 1068 q 710 785 710 916 q 657 585 710 669 q 475 411 604 500 q 299 281 343 320 q 237 205 254 241 q 219 118 219 170 l 741 118 l 741 0 l 81 0 l 81 52 q 105 207 81 143 q 187 330 130 270 q 365 474 244 390 q 533 626 488 561 q 578 775 578 692 z "},"3":{"ha":814,"x_min":97,"x_max":711,"o":"m 97 176 q 340 92 205 92 q 512 145 449 92 q 576 288 576 199 q 290 488 576 488 l 203 488 l 203 597 l 286 597 q 539 785 539 597 q 346 958 539 958 q 138 883 235 958 l 138 1008 q 378 1068 241 1068 q 594 998 513 1068 q 675 816 675 928 q 465 551 675 610 l 465 548 q 645 468 579 536 q 711 298 711 399 q 609 69 711 156 q 338 -18 507 -18 q 97 38 189 -18 l 97 176 z "},"4":{"ha":814,"x_min":12,"x_max":788,"o":"m 631 1050 l 631 357 l 788 357 l 788 247 l 631 247 l 631 0 l 502 0 l 502 247 l 12 247 l 12 351 q 275 690 142 498 q 493 1050 407 882 l 631 1050 m 161 357 l 502 357 l 502 857 q 351 611 431 730 q 161 357 270 492 z "},"5":{"ha":814,"x_min":118,"x_max":715,"o":"m 715 324 q 613 76 715 170 q 338 -18 511 -18 q 118 26 191 -18 l 118 161 q 335 92 224 92 q 512 153 445 92 q 580 314 580 214 q 510 470 580 414 q 311 526 439 526 q 133 517 212 526 l 172 1050 l 663 1050 l 663 934 l 283 934 l 262 636 l 357 640 q 620 557 524 640 q 715 324 715 474 z "},"6":{"ha":814,"x_min":80,"x_max":756,"o":"m 690 916 q 519 958 608 958 q 300 839 382 958 q 216 515 217 720 l 219 515 q 457 659 294 659 q 675 570 593 659 q 756 334 756 481 q 662 81 756 180 q 422 -18 568 -18 q 171 107 262 -18 q 80 463 80 233 q 200 904 80 741 q 515 1068 319 1068 q 690 1038 627 1068 l 690 916 m 224 344 q 279 166 224 240 q 426 92 334 92 q 567 156 513 92 q 621 320 621 220 q 570 489 621 429 q 425 549 519 549 q 279 488 335 549 q 224 344 224 427 z "},"7":{"ha":814,"x_min":75,"x_max":743,"o":"m 743 968 q 483 434 577 680 q 366 0 388 188 l 227 0 q 346 422 252 185 q 596 933 439 660 l 75 933 l 75 1050 l 743 1050 l 743 968 z "},"8":{"ha":814,"x_min":66,"x_max":748,"o":"m 66 293 q 121 460 66 384 q 260 570 175 537 q 152 669 192 608 q 112 800 112 729 q 150 936 112 874 q 257 1033 189 998 q 407 1068 325 1068 q 558 1033 490 1068 q 665 937 627 998 q 703 800 703 875 q 664 670 703 730 q 555 570 625 609 q 694 460 641 536 q 748 293 748 383 q 705 133 748 203 q 584 22 663 62 q 407 -17 505 -17 q 231 22 309 -17 q 110 133 153 62 q 66 293 66 204 m 197 299 q 254 149 197 205 q 408 93 312 93 q 561 150 501 93 q 620 299 620 208 q 560 445 620 386 q 408 505 500 505 q 256 447 316 505 q 197 299 197 389 m 235 789 q 285 668 235 718 q 408 617 335 617 q 531 668 479 617 q 583 789 583 719 q 533 909 583 860 q 408 959 483 959 q 284 910 333 959 q 235 789 235 862 z "},"9":{"ha":814,"x_min":68,"x_max":742,"o":"m 125 142 q 313 92 212 92 q 531 203 454 92 q 609 519 609 315 l 608 519 l 606 519 q 374 388 537 388 q 155 479 241 388 q 68 715 68 570 q 163 969 68 869 q 409 1068 258 1068 q 654 945 566 1068 q 742 587 742 822 q 628 139 742 296 q 313 -18 514 -18 q 125 18 202 -18 l 125 142 m 202 732 q 256 564 202 626 q 406 502 311 502 q 545 558 489 502 q 602 696 602 615 q 546 883 602 809 q 398 958 490 958 q 258 893 313 958 q 202 732 202 829 z "}," ":{"ha":411,"x_min":0,"x_max":0,"o":""},"!":{"ha":434,"x_min":130,"x_max":304,"o":"m 285 1050 l 269 299 l 161 299 l 146 1050 l 285 1050 m 130 71 q 155 133 130 108 q 217 157 181 157 q 278 132 252 157 q 304 71 304 106 q 279 12 304 37 q 220 -14 254 -14 q 155 12 180 -14 q 130 71 130 37 z "},"\"":{"ha":605,"x_min":144,"x_max":462,"o":"m 279 1052 l 256 725 l 165 725 l 144 1052 l 279 1052 m 462 1052 l 440 725 l 349 725 l 326 1052 l 462 1052 z "},"#":{"ha":886,"x_min":24,"x_max":852,"o":"m 852 760 l 836 675 l 650 675 l 606 460 l 802 460 l 785 376 l 587 376 l 526 90 l 428 90 l 489 376 l 309 376 l 248 90 l 149 90 l 210 376 l 24 376 l 41 460 l 229 460 l 273 675 l 75 675 l 92 760 l 290 760 l 350 1050 l 448 1050 l 388 760 l 568 760 l 629 1050 l 727 1050 l 667 760 l 852 760 m 551 675 l 371 675 l 327 460 l 507 460 l 551 675 z "},"$":{"ha":814,"x_min":115,"x_max":724,"o":"m 456 -153 l 376 -153 l 376 0 q 120 64 222 0 l 120 200 q 376 111 222 117 l 376 473 q 164 616 213 550 q 115 774 115 683 q 188 958 115 880 q 376 1052 261 1036 l 376 1184 l 456 1184 l 456 1055 q 658 1013 604 1049 l 658 880 q 456 944 580 939 l 456 570 q 667 430 609 500 q 724 274 724 361 q 652 95 724 165 q 456 6 579 24 l 456 -153 m 376 940 q 246 789 246 911 q 274 691 246 730 q 376 611 302 652 l 376 940 m 456 116 q 593 263 593 146 q 456 435 593 361 l 456 116 z "},"%":{"ha":1236,"x_min":59,"x_max":1179,"o":"m 59 785 q 128 990 59 914 q 313 1066 197 1066 q 488 996 425 1066 q 551 802 551 926 q 481 600 551 677 q 298 523 412 523 q 124 595 189 523 q 59 785 59 667 m 163 792 q 201 657 163 705 q 305 610 239 610 q 410 659 373 610 q 447 798 447 708 q 411 933 447 885 q 309 981 374 981 q 202 931 241 981 q 163 792 163 881 m 1008 1050 l 334 -7 l 220 -7 l 895 1050 l 1008 1050 m 688 246 q 757 452 688 375 q 942 529 826 529 q 1116 459 1053 529 q 1179 261 1179 389 q 1109 61 1179 138 q 927 -16 1040 -16 q 753 57 818 -16 q 688 246 688 130 m 792 252 q 830 119 792 167 q 934 71 868 71 q 1039 121 1002 71 q 1076 259 1076 170 q 1039 394 1076 347 q 937 441 1002 441 q 830 391 868 441 q 792 252 792 341 z "},"&":{"ha":1208,"x_min":84,"x_max":1179,"o":"m 822 142 q 444 -17 667 -17 q 181 64 279 -17 q 84 288 84 145 q 328 607 84 502 q 206 827 206 700 q 283 1003 206 937 q 484 1068 359 1068 q 674 1006 602 1068 q 747 844 747 944 q 548 600 747 682 q 835 335 699 542 q 954 720 954 498 q 940 821 954 773 l 1066 821 q 1076 724 1076 781 q 1030 475 1076 605 q 901 235 983 345 q 995 130 957 158 q 1083 102 1034 102 q 1179 123 1124 102 l 1179 5 q 1061 -17 1122 -17 q 946 13 998 -17 q 822 142 895 43 m 448 656 q 623 833 623 716 q 583 929 623 894 q 484 965 543 965 q 372 927 414 965 q 331 827 331 888 q 448 656 331 720 m 760 237 q 604 436 675 369 q 424 544 533 503 q 266 440 313 499 q 218 292 218 380 q 281 148 218 201 q 446 96 345 96 q 760 237 631 96 z "},"'":{"ha":356,"x_min":111,"x_max":245,"o":"m 245 1052 l 223 725 l 132 725 l 111 1052 l 245 1052 z "},"(":{"ha":464,"x_min":104,"x_max":450,"o":"m 332 -239 q 104 401 104 22 q 332 1050 104 780 l 450 1050 q 220 402 220 769 q 448 -239 220 36 l 332 -239 z "},")":{"ha":464,"x_min":16,"x_max":363,"o":"m 17 -239 q 245 402 245 35 q 16 1050 245 770 l 134 1050 q 363 401 363 782 q 134 -239 363 20 l 17 -239 z "},"*":{"ha":632,"x_min":55,"x_max":578,"o":"m 578 804 l 377 765 l 517 589 l 431 530 l 318 724 l 204 530 l 117 589 l 257 765 l 55 804 l 90 902 l 281 829 l 263 1050 l 372 1050 l 353 829 l 545 902 l 578 804 z "},"+":{"ha":1030,"x_min":171,"x_max":862,"o":"m 862 385 l 567 385 l 567 91 l 465 91 l 465 385 l 171 385 l 171 488 l 465 488 l 465 782 l 567 782 l 567 488 l 862 488 l 862 385 z "},",":{"ha":334,"x_min":28,"x_max":241,"o":"m 241 169 l 125 -193 l 28 -193 l 113 169 l 241 169 z "},"-":{"ha":601,"x_min":106,"x_max":505,"o":"m 505 365 l 106 365 l 106 467 l 505 467 l 505 365 z "},".":{"ha":334,"x_min":81,"x_max":256,"o":"m 81 70 q 106 132 81 106 q 168 157 131 157 q 231 131 206 157 q 256 70 256 106 q 231 9 256 35 q 168 -16 206 -16 q 105 9 130 -16 q 81 70 81 35 z "},"/":{"ha":593,"x_min":-22,"x_max":606,"o":"m 606 1050 l 102 -174 l -22 -174 l 481 1050 l 606 1050 z "},":":{"ha":334,"x_min":81,"x_max":256,"o":"m 81 680 q 106 741 81 717 q 168 766 132 766 q 231 741 205 766 q 256 680 256 716 q 231 619 256 644 q 168 594 206 594 q 106 619 131 594 q 81 680 81 644 m 81 70 q 106 132 81 106 q 168 157 131 157 q 231 131 206 157 q 256 70 256 106 q 231 9 256 35 q 168 -16 206 -16 q 105 9 130 -16 q 81 70 81 35 z "},";":{"ha":334,"x_min":28,"x_max":258,"o":"m 82 680 q 108 741 82 716 q 170 766 134 766 q 232 741 206 766 q 258 680 258 715 q 233 619 258 644 q 170 594 208 594 q 107 620 132 594 q 82 680 82 646 m 241 169 l 125 -193 l 28 -193 l 113 169 l 241 169 z "},"<":{"ha":1030,"x_min":198,"x_max":834,"o":"m 834 87 l 198 404 l 198 455 l 834 806 l 834 688 l 361 434 l 361 431 l 834 204 l 834 87 z "},"=":{"ha":1030,"x_min":171,"x_max":862,"o":"m 862 542 l 171 542 l 171 644 l 862 644 l 862 542 m 862 229 l 171 229 l 171 331 l 862 331 l 862 229 z "},">":{"ha":1030,"x_min":198,"x_max":834,"o":"m 834 405 l 198 89 l 198 205 l 671 430 l 671 435 l 198 689 l 198 806 l 834 456 l 834 405 z "},"?":{"ha":671,"x_min":90,"x_max":602,"o":"m 239 293 q 222 400 222 343 q 243 491 222 445 q 347 617 263 536 q 451 739 432 698 q 471 816 471 779 q 425 919 471 881 q 307 956 378 956 q 90 859 183 956 l 90 998 q 326 1068 203 1068 q 526 1005 450 1068 q 602 833 602 942 q 579 727 602 781 q 463 583 557 673 q 367 478 391 516 q 342 396 342 440 q 366 293 342 347 l 239 293 m 222 71 q 248 132 222 106 q 310 157 274 157 q 372 132 346 157 q 397 71 397 106 q 372 12 397 37 q 313 -14 347 -14 q 248 12 273 -14 q 222 71 222 38 z "},"@":{"ha":1432,"x_min":123,"x_max":1312,"o":"m 976 779 q 942 368 942 383 q 1025 222 942 222 q 1153 307 1103 222 q 1204 527 1204 391 q 1078 850 1204 725 q 731 976 953 976 q 373 825 515 976 q 231 446 231 673 q 364 88 231 224 q 726 -47 497 -47 q 1034 13 904 -47 l 1034 -83 q 717 -138 907 -138 q 287 23 450 -138 q 123 442 123 183 q 295 887 123 710 q 735 1065 467 1065 q 1149 917 986 1065 q 1312 533 1312 770 q 1225 245 1312 357 q 1011 134 1137 134 q 849 304 850 134 l 846 304 q 638 134 791 134 q 476 207 538 134 q 414 406 414 280 q 500 681 414 572 q 720 790 585 790 q 814 763 773 790 q 866 696 855 736 l 869 696 q 876 779 869 699 l 976 779 m 525 406 q 560 274 525 323 q 659 224 595 224 q 799 313 748 224 q 850 547 850 401 q 722 701 850 701 q 579 615 634 701 q 525 406 525 530 z "},"A":{"ha":977,"x_min":16,"x_max":961,"o":"m 961 0 l 811 0 l 704 288 l 267 288 l 165 0 l 16 0 l 416 1050 l 561 1050 l 961 0 m 662 406 l 503 843 q 487 916 496 864 l 484 916 q 467 843 476 869 l 309 406 l 662 406 z "},"B":{"ha":871,"x_min":136,"x_max":799,"o":"m 136 0 l 136 1050 l 444 1050 q 665 984 583 1050 q 748 809 748 918 q 699 656 748 722 q 564 562 650 589 l 564 559 q 735 478 671 547 q 799 303 799 409 q 702 84 799 168 q 452 0 604 0 l 136 0 m 271 932 l 271 603 l 395 603 q 549 651 493 603 q 605 783 605 699 q 407 932 605 932 l 271 932 m 271 485 l 271 119 l 434 119 q 598 168 541 119 q 656 304 656 217 q 412 485 656 485 l 271 485 z "},"C":{"ha":929,"x_min":68,"x_max":854,"o":"m 854 43 q 564 -18 739 -18 q 203 126 338 -18 q 68 505 68 269 q 220 913 68 759 q 606 1068 372 1068 q 854 1025 756 1068 l 854 884 q 607 946 742 946 q 321 829 431 946 q 210 513 210 712 q 313 214 210 325 q 583 103 416 103 q 854 174 739 103 l 854 43 z "},"D":{"ha":1058,"x_min":136,"x_max":991,"o":"m 136 0 l 136 1050 l 435 1050 q 832 911 674 1050 q 991 538 991 772 q 832 147 991 294 q 425 0 674 0 l 136 0 m 271 930 l 271 120 l 424 120 q 736 229 624 120 q 848 535 848 338 q 733 831 848 732 q 430 930 618 930 l 271 930 z "},"E":{"ha":764,"x_min":136,"x_max":701,"o":"m 701 0 l 136 0 l 136 1050 l 677 1050 l 677 930 l 271 930 l 271 593 l 647 593 l 647 473 l 271 473 l 271 120 l 701 120 l 701 0 z "},"F":{"ha":738,"x_min":136,"x_max":677,"o":"m 677 930 l 271 930 l 271 578 l 647 578 l 647 459 l 271 459 l 271 0 l 136 0 l 136 1050 l 677 1050 l 677 930 z "},"G":{"ha":1033,"x_min":68,"x_max":930,"o":"m 930 72 q 574 -18 772 -18 q 207 126 347 -18 q 68 511 68 271 q 222 911 68 755 q 616 1068 376 1068 q 905 1014 787 1068 l 905 867 q 604 947 779 947 q 321 829 433 947 q 210 520 210 712 q 313 213 210 323 q 589 103 415 103 q 793 149 709 103 l 793 433 l 566 433 l 566 553 l 930 553 l 930 72 z "},"H":{"ha":1074,"x_min":136,"x_max":939,"o":"m 939 0 l 803 0 l 803 473 l 271 473 l 271 0 l 136 0 l 136 1050 l 271 1050 l 271 594 l 803 594 l 803 1050 l 939 1050 l 939 0 z "},"I":{"ha":408,"x_min":35,"x_max":372,"o":"m 372 936 l 271 936 l 271 115 l 372 115 l 372 0 l 35 0 l 35 115 l 136 115 l 136 936 l 35 936 l 35 1050 l 372 1050 l 372 936 z "},"J":{"ha":550,"x_min":16,"x_max":423,"o":"m 423 381 q 342 86 423 191 q 123 -18 262 -18 q 16 1 58 -18 l 16 134 q 122 103 58 103 q 288 381 288 103 l 288 1050 l 423 1050 l 423 381 z "},"K":{"ha":882,"x_min":136,"x_max":883,"o":"m 883 0 l 697 0 l 302 477 q 275 517 282 503 l 271 517 l 271 0 l 136 0 l 136 1050 l 271 1050 l 271 556 l 275 556 q 302 595 286 574 l 684 1050 l 851 1050 l 410 547 l 883 0 z "},"L":{"ha":713,"x_min":136,"x_max":690,"o":"m 690 0 l 136 0 l 136 1050 l 271 1050 l 271 120 l 690 120 l 690 0 z "},"M":{"ha":1357,"x_min":136,"x_max":1221,"o":"m 1086 0 l 1086 696 q 1096 903 1086 782 l 1093 903 q 1061 797 1075 827 l 715 0 l 640 0 l 294 791 q 262 903 281 818 l 258 903 q 265 690 265 829 l 265 0 l 136 0 l 136 1050 l 319 1050 l 629 330 q 676 201 665 248 l 681 201 q 730 333 716 298 l 1046 1050 l 1221 1050 l 1221 0 l 1086 0 z "},"N":{"ha":1129,"x_min":136,"x_max":994,"o":"m 994 0 l 833 0 l 304 817 q 269 886 282 852 l 264 886 q 270 739 270 850 l 270 0 l 136 0 l 136 1050 l 306 1050 l 820 248 q 863 175 857 191 l 866 175 q 859 328 859 220 l 859 1050 l 994 1050 l 994 0 z "},"O":{"ha":1132,"x_min":68,"x_max":1065,"o":"m 68 513 q 205 918 68 767 q 578 1068 343 1068 q 931 921 798 1068 q 1065 538 1065 774 q 928 132 1065 282 q 562 -18 791 -18 q 203 130 338 -18 q 68 513 68 277 m 210 524 q 308 218 210 333 q 562 103 405 103 q 826 213 730 103 q 922 522 922 323 q 828 836 922 725 q 570 946 734 946 q 310 829 410 946 q 210 524 210 713 z "},"P":{"ha":850,"x_min":136,"x_max":792,"o":"m 271 393 l 271 0 l 136 0 l 136 1050 l 434 1050 q 698 968 604 1050 q 792 734 792 886 q 682 483 792 579 q 408 393 572 387 l 271 393 m 271 931 l 271 512 l 397 512 q 585 568 521 512 q 650 728 650 624 q 410 931 650 931 l 271 931 z "},"Q":{"ha":1132,"x_min":68,"x_max":1095,"o":"m 1095 -273 q 977 -288 1046 -288 q 792 -241 879 -288 q 551 -18 705 -193 q 204 132 340 -19 q 68 513 68 283 q 205 918 68 768 q 582 1068 343 1068 q 931 921 797 1068 q 1065 538 1065 774 q 970 186 1065 328 q 703 2 876 43 q 852 -128 790 -93 q 989 -163 913 -163 q 1095 -144 1052 -163 l 1095 -273 m 210 524 q 308 218 210 333 q 562 103 405 103 q 826 213 730 103 q 922 522 922 323 q 828 836 922 725 q 570 946 734 946 q 310 829 410 946 q 210 524 210 713 z "},"R":{"ha":907,"x_min":136,"x_max":903,"o":"m 903 0 l 743 0 l 568 292 q 473 411 516 379 q 369 442 429 442 l 271 442 l 271 0 l 136 0 l 136 1050 l 456 1050 q 696 977 609 1050 q 783 770 783 903 q 549 486 783 551 l 549 483 q 624 431 593 465 q 706 315 656 397 l 903 0 m 271 932 l 271 561 l 431 561 q 582 615 524 561 q 640 758 640 669 q 587 886 640 840 q 433 932 534 932 l 271 932 z "},"S":{"ha":802,"x_min":87,"x_max":732,"o":"m 87 197 q 216 128 135 155 q 369 101 296 101 q 590 258 590 101 q 566 338 590 302 q 501 400 543 373 q 346 484 460 427 q 138 630 188 562 q 87 784 87 697 q 193 991 87 915 q 458 1068 298 1068 q 688 1030 614 1068 l 688 882 q 448 948 593 948 q 291 908 351 948 q 230 795 230 867 q 272 692 230 732 q 454 583 314 652 q 671 435 609 509 q 732 269 732 361 q 632 56 732 130 q 353 -18 532 -18 q 208 0 291 -18 q 87 43 125 17 l 87 197 z "},"T":{"ha":796,"x_min":29,"x_max":770,"o":"m 770 930 l 467 930 l 467 0 l 331 0 l 331 930 l 29 930 l 29 1050 l 770 1050 l 770 930 z "},"U":{"ha":1037,"x_min":123,"x_max":914,"o":"m 914 428 q 510 -18 914 -18 q 123 412 123 -18 l 123 1050 l 258 1050 l 258 418 q 523 103 258 103 q 779 408 779 103 l 779 1050 l 914 1050 l 914 428 z "},"V":{"ha":939,"x_min":12,"x_max":927,"o":"m 927 1050 l 541 0 l 391 0 l 12 1050 l 163 1050 l 446 229 q 467 135 460 189 l 470 135 q 494 231 475 182 l 782 1050 l 927 1050 z "},"W":{"ha":1413,"x_min":18,"x_max":1396,"o":"m 1396 1050 l 1101 0 l 943 0 l 732 757 q 715 865 718 808 l 712 865 q 693 758 708 809 l 479 0 l 323 0 l 18 1050 l 168 1050 l 382 257 q 399 149 397 203 l 404 149 q 426 257 407 190 l 653 1050 l 787 1050 l 1004 251 q 1021 151 1015 212 l 1024 151 q 1044 254 1027 195 l 1250 1050 l 1396 1050 z "},"X":{"ha":896,"x_min":18,"x_max":876,"o":"m 876 0 l 711 0 l 476 395 q 452 450 468 409 l 449 450 q 425 395 448 444 l 183 0 l 18 0 l 367 528 l 45 1050 l 212 1050 l 419 687 q 456 612 437 655 l 458 612 q 498 690 475 649 l 715 1050 l 871 1050 l 543 530 l 876 0 z "},"Y":{"ha":838,"x_min":12,"x_max":831,"o":"m 831 1050 l 485 387 l 485 0 l 349 0 l 349 383 l 12 1050 l 167 1050 l 394 585 q 419 518 395 585 l 421 518 q 449 585 429 547 l 686 1050 l 831 1050 z "},"Z":{"ha":861,"x_min":25,"x_max":829,"o":"m 829 1010 l 224 120 l 816 120 l 816 0 l 25 0 l 25 46 l 627 930 l 73 930 l 73 1050 l 829 1050 l 829 1010 z "},"[":{"ha":464,"x_min":148,"x_max":425,"o":"m 425 -239 l 148 -239 l 148 1050 l 425 1050 l 425 956 l 264 956 l 264 -145 l 425 -145 l 425 -239 z "},"\\":{"ha":578,"x_min":-17,"x_max":598,"o":"m 598 -176 l 477 -176 l -17 1050 l 107 1050 l 598 -176 z "},"]":{"ha":464,"x_min":40,"x_max":318,"o":"m 318 -239 l 40 -239 l 40 -145 l 201 -145 l 201 956 l 40 956 l 40 1050 l 318 1050 l 318 -239 z "},"^":{"ha":1030,"x_min":166,"x_max":866,"o":"m 866 456 l 749 456 l 509 906 l 505 906 l 281 456 l 166 456 l 476 1068 l 532 1068 l 866 456 z "},"_":{"ha":623,"x_min":0,"x_max":623,"o":"m 623 -218 l 0 -218 l 0 -130 l 623 -130 l 623 -218 z "},"`":{"ha":410,"x_min":58,"x_max":355,"o":"m 355 889 l 254 889 l 58 1129 l 191 1129 l 355 889 z "},"a":{"ha":768,"x_min":63,"x_max":666,"o":"m 136 698 q 395 768 248 768 q 666 483 666 768 l 666 0 l 534 0 l 534 116 l 531 116 q 301 -18 453 -18 q 127 41 192 -18 q 63 201 63 100 q 312 446 63 411 l 534 477 q 382 661 534 661 q 136 570 248 661 l 136 698 m 359 353 q 232 307 267 340 q 197 212 197 273 q 235 124 197 158 q 335 90 273 90 q 478 151 422 90 q 534 304 534 212 l 534 376 l 359 353 z "},"b":{"ha":887,"x_min":119,"x_max":819,"o":"m 252 106 l 252 0 l 119 0 l 119 1110 l 252 1110 l 252 621 l 254 621 q 512 768 342 768 q 736 668 653 768 q 819 397 819 569 q 726 95 819 207 q 477 -18 633 -18 q 254 106 331 -18 l 252 106 m 251 309 q 310 155 251 218 q 458 92 369 92 q 623 174 564 92 q 683 399 683 255 q 627 588 683 517 q 475 658 572 658 q 314 588 378 658 q 251 410 251 518 l 251 309 z "},"c":{"ha":696,"x_min":68,"x_max":637,"o":"m 637 34 q 429 -18 551 -18 q 168 87 267 -18 q 68 357 68 191 q 175 655 68 542 q 461 768 282 768 q 637 731 564 768 l 637 600 q 461 658 558 658 q 276 579 347 658 q 204 368 204 500 q 272 165 204 239 q 454 92 339 92 q 637 156 551 92 l 637 34 z "},"d":{"ha":888,"x_min":68,"x_max":770,"o":"m 770 0 l 637 0 l 637 125 l 634 125 q 379 -18 552 -18 q 153 84 237 -18 q 68 357 68 185 q 163 655 68 543 q 412 768 258 768 q 634 648 565 768 l 637 648 l 637 1110 l 770 1110 l 770 0 m 637 446 q 578 597 637 536 q 432 658 519 658 q 265 579 326 658 q 204 363 204 500 q 263 165 204 238 q 419 92 321 92 q 576 164 515 92 q 637 342 637 235 l 637 446 z "},"e":{"ha":788,"x_min":68,"x_max":730,"o":"m 730 341 l 205 341 q 271 156 208 221 q 445 90 333 90 q 676 171 571 90 l 676 52 q 414 -18 577 -18 q 160 85 251 -18 q 68 372 68 189 q 169 656 68 544 q 417 768 269 768 q 647 673 564 768 q 730 408 730 578 l 730 341 m 597 448 q 549 605 596 549 q 415 661 501 661 q 278 602 336 661 q 205 448 220 543 l 597 448 z "},"f":{"ha":481,"x_min":38,"x_max":503,"o":"m 503 997 q 422 1017 466 1017 q 298 862 298 1017 l 298 750 l 473 750 l 473 640 l 298 640 l 298 0 l 166 0 l 166 640 l 38 640 l 38 750 l 166 750 l 166 868 q 236 1058 166 989 q 412 1126 305 1126 q 503 1114 469 1126 l 503 997 z "},"g":{"ha":888,"x_min":68,"x_max":770,"o":"m 770 63 q 366 -353 770 -353 q 123 -301 226 -353 l 123 -173 q 363 -243 248 -243 q 637 45 637 -243 l 637 124 l 634 124 q 379 -18 549 -18 q 153 83 238 -18 q 68 351 68 184 q 162 655 68 543 q 412 768 256 768 q 634 648 562 768 l 637 648 l 637 750 l 770 750 l 770 63 m 637 446 q 578 595 637 533 q 433 658 519 658 q 264 578 325 658 q 204 359 204 498 q 262 166 204 240 q 417 92 321 92 q 576 163 514 92 q 637 342 637 233 l 637 446 z "},"h":{"ha":855,"x_min":119,"x_max":752,"o":"m 752 0 l 620 0 l 620 431 q 452 658 620 658 q 309 592 366 658 q 252 425 252 526 l 252 0 l 119 0 l 119 1110 l 252 1110 l 252 627 l 254 627 q 499 768 340 768 q 752 462 752 768 l 752 0 z "},"i":{"ha":370,"x_min":102,"x_max":271,"o":"m 102 1015 q 126 1074 102 1050 q 186 1098 151 1098 q 247 1074 222 1098 q 271 1015 271 1050 q 247 956 271 979 q 186 932 222 932 q 126 956 150 932 q 102 1015 102 979 m 118 0 l 118 750 l 251 750 l 251 0 l 118 0 z "},"j":{"ha":371,"x_min":-140,"x_max":272,"o":"m 103 1015 q 127 1074 103 1050 q 186 1098 151 1098 q 248 1074 223 1098 q 272 1015 272 1050 q 247 956 272 980 q 186 932 222 932 q 127 957 151 932 q 103 1015 103 981 m 252 29 q 176 -253 252 -153 q -39 -353 100 -353 q -140 -330 -90 -353 l -140 -210 q -39 -242 -87 -242 q 119 9 119 -242 l 119 750 l 252 750 l 252 29 z "},"k":{"ha":756,"x_min":119,"x_max":756,"o":"m 756 0 l 575 0 l 254 361 l 252 361 l 252 0 l 119 0 l 119 1110 l 252 1110 l 252 406 l 254 406 l 559 750 l 730 750 l 391 389 l 756 0 z "},"l":{"ha":370,"x_min":118,"x_max":251,"o":"m 118 0 l 118 1110 l 251 1110 l 251 0 l 118 0 z "},"m":{"ha":1301,"x_min":119,"x_max":1198,"o":"m 1198 0 l 1065 0 l 1065 431 q 1027 605 1065 553 q 903 658 989 658 q 777 589 829 658 q 725 427 725 521 l 725 0 l 592 0 l 592 444 q 427 658 592 658 q 301 593 351 658 q 252 427 252 528 l 252 0 l 119 0 l 119 750 l 252 750 l 252 631 l 254 631 q 488 768 334 768 q 621 726 564 768 q 701 614 679 685 q 951 768 785 768 q 1198 463 1198 768 l 1198 0 z "},"n":{"ha":856,"x_min":119,"x_max":753,"o":"m 753 0 l 621 0 l 621 427 q 452 658 621 658 q 308 593 364 658 q 252 428 252 528 l 252 0 l 119 0 l 119 750 l 252 750 l 252 626 l 254 626 q 500 768 339 768 q 688 689 624 768 q 753 458 753 610 l 753 0 z "},"o":{"ha":883,"x_min":68,"x_max":814,"o":"m 68 367 q 172 660 68 553 q 454 768 276 768 q 719 664 623 768 q 814 378 814 561 q 712 92 814 201 q 437 -18 610 -18 q 169 88 269 -18 q 68 367 68 194 m 204 371 q 270 167 204 241 q 446 92 335 92 q 619 165 559 92 q 679 374 679 238 q 619 585 679 511 q 446 658 559 658 q 269 581 334 658 q 204 371 204 505 z "},"p":{"ha":887,"x_min":119,"x_max":819,"o":"m 252 106 l 252 -345 l 119 -345 l 119 750 l 252 750 l 252 621 l 254 621 q 512 768 342 768 q 738 667 656 768 q 819 397 819 566 q 727 96 819 210 q 477 -18 634 -18 q 254 106 333 -18 l 252 106 m 251 309 q 310 155 251 218 q 458 92 369 92 q 623 174 564 92 q 683 399 683 255 q 627 589 683 520 q 475 658 572 658 q 314 588 377 658 q 251 409 251 518 l 251 309 z "},"q":{"ha":888,"x_min":68,"x_max":770,"o":"m 770 -345 l 637 -345 l 637 126 l 634 126 q 380 -18 555 -18 q 154 82 239 -18 q 68 357 68 182 q 162 656 68 544 q 413 768 256 768 q 634 648 565 768 l 637 648 l 637 750 l 770 750 l 770 -345 m 637 444 q 580 595 637 532 q 431 658 523 658 q 264 579 325 658 q 204 361 204 500 q 262 163 204 235 q 414 92 320 92 q 577 163 517 92 q 637 340 637 234 l 637 444 z "},"r":{"ha":530,"x_min":119,"x_max":521,"o":"m 521 618 q 429 642 488 642 q 302 570 352 642 q 252 380 252 498 l 252 0 l 119 0 l 119 750 l 252 750 l 252 597 l 254 597 q 451 763 311 763 q 521 753 496 763 l 521 618 z "},"s":{"ha":643,"x_min":77,"x_max":583,"o":"m 77 162 q 293 90 177 90 q 448 191 448 90 q 414 263 448 235 q 277 330 380 291 q 115 429 152 380 q 77 548 77 478 q 162 708 77 648 q 370 768 246 768 q 547 734 465 768 l 547 606 q 357 661 463 661 q 253 633 293 661 q 213 559 213 605 q 242 490 213 515 q 370 425 271 465 q 539 328 495 378 q 583 204 583 278 q 499 42 583 101 q 280 -18 414 -18 q 77 26 163 -18 l 77 162 z "},"t":{"ha":517,"x_min":31,"x_max":479,"o":"m 479 7 q 361 -16 435 -16 q 160 207 160 -16 l 160 640 l 31 640 l 31 750 l 160 750 l 160 930 l 292 972 l 292 750 l 479 750 l 479 640 l 292 640 l 292 231 q 317 125 292 157 q 401 93 342 93 q 479 118 446 93 l 479 7 z "},"u":{"ha":856,"x_min":104,"x_max":738,"o":"m 738 0 l 604 0 l 604 118 l 602 118 q 370 -18 526 -18 q 104 301 104 -18 l 104 750 l 235 750 l 235 321 q 410 92 235 92 q 551 156 497 92 q 604 318 604 220 l 604 750 l 738 750 l 738 0 z "},"v":{"ha":729,"x_min":9,"x_max":723,"o":"m 723 750 l 426 0 l 292 0 l 9 750 l 155 750 l 338 214 q 364 106 360 150 l 368 106 q 391 212 374 163 l 583 750 l 723 750 z "},"w":{"ha":1097,"x_min":17,"x_max":1080,"o":"m 1080 750 l 856 0 l 718 0 l 568 526 q 556 598 559 560 l 553 598 q 538 528 551 570 l 376 0 l 242 0 l 17 750 l 155 750 l 305 194 q 315 125 312 169 l 321 125 q 334 196 323 163 l 495 750 l 618 750 l 775 193 q 786 124 782 169 l 792 124 q 804 193 793 154 l 951 750 l 1080 750 z "},"x":{"ha":704,"x_min":18,"x_max":686,"o":"m 686 750 l 435 372 l 683 0 l 528 0 l 385 239 q 353 297 374 258 l 350 297 q 316 239 349 293 l 170 0 l 18 0 l 273 368 l 29 750 l 184 750 l 324 499 q 355 439 337 476 l 358 439 l 541 750 l 686 750 z "},"y":{"ha":735,"x_min":9,"x_max":729,"o":"m 729 750 l 389 -113 q 121 -353 294 -353 q 36 -342 71 -353 l 36 -226 q 111 -241 75 -241 q 245 -135 201 -241 l 303 1 l 9 750 l 156 750 l 352 186 l 368 125 l 372 125 q 388 185 376 146 l 593 750 l 729 750 z "},"z":{"ha":683,"x_min":24,"x_max":649,"o":"m 646 0 l 24 0 l 24 44 l 460 640 l 64 640 l 64 750 l 649 750 l 649 707 l 216 110 l 646 110 l 646 0 z "},"{":{"ha":464,"x_min":68,"x_max":416,"o":"m 416 -239 q 182 -7 182 -237 l 182 208 q 68 361 182 355 l 68 451 q 182 607 182 458 l 182 816 q 416 1050 182 1048 l 416 951 q 300 809 300 949 l 300 601 q 190 408 300 444 l 190 405 q 300 214 300 372 l 300 9 q 327 -108 300 -75 q 416 -142 355 -141 l 416 -239 z "},"|":{"ha":374,"x_min":130,"x_max":246,"o":"m 246 -353 l 130 -353 l 130 1147 l 246 1147 l 246 -353 z "},"}":{"ha":464,"x_min":50,"x_max":397,"o":"m 397 361 q 283 208 283 355 l 283 -7 q 50 -239 283 -237 l 50 -142 q 139 -107 111 -141 q 167 9 167 -73 l 167 214 q 277 405 167 372 l 277 408 q 167 601 167 444 l 167 809 q 50 951 167 948 l 50 1050 q 283 816 283 1048 l 283 607 q 397 451 283 458 l 397 361 z "},"~":{"ha":1030,"x_min":152,"x_max":880,"o":"m 880 551 q 819 380 873 440 q 671 319 764 319 q 478 398 591 319 q 362 446 406 446 q 257 319 261 446 l 152 319 q 213 490 157 430 q 361 551 269 551 q 533 487 437 551 q 676 422 629 422 q 747 458 721 422 q 775 551 774 493 l 880 551 z "},"¡":{"ha":434,"x_min":130,"x_max":304,"o":"m 130 682 q 155 741 130 716 q 217 766 181 766 q 278 741 252 766 q 304 682 304 715 q 278 621 304 646 q 220 596 253 596 q 154 621 179 596 q 130 682 130 646 m 288 -297 l 149 -297 l 164 454 l 273 454 l 288 -297 z "},"¢":{"ha":814,"x_min":134,"x_max":701,"o":"m 701 153 q 543 103 634 111 l 543 -42 l 448 -42 l 448 104 q 219 223 305 120 q 134 476 134 326 q 218 744 134 633 q 448 880 303 854 l 448 1029 l 543 1029 l 543 886 q 701 850 632 885 l 701 715 q 543 772 629 767 l 543 214 q 701 276 631 224 l 701 153 m 448 763 q 316 669 365 741 q 267 488 267 596 q 315 313 267 383 q 448 222 362 243 l 448 763 z "},"£":{"ha":814,"x_min":81,"x_max":745,"o":"m 745 0 l 81 0 l 81 106 q 238 332 238 155 l 238 463 l 96 463 l 96 572 l 238 572 l 238 753 q 319 979 238 890 q 530 1068 400 1068 q 688 1037 617 1068 l 688 915 q 533 958 614 958 q 369 739 369 958 l 369 572 l 584 572 l 584 463 l 369 463 l 369 355 q 231 111 369 182 l 745 111 l 745 0 z "},"¤":{"ha":833,"x_min":71,"x_max":764,"o":"m 764 260 l 693 188 l 592 287 q 418 232 515 232 q 242 287 319 232 l 140 188 l 71 260 l 170 358 q 116 531 116 439 q 170 704 116 625 l 71 804 l 140 878 l 242 778 q 418 833 322 833 q 591 778 511 833 l 693 878 l 764 804 l 664 704 q 720 531 720 622 q 664 358 720 442 l 764 260 m 219 532 q 277 393 219 452 q 418 334 335 334 q 557 393 498 334 q 617 532 617 452 q 556 671 617 612 q 418 730 496 730 q 277 672 335 730 q 219 532 219 614 z "},"¥":{"ha":814,"x_min":47,"x_max":772,"o":"m 772 1050 l 512 571 l 718 571 l 718 465 l 476 465 l 476 318 l 718 318 l 718 212 l 476 212 l 476 0 l 344 0 l 344 212 l 94 212 l 94 318 l 344 318 l 344 465 l 94 465 l 94 571 l 304 571 l 47 1050 l 199 1050 l 378 677 q 412 597 393 646 l 415 597 q 450 680 429 636 l 631 1050 l 772 1050 z "},"¦":{"ha":374,"x_min":130,"x_max":246,"o":"m 246 521 l 130 521 l 130 1147 l 246 1147 l 246 521 m 246 -353 l 130 -353 l 130 275 l 246 275 l 246 -353 z "},"§":{"ha":678,"x_min":96,"x_max":599,"o":"m 490 306 q 555 171 555 252 q 482 14 555 75 q 292 -48 409 -48 q 113 -7 193 -48 l 113 117 q 300 60 213 60 q 393 88 361 60 q 425 159 425 115 q 397 224 425 197 q 267 304 369 250 q 96 537 96 393 q 201 715 96 655 q 125 878 125 777 q 196 1031 125 971 q 378 1092 266 1092 q 541 1060 472 1092 l 541 936 q 376 985 464 985 q 256 884 256 985 q 359 760 256 808 q 504 683 463 710 q 572 610 545 656 q 599 508 599 564 q 490 306 599 385 m 294 659 q 223 547 223 623 q 268 452 223 492 q 408 372 313 413 q 470 494 470 420 q 425 588 470 552 q 294 659 380 625 z "},"¨":{"ha":629,"x_min":88,"x_max":531,"o":"m 378 965 q 400 1019 378 998 q 453 1040 422 1040 q 508 1019 486 1040 q 531 965 531 997 q 508 911 531 932 q 454 889 486 889 q 400 911 423 889 q 378 965 378 933 m 88 965 q 110 1019 88 997 q 165 1040 132 1040 q 220 1018 197 1040 q 243 965 243 996 q 220 911 243 934 q 167 889 198 889 q 112 911 136 889 q 88 965 88 933 z "},"©":{"ha":1333,"x_min":116,"x_max":1217,"o":"m 116 525 q 277 913 116 753 q 667 1074 437 1074 q 1056 913 895 1074 q 1217 525 1217 753 q 1056 136 1217 296 q 667 -24 895 -24 q 276 136 436 -24 q 116 525 116 296 m 184 525 q 326 183 184 323 q 667 43 467 43 q 1008 184 867 43 q 1148 525 1148 324 q 1007 866 1148 726 q 667 1007 867 1007 q 326 867 467 1007 q 184 525 184 726 m 888 199 q 690 149 803 147 q 433 250 536 147 q 331 514 331 353 q 436 794 331 686 q 712 901 542 901 q 885 861 807 901 l 885 745 q 699 798 815 798 q 516 722 587 798 q 444 526 444 646 q 517 321 444 396 q 705 249 591 247 q 888 305 811 247 l 888 199 z "},"ª":{"ha":591,"x_min":60,"x_max":508,"o":"m 407 525 l 407 597 l 404 597 q 235 511 345 511 q 108 555 156 511 q 60 667 60 599 q 242 840 60 816 l 407 862 q 297 981 407 981 q 111 918 198 981 l 111 1016 q 309 1066 194 1066 q 456 1014 404 1066 q 508 864 508 961 l 508 525 l 407 525 m 279 768 q 161 673 161 752 q 188 613 161 636 q 261 591 215 591 q 362 634 318 591 q 407 736 407 678 l 407 786 l 279 768 z "},"«":{"ha":772,"x_min":64,"x_max":710,"o":"m 709 146 l 577 146 l 356 393 l 577 644 l 710 644 l 483 393 l 709 146 m 416 146 l 286 146 l 64 393 l 286 644 l 416 644 l 191 393 l 416 146 z "},"¬":{"ha":1030,"x_min":171,"x_max":862,"o":"m 862 186 l 759 186 l 759 498 l 171 498 l 171 602 l 862 602 l 862 186 z "},"­":{"ha":601,"x_min":106,"x_max":505,"o":"m 505 365 l 106 365 l 106 467 l 505 467 l 505 365 z "},"®":{"ha":1333,"x_min":116,"x_max":1217,"o":"m 116 525 q 277 913 116 753 q 667 1074 437 1074 q 1056 913 895 1074 q 1217 525 1217 753 q 1056 136 1217 296 q 667 -24 895 -24 q 276 136 436 -24 q 116 525 116 296 m 184 525 q 326 183 184 323 q 667 43 467 43 q 1008 184 867 43 q 1148 525 1148 324 q 1007 866 1148 726 q 667 1007 867 1007 q 326 867 467 1007 q 184 525 184 726 m 935 183 l 809 183 l 736 351 q 679 442 709 412 q 616 473 649 473 l 553 473 l 553 183 l 449 183 l 449 879 l 650 879 q 838 829 770 879 q 906 688 906 779 q 860 566 906 616 q 730 499 814 516 q 789 459 760 491 q 845 370 818 427 l 935 183 m 553 791 l 553 559 l 655 559 q 759 589 724 559 q 794 676 794 618 q 756 764 794 738 q 637 791 719 791 l 553 791 z "},"¯":{"ha":623,"x_min":0,"x_max":623,"o":"m 623 1023 l 0 1023 l 0 1110 l 623 1110 l 623 1023 z "},"°":{"ha":566,"x_min":80,"x_max":487,"o":"m 283 1062 q 427 1003 367 1062 q 487 859 487 943 q 427 715 487 774 q 283 656 367 656 q 140 715 200 656 q 80 859 80 774 q 140 1003 80 943 q 283 1062 200 1062 m 283 746 q 363 780 330 746 q 397 859 397 813 q 363 939 397 906 q 283 972 330 972 q 204 939 237 972 q 171 859 171 906 q 204 780 171 813 q 283 746 237 746 z "},"±":{"ha":1030,"x_min":171,"x_max":862,"o":"m 862 481 l 567 481 l 567 186 l 466 186 l 466 481 l 171 481 l 171 584 l 466 584 l 466 878 l 567 878 l 567 584 l 862 584 l 862 481 m 862 0 l 171 0 l 171 103 l 862 103 l 862 0 z "},"²":{"ha":556,"x_min":77,"x_max":488,"o":"m 488 428 l 77 428 l 77 515 l 254 688 q 347 795 326 759 q 367 876 367 831 q 340 943 367 918 q 269 969 313 969 q 111 895 184 969 l 111 1009 q 285 1065 175 1065 q 423 1016 372 1065 q 475 888 475 968 q 324 633 475 777 l 209 525 l 209 522 l 488 522 l 488 428 z "},"³":{"ha":556,"x_min":94,"x_max":484,"o":"m 94 559 q 254 504 168 504 q 345 530 313 504 q 378 602 378 556 q 222 703 378 703 l 157 703 l 157 792 l 219 792 q 359 888 359 792 q 256 972 359 972 q 119 922 185 972 l 119 1027 q 277 1065 182 1065 q 410 1021 359 1065 q 461 907 461 977 q 355 758 461 797 l 355 755 q 484 607 484 724 q 419 467 484 521 q 252 412 355 412 q 94 451 153 412 l 94 559 z "},"´":{"ha":427,"x_min":92,"x_max":390,"o":"m 390 1129 l 194 889 l 92 889 l 259 1129 l 390 1129 z "},"µ":{"ha":874,"x_min":119,"x_max":848,"o":"m 612 127 q 407 -18 551 -18 q 255 66 298 -18 l 251 66 l 251 -345 l 119 -345 l 119 750 l 251 750 l 251 296 q 297 155 251 210 q 421 100 342 100 q 551 163 504 100 q 599 326 599 226 l 599 750 l 731 750 l 731 230 q 817 109 731 109 q 848 113 829 109 l 848 3 q 771 -7 797 -7 q 617 127 646 -7 l 612 127 z "},"¶":{"ha":696,"x_min":62,"x_max":621,"o":"m 621 970 l 527 970 l 527 0 l 444 0 l 444 970 l 332 970 l 332 0 l 247 0 l 247 656 q 115 713 167 655 q 62 854 62 772 q 117 994 62 938 q 253 1050 171 1050 l 621 1050 l 621 970 z "},"·":{"ha":334,"x_min":81,"x_max":256,"o":"m 81 458 q 106 520 81 494 q 168 545 132 545 q 230 520 204 545 q 256 458 256 495 q 231 397 256 423 q 168 372 205 372 q 105 397 130 372 q 81 458 81 423 z "},"¸":{"ha":309,"x_min":37,"x_max":292,"o":"m 37 -317 l 37 -247 q 89 -252 64 -252 q 191 -186 191 -252 q 108 -130 191 -130 q 68 -134 93 -130 l 68 0 l 153 0 l 153 -74 q 292 -186 292 -77 q 100 -322 292 -322 q 37 -317 69 -322 z "},"¹":{"ha":534,"x_min":94,"x_max":475,"o":"m 475 428 l 101 428 l 101 515 l 236 515 l 236 940 l 94 901 l 94 997 l 338 1066 l 338 515 l 475 515 l 475 428 z "},"º":{"ha":650,"x_min":56,"x_max":593,"o":"m 56 783 q 131 988 56 912 q 332 1065 206 1065 q 522 992 452 1065 q 593 794 593 919 q 519 587 593 665 q 321 510 446 510 q 128 583 199 510 q 56 783 56 656 m 163 786 q 205 647 163 696 q 326 597 248 597 q 444 648 400 597 q 487 787 487 699 q 444 929 487 878 q 327 979 401 979 q 207 927 250 979 q 163 786 163 876 z "},"»":{"ha":772,"x_min":62,"x_max":710,"o":"m 710 394 l 488 146 l 358 146 l 582 394 l 358 644 l 488 644 l 710 394 m 417 394 l 196 146 l 62 146 l 291 394 l 63 644 l 196 644 l 417 394 z "},"¼":{"ha":1367,"x_min":94,"x_max":1261,"o":"m 475 428 l 101 428 l 101 515 l 236 515 l 236 940 l 94 901 l 94 997 l 338 1066 l 338 515 l 475 515 l 475 428 m 1041 1050 l 410 0 l 296 0 l 927 1050 l 1041 1050 m 1261 147 l 1181 147 l 1181 0 l 1077 0 l 1077 147 l 789 147 l 789 218 l 1057 623 l 1181 623 l 1181 231 l 1261 231 l 1261 147 m 1076 526 q 1048 473 1066 502 l 893 231 l 1077 231 l 1077 463 q 1080 526 1077 477 l 1076 526 z "},"½":{"ha":1396,"x_min":94,"x_max":1286,"o":"m 475 428 l 101 428 l 101 515 l 236 515 l 236 940 l 94 901 l 94 997 l 338 1066 l 338 515 l 475 515 l 475 428 m 1040 1050 l 409 0 l 295 0 l 926 1050 l 1040 1050 m 1286 0 l 876 0 l 876 87 l 1052 260 q 1145 367 1124 331 q 1165 448 1165 404 q 1138 515 1165 490 q 1067 541 1112 541 q 909 467 983 541 l 909 581 q 1083 637 973 637 q 1221 588 1170 637 q 1273 460 1273 540 q 1122 205 1273 349 l 1007 97 l 1007 94 l 1286 94 l 1286 0 z "},"¾":{"ha":1367,"x_min":94,"x_max":1263,"o":"m 94 559 q 254 504 168 504 q 345 530 313 504 q 378 602 378 556 q 222 703 378 703 l 157 703 l 157 792 l 219 792 q 359 888 359 792 q 256 972 359 972 q 119 922 185 972 l 119 1027 q 277 1065 182 1065 q 410 1021 359 1065 q 461 907 461 977 q 355 758 461 797 l 355 755 q 484 607 484 724 q 419 467 484 521 q 252 412 355 412 q 94 451 153 412 l 94 559 m 1091 1050 l 460 0 l 346 0 l 977 1050 l 1091 1050 m 1263 147 l 1182 147 l 1182 0 l 1078 0 l 1078 147 l 791 147 l 791 218 l 1059 623 l 1182 623 l 1182 231 l 1263 231 l 1263 147 m 1078 526 q 1050 473 1067 502 l 895 231 l 1078 231 l 1078 463 q 1082 526 1078 477 l 1078 526 z "},"¿":{"ha":671,"x_min":97,"x_max":608,"o":"m 477 682 q 451 622 477 648 q 389 595 425 595 q 328 621 355 595 q 302 682 302 647 q 328 742 302 717 q 389 766 355 766 q 450 742 423 766 q 477 682 477 717 m 460 460 q 476 352 476 412 q 455 261 476 307 q 363 146 434 215 q 254 24 279 64 q 228 -64 228 -16 q 274 -165 228 -127 q 392 -203 321 -203 q 608 -106 515 -203 l 608 -245 q 374 -315 496 -315 q 173 -252 250 -315 q 97 -81 97 -189 q 131 46 97 -12 q 261 193 165 104 q 357 357 357 283 q 333 460 357 406 l 460 460 z "},"À":{"ha":977,"x_min":16,"x_max":961,"o":"m 961 0 l 811 0 l 704 288 l 267 288 l 165 0 l 16 0 l 416 1050 l 561 1050 l 961 0 m 662 406 l 503 843 q 487 916 496 864 l 484 916 q 467 843 476 869 l 309 406 l 662 406 m 615 1144 l 514 1144 l 318 1384 l 450 1384 l 615 1144 z "},"Á":{"ha":977,"x_min":16,"x_max":961,"o":"m 961 0 l 811 0 l 704 288 l 267 288 l 165 0 l 16 0 l 416 1050 l 561 1050 l 961 0 m 662 406 l 503 843 q 487 916 496 864 l 484 916 q 467 843 476 869 l 309 406 l 662 406 m 648 1384 l 452 1144 l 350 1144 l 517 1384 l 648 1384 z "},"Â":{"ha":977,"x_min":16,"x_max":961,"o":"m 961 0 l 811 0 l 704 288 l 267 288 l 165 0 l 16 0 l 416 1050 l 561 1050 l 961 0 m 662 406 l 503 843 q 487 916 496 864 l 484 916 q 467 843 476 869 l 309 406 l 662 406 m 697 1143 l 601 1143 l 481 1309 l 361 1143 l 271 1143 l 431 1386 l 537 1386 l 697 1143 z "},"Ã":{"ha":977,"x_min":16,"x_max":961,"o":"m 961 0 l 811 0 l 704 288 l 267 288 l 165 0 l 16 0 l 416 1050 l 561 1050 l 961 0 m 662 406 l 503 843 q 487 916 496 864 l 484 916 q 467 843 476 869 l 309 406 l 662 406 m 724 1324 q 687 1195 724 1244 q 591 1145 651 1145 q 471 1183 538 1145 q 384 1215 414 1215 q 320 1132 320 1215 l 248 1132 q 284 1262 248 1215 q 382 1310 320 1310 q 494 1272 431 1310 q 587 1239 548 1239 q 648 1324 648 1239 l 724 1324 z "},"Ä":{"ha":977,"x_min":16,"x_max":961,"o":"m 961 0 l 811 0 l 704 288 l 267 288 l 165 0 l 16 0 l 416 1050 l 561 1050 l 961 0 m 662 406 l 503 843 q 487 916 496 864 l 484 916 q 467 843 476 869 l 309 406 l 662 406 m 555 1219 q 577 1273 555 1252 q 631 1295 600 1295 q 686 1273 663 1295 q 709 1219 709 1251 q 686 1165 709 1187 q 632 1143 663 1143 q 578 1165 601 1143 q 555 1219 555 1187 m 266 1219 q 288 1273 266 1251 q 342 1295 310 1295 q 397 1273 374 1295 q 420 1219 420 1251 q 398 1166 420 1188 q 345 1143 376 1143 q 290 1165 313 1143 q 266 1219 266 1187 z "},"Å":{"ha":977,"x_min":16,"x_max":962,"o":"m 962 0 l 812 0 l 704 288 l 267 288 l 165 0 l 16 0 l 401 1013 q 331 1134 331 1049 q 376 1236 331 1194 q 490 1278 421 1278 q 598 1237 555 1278 q 641 1134 641 1197 q 574 1013 641 1049 l 962 0 m 403 1134 q 488 1052 403 1052 q 549 1075 530 1052 q 569 1134 569 1098 q 545 1192 569 1170 q 486 1214 521 1214 q 426 1191 449 1214 q 403 1134 403 1168 m 662 408 l 503 843 q 489 916 496 861 l 486 916 q 467 843 476 869 l 309 408 l 662 408 z "},"Æ":{"ha":1303,"x_min":7,"x_max":1236,"o":"m 1236 0 l 672 0 l 672 288 l 302 288 l 164 0 l 7 0 l 522 1050 l 1212 1050 l 1212 930 l 807 930 l 807 593 l 1183 593 l 1183 473 l 807 473 l 807 120 l 1236 120 l 1236 0 m 672 406 l 672 930 l 604 930 l 355 406 l 672 406 z "},"Ç":{"ha":929,"x_min":68,"x_max":854,"o":"m 854 43 q 570 -18 734 -18 l 570 -74 q 708 -186 708 -77 q 667 -281 708 -242 q 507 -319 625 -319 l 454 -317 l 454 -247 q 505 -252 481 -252 q 608 -186 608 -252 q 527 -130 608 -130 q 484 -134 511 -130 l 484 -13 q 180 154 292 10 q 68 505 68 298 q 218 909 68 751 q 606 1068 369 1068 q 854 1025 756 1068 l 854 884 q 607 946 742 946 q 320 828 431 946 q 210 513 210 709 q 313 215 210 328 q 583 103 416 103 q 854 174 739 103 l 854 43 z "},"È":{"ha":764,"x_min":136,"x_max":701,"o":"m 701 0 l 136 0 l 136 1050 l 677 1050 l 677 930 l 271 930 l 271 593 l 647 593 l 647 473 l 271 473 l 271 120 l 701 120 l 701 0 m 524 1144 l 422 1144 l 227 1384 l 359 1384 l 524 1144 z "},"É":{"ha":764,"x_min":136,"x_max":701,"o":"m 701 0 l 136 0 l 136 1050 l 677 1050 l 677 930 l 271 930 l 271 593 l 647 593 l 647 473 l 271 473 l 271 120 l 701 120 l 701 0 m 594 1383 l 398 1143 l 296 1143 l 463 1383 l 594 1383 z "},"Ê":{"ha":764,"x_min":136,"x_max":701,"o":"m 701 0 l 136 0 l 136 1050 l 677 1050 l 677 930 l 271 930 l 271 593 l 647 593 l 647 473 l 271 473 l 271 120 l 701 120 l 701 0 m 614 1145 l 517 1145 l 398 1310 l 278 1145 l 188 1145 l 347 1388 l 454 1388 l 614 1145 z "},"Ë":{"ha":764,"x_min":136,"x_max":701,"o":"m 701 0 l 136 0 l 136 1050 l 677 1050 l 677 930 l 271 930 l 271 593 l 647 593 l 647 473 l 271 473 l 271 120 l 701 120 l 701 0 m 478 1220 q 500 1274 478 1253 q 553 1295 522 1295 q 609 1274 586 1295 q 631 1220 631 1252 q 609 1166 631 1187 q 555 1144 586 1144 q 501 1166 524 1144 q 478 1220 478 1188 m 189 1220 q 211 1274 189 1252 q 265 1295 233 1295 q 320 1273 297 1295 q 343 1220 343 1251 q 321 1166 343 1189 q 267 1144 298 1144 q 212 1166 236 1144 q 189 1220 189 1188 z "},"Ì":{"ha":408,"x_min":19,"x_max":372,"o":"m 372 936 l 271 936 l 271 115 l 372 115 l 372 0 l 35 0 l 35 115 l 136 115 l 136 936 l 35 936 l 35 1050 l 372 1050 l 372 936 m 316 1144 l 215 1144 l 19 1384 l 151 1384 l 316 1144 z "},"Í":{"ha":408,"x_min":35,"x_max":384,"o":"m 372 936 l 271 936 l 271 115 l 372 115 l 372 0 l 35 0 l 35 115 l 136 115 l 136 936 l 35 936 l 35 1050 l 372 1050 l 372 936 m 384 1384 l 188 1144 l 86 1144 l 253 1384 l 384 1384 z "},"Î":{"ha":408,"x_min":-5,"x_max":420,"o":"m 372 936 l 271 936 l 271 115 l 372 115 l 372 0 l 35 0 l 35 115 l 136 115 l 136 936 l 35 936 l 35 1050 l 372 1050 l 372 936 m 420 1145 l 324 1145 l 205 1310 l 85 1145 l -5 1145 l 154 1388 l 260 1388 l 420 1145 z "},"Ï":{"ha":408,"x_min":-14,"x_max":429,"o":"m 372 936 l 271 936 l 271 115 l 372 115 l 372 0 l 35 0 l 35 115 l 136 115 l 136 936 l 35 936 l 35 1050 l 372 1050 l 372 936 m 276 1220 q 298 1274 276 1253 q 351 1295 320 1295 q 407 1274 384 1295 q 429 1220 429 1252 q 407 1166 429 1187 q 353 1144 384 1144 q 299 1166 321 1144 q 276 1220 276 1188 m -14 1220 q 8 1274 -14 1252 q 63 1295 31 1295 q 118 1273 95 1295 q 141 1220 141 1251 q 119 1166 141 1189 q 65 1144 96 1144 q 10 1166 34 1144 q -14 1220 -14 1188 z "},"Ð":{"ha":1058,"x_min":18,"x_max":991,"o":"m 136 0 l 136 465 l 18 465 l 18 588 l 136 588 l 136 1050 l 435 1050 q 991 538 991 1050 q 836 148 991 296 q 425 0 682 0 l 136 0 m 271 930 l 271 588 l 512 588 l 512 465 l 271 465 l 271 120 l 424 120 q 736 230 624 120 q 848 535 848 339 q 430 930 848 930 l 271 930 z "},"Ñ":{"ha":1129,"x_min":136,"x_max":994,"o":"m 994 0 l 833 0 l 304 817 q 269 886 282 852 l 264 886 q 270 739 270 850 l 270 0 l 136 0 l 136 1050 l 306 1050 l 820 248 q 863 175 857 191 l 866 175 q 859 328 859 220 l 859 1050 l 994 1050 l 994 0 m 820 1324 q 784 1195 820 1244 q 687 1145 747 1145 q 568 1183 635 1145 q 480 1215 510 1215 q 416 1132 416 1215 l 344 1132 q 380 1262 344 1215 q 479 1310 416 1310 q 590 1272 528 1310 q 684 1239 644 1239 q 744 1324 744 1239 l 820 1324 z "},"Ò":{"ha":1132,"x_min":68,"x_max":1065,"o":"m 68 513 q 205 918 68 767 q 578 1068 343 1068 q 931 921 798 1068 q 1065 538 1065 774 q 928 132 1065 282 q 562 -18 791 -18 q 203 130 338 -18 q 68 513 68 277 m 210 524 q 308 218 210 333 q 562 103 405 103 q 826 213 730 103 q 922 522 922 323 q 828 836 922 725 q 570 946 734 946 q 310 829 410 946 q 210 524 210 713 m 655 1144 l 554 1144 l 358 1384 l 490 1384 l 655 1144 z "},"Ó":{"ha":1132,"x_min":68,"x_max":1065,"o":"m 68 513 q 205 918 68 767 q 578 1068 343 1068 q 931 921 798 1068 q 1065 538 1065 774 q 928 132 1065 282 q 562 -18 791 -18 q 203 130 338 -18 q 68 513 68 277 m 210 524 q 308 218 210 333 q 562 103 405 103 q 826 213 730 103 q 922 522 922 323 q 828 836 922 725 q 570 946 734 946 q 310 829 410 946 q 210 524 210 713 m 759 1384 l 563 1144 l 461 1144 l 628 1384 l 759 1384 z "},"Ô":{"ha":1132,"x_min":68,"x_max":1065,"o":"m 68 513 q 205 918 68 767 q 578 1068 343 1068 q 931 921 798 1068 q 1065 538 1065 774 q 928 132 1065 282 q 562 -18 791 -18 q 203 130 338 -18 q 68 513 68 277 m 210 524 q 308 218 210 333 q 562 103 405 103 q 826 213 730 103 q 922 522 922 323 q 828 836 922 725 q 570 946 734 946 q 310 829 410 946 q 210 524 210 713 m 787 1144 l 690 1144 l 571 1310 l 451 1144 l 361 1144 l 520 1387 l 627 1387 l 787 1144 z "},"Õ":{"ha":1132,"x_min":68,"x_max":1065,"o":"m 68 513 q 205 918 68 767 q 578 1068 343 1068 q 931 921 798 1068 q 1065 538 1065 774 q 928 132 1065 282 q 562 -18 791 -18 q 203 130 338 -18 q 68 513 68 277 m 210 524 q 308 218 210 333 q 562 103 405 103 q 826 213 730 103 q 922 522 922 323 q 828 836 922 725 q 570 946 734 946 q 310 829 410 946 q 210 524 210 713 m 810 1324 q 774 1194 810 1243 q 677 1145 738 1145 q 558 1182 625 1145 q 471 1214 500 1214 q 407 1131 407 1214 l 334 1131 q 371 1261 334 1214 q 469 1309 407 1309 q 581 1271 518 1309 q 674 1238 635 1238 q 734 1324 734 1238 l 810 1324 z "},"Ö":{"ha":1132,"x_min":68,"x_max":1065,"o":"m 68 513 q 205 918 68 767 q 578 1068 343 1068 q 931 921 798 1068 q 1065 538 1065 774 q 928 132 1065 282 q 562 -18 791 -18 q 203 130 338 -18 q 68 513 68 277 m 210 524 q 308 218 210 333 q 562 103 405 103 q 826 213 730 103 q 922 522 922 323 q 828 836 922 725 q 570 946 734 946 q 310 829 410 946 q 210 524 210 713 m 636 1218 q 658 1272 636 1251 q 711 1293 680 1293 q 767 1272 744 1293 q 789 1218 789 1250 q 767 1164 789 1185 q 713 1142 744 1142 q 659 1164 682 1142 q 636 1218 636 1186 m 347 1218 q 369 1272 347 1250 q 423 1293 391 1293 q 478 1271 455 1293 q 501 1218 501 1249 q 479 1164 501 1187 q 425 1142 456 1142 q 370 1164 394 1142 q 347 1218 347 1186 z "},"×":{"ha":1030,"x_min":194,"x_max":837,"o":"m 837 189 l 764 115 l 515 364 l 267 115 l 194 189 l 444 436 l 194 685 l 267 758 l 515 509 l 764 758 l 837 684 l 588 436 l 837 189 z "},"Ø":{"ha":1132,"x_min":68,"x_max":1065,"o":"m 129 -38 l 68 13 l 182 151 q 68 513 68 293 q 207 916 68 763 q 578 1068 345 1068 q 873 974 749 1068 l 972 1092 l 1032 1042 l 931 922 q 1065 538 1065 774 q 927 133 1065 283 q 562 -18 790 -18 q 239 94 369 -18 l 129 -38 m 792 876 q 570 948 701 948 q 309 830 409 948 q 208 523 208 711 q 275 260 208 367 l 792 876 m 325 198 q 562 101 418 101 q 826 213 729 101 q 924 521 924 325 q 844 817 924 704 l 325 198 z "},"Ù":{"ha":1037,"x_min":123,"x_max":914,"o":"m 914 428 q 510 -18 914 -18 q 123 412 123 -18 l 123 1050 l 258 1050 l 258 418 q 523 103 258 103 q 779 408 779 103 l 779 1050 l 914 1050 l 914 428 m 618 1144 l 517 1144 l 321 1384 l 454 1384 l 618 1144 z "},"Ú":{"ha":1037,"x_min":123,"x_max":914,"o":"m 914 428 q 510 -18 914 -18 q 123 412 123 -18 l 123 1050 l 258 1050 l 258 418 q 523 103 258 103 q 779 408 779 103 l 779 1050 l 914 1050 l 914 428 m 711 1383 l 515 1143 l 413 1143 l 580 1383 l 711 1383 z "},"Û":{"ha":1037,"x_min":123,"x_max":914,"o":"m 914 428 q 510 -18 914 -18 q 123 412 123 -18 l 123 1050 l 258 1050 l 258 418 q 523 103 258 103 q 779 408 779 103 l 779 1050 l 914 1050 l 914 428 m 732 1145 l 635 1145 l 516 1310 l 396 1145 l 306 1145 l 465 1388 l 572 1388 l 732 1145 z "},"Ü":{"ha":1037,"x_min":123,"x_max":914,"o":"m 914 428 q 510 -18 914 -18 q 123 412 123 -18 l 123 1050 l 258 1050 l 258 418 q 523 103 258 103 q 779 408 779 103 l 779 1050 l 914 1050 l 914 428 m 587 1221 q 609 1275 587 1253 q 662 1296 631 1296 q 717 1274 694 1296 q 740 1221 740 1253 q 717 1166 740 1188 q 663 1145 694 1145 q 609 1167 632 1145 q 587 1221 587 1189 m 297 1221 q 319 1274 297 1253 q 374 1296 341 1296 q 429 1274 406 1296 q 452 1221 452 1252 q 429 1167 452 1190 q 376 1145 407 1145 q 321 1167 345 1145 q 297 1221 297 1189 z "},"Ý":{"ha":838,"x_min":12,"x_max":831,"o":"m 831 1050 l 485 387 l 485 0 l 349 0 l 349 383 l 12 1050 l 167 1050 l 394 585 q 419 518 395 585 l 421 518 q 449 585 429 547 l 686 1050 l 831 1050 m 605 1384 l 409 1144 l 307 1144 l 474 1384 l 605 1384 z "},"Þ":{"ha":850,"x_min":136,"x_max":792,"o":"m 271 229 l 271 0 l 136 0 l 136 1050 l 271 1050 l 271 886 l 434 886 q 698 805 604 886 q 792 570 792 724 q 686 324 792 419 q 405 229 580 229 l 271 229 m 271 768 l 271 349 l 397 349 q 650 563 650 349 q 410 768 650 768 l 271 768 z "},"ß":{"ha":830,"x_min":119,"x_max":780,"o":"m 345 127 q 469 92 400 92 q 596 146 549 92 q 644 285 644 199 q 571 458 644 391 q 370 537 498 524 l 370 640 q 511 714 458 655 q 565 854 565 774 q 526 974 565 931 q 417 1017 487 1017 q 252 795 252 1017 l 252 0 l 119 0 l 119 810 q 203 1040 119 954 q 426 1126 287 1126 q 626 1056 550 1126 q 701 869 701 985 q 648 707 701 782 q 504 602 595 633 l 504 599 q 780 289 780 545 q 696 70 780 158 q 478 -18 612 -18 q 345 2 401 -18 l 345 127 z "},"à":{"ha":768,"x_min":63,"x_max":666,"o":"m 136 698 q 395 768 248 768 q 666 483 666 768 l 666 0 l 534 0 l 534 116 l 531 116 q 301 -18 453 -18 q 127 41 192 -18 q 63 201 63 100 q 312 446 63 411 l 534 477 q 382 661 534 661 q 136 570 248 661 l 136 698 m 359 353 q 232 307 267 340 q 197 212 197 273 q 235 124 197 158 q 335 90 273 90 q 478 151 422 90 q 534 304 534 212 l 534 376 l 359 353 m 503 889 l 401 889 l 205 1129 l 338 1129 l 503 889 z "},"á":{"ha":768,"x_min":63,"x_max":666,"o":"m 136 698 q 395 768 248 768 q 666 483 666 768 l 666 0 l 534 0 l 534 116 l 531 116 q 301 -18 453 -18 q 127 41 192 -18 q 63 201 63 100 q 312 446 63 411 l 534 477 q 382 661 534 661 q 136 570 248 661 l 136 698 m 359 353 q 232 307 267 340 q 197 212 197 273 q 235 124 197 158 q 335 90 273 90 q 478 151 422 90 q 534 304 534 212 l 534 376 l 359 353 m 562 1129 l 366 889 l 264 889 l 431 1129 l 562 1129 z "},"â":{"ha":768,"x_min":63,"x_max":666,"o":"m 136 698 q 395 768 248 768 q 666 483 666 768 l 666 0 l 534 0 l 534 116 l 531 116 q 301 -18 453 -18 q 127 41 192 -18 q 63 201 63 100 q 312 446 63 411 l 534 477 q 382 661 534 661 q 136 570 248 661 l 136 698 m 359 353 q 232 307 267 340 q 197 212 197 273 q 235 124 197 158 q 335 90 273 90 q 478 151 422 90 q 534 304 534 212 l 534 376 l 359 353 m 598 889 l 502 889 l 382 1055 l 262 889 l 172 889 l 332 1132 l 438 1132 l 598 889 z "},"ã":{"ha":768,"x_min":63,"x_max":666,"o":"m 136 698 q 395 768 248 768 q 666 483 666 768 l 666 0 l 534 0 l 534 116 l 531 116 q 301 -18 453 -18 q 127 41 192 -18 q 63 201 63 100 q 312 446 63 411 l 534 477 q 382 661 534 661 q 136 570 248 661 l 136 698 m 359 353 q 232 307 267 340 q 197 212 197 273 q 235 124 197 158 q 335 90 273 90 q 478 151 422 90 q 534 304 534 212 l 534 376 l 359 353 m 623 1072 q 586 942 623 991 q 490 892 550 892 q 370 930 437 892 q 283 962 313 962 q 219 879 219 962 l 146 879 q 183 1009 146 962 q 281 1057 219 1057 q 393 1019 330 1057 q 486 986 447 986 q 547 1072 547 986 l 623 1072 z "},"ä":{"ha":768,"x_min":63,"x_max":666,"o":"m 136 698 q 395 768 248 768 q 666 483 666 768 l 666 0 l 534 0 l 534 116 l 531 116 q 301 -18 453 -18 q 127 41 192 -18 q 63 201 63 100 q 312 446 63 411 l 534 477 q 382 661 534 661 q 136 570 248 661 l 136 698 m 359 353 q 232 307 267 340 q 197 212 197 273 q 235 124 197 158 q 335 90 273 90 q 478 151 422 90 q 534 304 534 212 l 534 376 l 359 353 m 448 965 q 470 1019 448 998 q 524 1040 492 1040 q 579 1019 556 1040 q 602 965 602 997 q 579 911 602 932 q 525 889 556 889 q 471 911 494 889 q 448 965 448 933 m 159 965 q 181 1019 159 997 q 235 1040 203 1040 q 290 1018 267 1040 q 313 965 313 996 q 291 911 313 934 q 237 889 269 889 q 182 911 206 889 q 159 965 159 933 z "},"å":{"ha":768,"x_min":63,"x_max":666,"o":"m 136 698 q 395 768 248 768 q 666 483 666 768 l 666 0 l 534 0 l 534 116 l 531 116 q 301 -18 453 -18 q 127 41 192 -18 q 63 201 63 100 q 312 446 63 411 l 534 477 q 382 661 534 661 q 136 570 248 661 l 136 698 m 359 353 q 232 307 267 340 q 197 212 197 273 q 235 124 197 158 q 335 90 273 90 q 478 151 422 90 q 534 304 534 212 l 534 376 l 359 353 m 231 1003 q 274 1109 231 1067 q 387 1150 318 1150 q 495 1109 452 1150 q 538 1008 538 1069 q 493 904 538 946 q 382 862 448 862 q 273 902 316 862 q 231 1003 231 942 m 300 1006 q 382 926 300 926 q 441 949 418 926 q 465 1006 465 972 q 442 1065 465 1042 q 382 1088 418 1088 q 323 1064 347 1088 q 300 1006 300 1040 z "},"æ":{"ha":1247,"x_min":63,"x_max":1190,"o":"m 1190 341 l 663 341 q 728 155 666 220 q 902 90 791 90 q 1135 171 1030 90 l 1135 52 q 871 -18 1037 -18 q 590 146 673 -18 l 587 146 q 305 -18 481 -18 q 129 41 194 -18 q 63 201 63 100 q 343 439 63 421 l 534 451 q 380 661 534 661 q 136 572 252 661 l 136 698 q 393 768 248 768 q 615 627 564 768 l 618 627 q 876 768 704 768 q 1107 672 1024 768 q 1190 406 1190 576 l 1190 341 m 1056 448 q 876 661 1052 661 q 736 601 795 661 q 665 448 677 541 l 1056 448 m 534 345 l 390 336 q 239 299 284 330 q 195 205 195 268 q 233 122 195 154 q 334 90 271 90 q 476 151 418 90 q 534 300 534 212 l 534 345 z "},"ç":{"ha":696,"x_min":68,"x_max":637,"o":"m 637 34 q 437 -18 551 -18 l 437 -74 q 574 -186 574 -77 q 522 -287 574 -252 q 374 -321 470 -321 l 320 -317 l 320 -247 q 372 -252 348 -252 q 473 -186 473 -252 q 380 -130 473 -130 q 350 -134 378 -130 l 350 -10 q 145 115 221 14 q 68 357 68 217 q 177 655 68 543 q 461 768 285 768 q 637 731 564 768 l 637 600 q 461 658 558 658 q 276 577 348 658 q 204 368 204 497 q 272 166 204 241 q 454 92 339 92 q 637 156 551 92 l 637 34 z "},"è":{"ha":788,"x_min":68,"x_max":730,"o":"m 730 341 l 205 341 q 271 156 208 221 q 445 90 333 90 q 676 171 571 90 l 676 52 q 414 -18 577 -18 q 160 85 251 -18 q 68 372 68 189 q 169 656 68 544 q 417 768 269 768 q 647 673 564 768 q 730 408 730 578 l 730 341 m 597 448 q 549 605 596 549 q 415 661 501 661 q 278 602 336 661 q 205 448 220 543 l 597 448 m 540 889 l 439 889 l 243 1129 l 375 1129 l 540 889 z "},"é":{"ha":788,"x_min":68,"x_max":730,"o":"m 730 341 l 205 341 q 271 156 208 221 q 445 90 333 90 q 676 171 571 90 l 676 52 q 414 -18 577 -18 q 160 85 251 -18 q 68 372 68 189 q 169 656 68 544 q 417 768 269 768 q 647 673 564 768 q 730 408 730 578 l 730 341 m 597 448 q 549 605 596 549 q 415 661 501 661 q 278 602 336 661 q 205 448 220 543 l 597 448 m 589 1129 l 393 889 l 292 889 l 458 1129 l 589 1129 z "},"ê":{"ha":788,"x_min":68,"x_max":730,"o":"m 730 341 l 205 341 q 271 156 208 221 q 445 90 333 90 q 676 171 571 90 l 676 52 q 414 -18 577 -18 q 160 85 251 -18 q 68 372 68 189 q 169 656 68 544 q 417 768 269 768 q 647 673 564 768 q 730 408 730 578 l 730 341 m 597 448 q 549 605 596 549 q 415 661 501 661 q 278 602 336 661 q 205 448 220 543 l 597 448 m 624 889 l 528 889 l 408 1055 l 288 889 l 198 889 l 357 1132 l 464 1132 l 624 889 z "},"ë":{"ha":788,"x_min":68,"x_max":730,"o":"m 730 341 l 205 341 q 271 156 208 221 q 445 90 333 90 q 676 171 571 90 l 676 52 q 414 -18 577 -18 q 160 85 251 -18 q 68 372 68 189 q 169 656 68 544 q 417 768 269 768 q 647 673 564 768 q 730 408 730 578 l 730 341 m 597 448 q 549 605 596 549 q 415 661 501 661 q 278 602 336 661 q 205 448 220 543 l 597 448 m 476 965 q 498 1019 476 998 q 551 1040 520 1040 q 607 1019 584 1040 q 629 965 629 997 q 607 911 629 932 q 553 889 584 889 q 499 911 522 889 q 476 965 476 933 m 186 965 q 209 1019 186 997 q 263 1040 231 1040 q 318 1018 295 1040 q 341 965 341 996 q 319 911 341 934 q 265 889 296 889 q 210 911 234 889 q 186 965 186 933 z "},"ì":{"ha":370,"x_min":5,"x_max":302,"o":"m 118 0 l 118 750 l 251 750 l 251 0 l 118 0 m 302 889 l 201 889 l 5 1129 l 138 1129 l 302 889 z "},"í":{"ha":370,"x_min":64,"x_max":361,"o":"m 118 0 l 118 750 l 251 750 l 251 0 l 118 0 m 361 1129 l 165 889 l 64 889 l 231 1129 l 361 1129 z "},"î":{"ha":370,"x_min":-34,"x_max":392,"o":"m 118 0 l 118 750 l 251 750 l 251 0 l 118 0 m 392 889 l 296 889 l 176 1055 l 56 889 l -34 889 l 125 1132 l 232 1132 l 392 889 z "},"ï":{"ha":370,"x_min":-43,"x_max":400,"o":"m 118 0 l 118 750 l 251 750 l 251 0 l 118 0 m 247 965 q 269 1019 247 998 q 322 1040 291 1040 q 377 1019 355 1040 q 400 965 400 997 q 377 911 400 932 q 323 889 355 889 q 270 911 292 889 q 247 965 247 933 m -43 965 q -21 1019 -43 997 q 34 1040 1 1040 q 89 1018 66 1040 q 112 965 112 996 q 90 911 112 934 q 36 889 67 889 q -19 911 5 889 q -43 965 -43 933 z "},"ð":{"ha":844,"x_min":68,"x_max":776,"o":"m 576 711 q 431 903 511 827 l 213 793 l 173 869 l 369 963 q 175 1110 279 1042 l 348 1110 q 470 1014 398 1076 l 680 1118 l 722 1046 l 533 953 q 776 389 776 730 q 677 96 776 208 q 418 -16 578 -16 q 161 87 254 -16 q 68 368 68 190 q 165 656 68 546 q 420 766 262 766 q 573 709 509 766 l 576 711 m 204 371 q 263 166 204 241 q 426 92 323 92 q 582 169 524 92 q 640 374 640 246 q 429 658 640 658 q 264 580 324 658 q 204 371 204 502 z "},"ñ":{"ha":856,"x_min":119,"x_max":753,"o":"m 753 0 l 621 0 l 621 427 q 452 658 621 658 q 308 593 364 658 q 252 428 252 528 l 252 0 l 119 0 l 119 750 l 252 750 l 252 626 l 254 626 q 500 768 339 768 q 688 689 624 768 q 753 458 753 610 l 753 0 m 672 1072 q 636 942 672 991 q 539 892 600 892 q 420 930 487 892 q 332 962 362 962 q 269 879 269 962 l 196 879 q 232 1009 196 962 q 331 1057 269 1057 q 442 1019 380 1057 q 536 986 496 986 q 596 1072 596 986 l 672 1072 z "},"ò":{"ha":883,"x_min":68,"x_max":814,"o":"m 68 367 q 172 660 68 553 q 454 768 276 768 q 719 664 623 768 q 814 378 814 561 q 712 92 814 201 q 437 -18 610 -18 q 169 88 269 -18 q 68 367 68 194 m 204 371 q 270 167 204 241 q 446 92 335 92 q 619 165 559 92 q 679 374 679 238 q 619 585 679 511 q 446 658 559 658 q 269 581 334 658 q 204 371 204 505 m 557 889 l 456 889 l 260 1129 l 392 1129 l 557 889 z "},"ó":{"ha":883,"x_min":68,"x_max":814,"o":"m 68 367 q 172 660 68 553 q 454 768 276 768 q 719 664 623 768 q 814 378 814 561 q 712 92 814 201 q 437 -18 610 -18 q 169 88 269 -18 q 68 367 68 194 m 204 371 q 270 167 204 241 q 446 92 335 92 q 619 165 559 92 q 679 374 679 238 q 619 585 679 511 q 446 658 559 658 q 269 581 334 658 q 204 371 204 505 m 626 1129 l 430 889 l 328 889 l 495 1129 l 626 1129 z "},"ô":{"ha":883,"x_min":68,"x_max":814,"o":"m 68 367 q 172 660 68 553 q 454 768 276 768 q 719 664 623 768 q 814 378 814 561 q 712 92 814 201 q 437 -18 610 -18 q 169 88 269 -18 q 68 367 68 194 m 204 371 q 270 167 204 241 q 446 92 335 92 q 619 165 559 92 q 679 374 679 238 q 619 585 679 511 q 446 658 559 658 q 269 581 334 658 q 204 371 204 505 m 656 889 l 560 889 l 441 1055 l 321 889 l 231 889 l 390 1132 l 496 1132 l 656 889 z "},"õ":{"ha":883,"x_min":68,"x_max":814,"o":"m 68 367 q 172 660 68 553 q 454 768 276 768 q 719 664 623 768 q 814 378 814 561 q 712 92 814 201 q 437 -18 610 -18 q 169 88 269 -18 q 68 367 68 194 m 204 371 q 270 167 204 241 q 446 92 335 92 q 619 165 559 92 q 679 374 679 238 q 619 585 679 511 q 446 658 559 658 q 269 581 334 658 q 204 371 204 505 m 686 1072 q 650 942 686 991 q 553 892 614 892 q 434 930 501 892 q 347 962 376 962 q 283 879 283 962 l 210 879 q 247 1009 210 962 q 345 1057 283 1057 q 456 1019 394 1057 q 550 986 511 986 q 610 1072 610 986 l 686 1072 z "},"ö":{"ha":883,"x_min":68,"x_max":814,"o":"m 68 367 q 172 660 68 553 q 454 768 276 768 q 719 664 623 768 q 814 378 814 561 q 712 92 814 201 q 437 -18 610 -18 q 169 88 269 -18 q 68 367 68 194 m 204 371 q 270 167 204 241 q 446 92 335 92 q 619 165 559 92 q 679 374 679 238 q 619 585 679 511 q 446 658 559 658 q 269 581 334 658 q 204 371 204 505 m 510 965 q 532 1019 510 998 q 585 1040 554 1040 q 641 1019 618 1040 q 663 965 663 997 q 641 911 663 932 q 587 889 618 889 q 533 911 555 889 q 510 965 510 933 m 220 965 q 242 1019 220 997 q 297 1040 264 1040 q 352 1018 329 1040 q 375 965 375 996 q 353 911 375 934 q 299 889 330 889 q 244 911 268 889 q 220 965 220 933 z "},"÷":{"ha":1030,"x_min":171,"x_max":862,"o":"m 438 713 q 460 773 438 749 q 518 797 482 797 q 595 713 595 797 q 572 655 595 676 q 518 633 549 633 q 461 656 484 633 q 438 713 438 680 m 862 385 l 171 385 l 171 488 l 862 488 l 862 385 m 438 155 q 460 215 438 191 q 518 239 482 239 q 595 155 595 239 q 573 99 595 121 q 518 77 552 77 q 462 100 486 77 q 438 155 438 123 z "},"ø":{"ha":883,"x_min":35,"x_max":863,"o":"m 863 764 l 741 635 q 814 382 814 535 q 712 90 814 198 q 437 -18 609 -18 q 203 56 296 -18 l 98 -60 l 35 0 l 143 118 q 68 367 68 220 q 172 660 68 552 q 456 768 276 768 q 681 697 591 768 l 798 824 l 863 764 m 597 608 q 446 660 542 660 q 267 583 332 660 q 202 371 202 507 q 236 216 202 280 l 597 608 m 288 143 q 444 90 349 90 q 622 165 561 90 q 682 376 682 239 q 650 536 682 469 l 288 143 z "},"ù":{"ha":856,"x_min":104,"x_max":738,"o":"m 738 0 l 604 0 l 604 118 l 602 118 q 370 -18 526 -18 q 104 301 104 -18 l 104 750 l 235 750 l 235 321 q 410 92 235 92 q 551 156 497 92 q 604 318 604 220 l 604 750 l 738 750 l 738 0 m 527 889 l 426 889 l 230 1129 l 362 1129 l 527 889 z "},"ú":{"ha":856,"x_min":104,"x_max":738,"o":"m 738 0 l 604 0 l 604 118 l 602 118 q 370 -18 526 -18 q 104 301 104 -18 l 104 750 l 235 750 l 235 321 q 410 92 235 92 q 551 156 497 92 q 604 318 604 220 l 604 750 l 738 750 l 738 0 m 621 1129 l 425 889 l 323 889 l 490 1129 l 621 1129 z "},"û":{"ha":856,"x_min":104,"x_max":738,"o":"m 738 0 l 604 0 l 604 118 l 602 118 q 370 -18 526 -18 q 104 301 104 -18 l 104 750 l 235 750 l 235 321 q 410 92 235 92 q 551 156 497 92 q 604 318 604 220 l 604 750 l 738 750 l 738 0 m 635 889 l 538 889 l 419 1055 l 299 889 l 209 889 l 368 1132 l 475 1132 l 635 889 z "},"ü":{"ha":856,"x_min":104,"x_max":738,"o":"m 738 0 l 604 0 l 604 118 l 602 118 q 370 -18 526 -18 q 104 301 104 -18 l 104 750 l 235 750 l 235 321 q 410 92 235 92 q 551 156 497 92 q 604 318 604 220 l 604 750 l 738 750 l 738 0 m 494 965 q 516 1019 494 998 q 569 1040 538 1040 q 624 1019 602 1040 q 647 965 647 997 q 624 911 647 932 q 570 889 602 889 q 516 911 539 889 q 494 965 494 933 m 204 965 q 226 1019 204 997 q 281 1040 248 1040 q 336 1018 313 1040 q 359 965 359 996 q 336 911 359 934 q 283 889 314 889 q 228 911 252 889 q 204 965 204 933 z "},"ý":{"ha":735,"x_min":9,"x_max":729,"o":"m 729 750 l 389 -113 q 121 -353 294 -353 q 36 -342 71 -353 l 36 -226 q 111 -241 75 -241 q 245 -135 201 -241 l 303 1 l 9 750 l 156 750 l 352 186 l 368 125 l 372 125 q 388 185 376 146 l 593 750 l 729 750 m 555 1129 l 359 889 l 258 889 l 425 1129 l 555 1129 z "},"þ":{"ha":887,"x_min":119,"x_max":819,"o":"m 252 106 l 252 -345 l 119 -345 l 119 1110 l 252 1110 l 252 621 l 254 621 q 512 768 342 768 q 738 667 656 768 q 819 397 819 566 q 727 96 819 210 q 477 -18 634 -18 q 254 106 333 -18 l 252 106 m 252 309 q 310 155 251 218 q 458 92 369 92 q 623 174 564 92 q 683 399 683 255 q 627 589 683 520 q 475 658 572 658 q 314 588 377 658 q 252 409 251 518 l 252 309 z "},"ÿ":{"ha":735,"x_min":9,"x_max":729,"o":"m 729 750 l 389 -113 q 121 -353 294 -353 q 36 -342 71 -353 l 36 -226 q 111 -241 75 -241 q 245 -135 201 -241 l 303 1 l 9 750 l 156 750 l 352 186 l 368 125 l 372 125 q 388 185 376 146 l 593 750 l 729 750 m 440 965 q 462 1019 440 998 q 515 1040 484 1040 q 571 1019 548 1040 q 593 965 593 997 q 571 911 593 932 q 517 889 548 889 q 463 911 486 889 q 440 965 440 933 m 151 965 q 173 1019 151 997 q 227 1040 195 1040 q 282 1018 259 1040 q 305 965 305 996 q 283 911 305 934 q 229 889 260 889 q 174 911 198 889 q 151 965 151 933 z "},"Ā":{"ha":977,"x_min":16,"x_max":961,"o":"m 961 0 l 811 0 l 704 288 l 267 288 l 165 0 l 16 0 l 416 1050 l 561 1050 l 961 0 m 662 406 l 503 843 q 487 916 496 864 l 484 916 q 467 843 476 869 l 309 406 l 662 406 m 650 1142 l 268 1142 l 268 1229 l 650 1229 l 650 1142 z "},"ā":{"ha":768,"x_min":63,"x_max":666,"o":"m 136 698 q 395 768 248 768 q 666 483 666 768 l 666 0 l 534 0 l 534 116 l 531 116 q 301 -18 453 -18 q 127 41 192 -18 q 63 201 63 100 q 312 446 63 411 l 534 477 q 382 661 534 661 q 136 570 248 661 l 136 698 m 359 353 q 232 307 267 340 q 197 212 197 273 q 235 124 197 158 q 335 90 273 90 q 478 151 422 90 q 534 304 534 212 l 534 376 l 359 353 m 563 888 l 180 888 l 180 975 l 563 975 l 563 888 z "},"Ă":{"ha":977,"x_min":16,"x_max":961,"o":"m 961 0 l 811 0 l 704 288 l 267 288 l 165 0 l 16 0 l 416 1050 l 561 1050 l 961 0 m 662 406 l 503 843 q 487 916 496 864 l 484 916 q 467 843 476 869 l 309 406 l 662 406 m 674 1333 q 607 1195 665 1247 q 465 1143 549 1143 q 321 1196 376 1143 q 262 1333 265 1249 l 341 1333 q 467 1221 351 1221 q 551 1252 517 1221 q 593 1333 585 1282 l 674 1333 z "},"ă":{"ha":768,"x_min":63,"x_max":666,"o":"m 136 698 q 395 768 248 768 q 666 483 666 768 l 666 0 l 534 0 l 534 116 l 531 116 q 301 -18 453 -18 q 127 41 192 -18 q 63 201 63 100 q 312 446 63 411 l 534 477 q 382 661 534 661 q 136 570 248 661 l 136 698 m 359 353 q 232 307 267 340 q 197 212 197 273 q 235 124 197 158 q 335 90 273 90 q 478 151 422 90 q 534 304 534 212 l 534 376 l 359 353 m 573 1079 q 506 941 564 993 q 363 889 448 889 q 220 942 275 889 q 161 1079 164 994 l 240 1079 q 366 966 250 966 q 450 997 416 966 q 492 1079 484 1028 l 573 1079 z "},"Ą":{"ha":977,"x_min":15,"x_max":983,"o":"m 961 0 l 904 0 q 861 -121 861 -72 q 909 -169 861 -169 q 983 -151 945 -169 l 983 -232 q 887 -248 940 -248 q 798 -214 831 -248 q 764 -122 764 -180 q 811 0 764 -72 l 704 288 l 267 288 l 165 0 l 15 0 l 416 1050 l 560 1050 l 961 0 m 662 406 l 503 843 q 487 916 494 869 l 484 916 q 467 843 473 866 l 309 406 l 662 406 z "},"ą":{"ha":768,"x_min":63,"x_max":705,"o":"m 705 -232 q 611 -248 663 -248 q 521 -214 555 -248 q 488 -122 488 -179 q 535 0 488 -72 l 535 80 q 534 116 535 109 l 531 116 q 301 -18 453 -18 q 128 42 193 -18 q 63 201 63 101 q 312 446 63 412 l 534 477 q 382 661 534 661 q 136 570 247 661 l 136 698 q 255 747 179 727 q 395 768 331 768 q 665 483 665 768 l 665 0 l 627 0 q 584 -121 584 -72 q 632 -169 584 -169 q 705 -151 668 -169 l 705 -232 m 534 376 l 359 353 q 242 316 288 343 q 197 212 197 288 q 234 124 197 157 q 335 90 272 90 q 479 152 423 90 q 534 304 534 214 l 534 376 z "},"Ć":{"ha":929,"x_min":68,"x_max":854,"o":"m 854 43 q 564 -18 739 -18 q 203 126 338 -18 q 68 505 68 269 q 220 913 68 759 q 606 1068 372 1068 q 854 1025 756 1068 l 854 884 q 607 946 742 946 q 321 829 431 946 q 210 513 210 712 q 313 214 210 325 q 583 103 416 103 q 854 174 739 103 l 854 43 m 785 1384 l 589 1144 l 487 1144 l 654 1384 l 785 1384 z "},"ć":{"ha":696,"x_min":68,"x_max":637,"o":"m 637 34 q 429 -18 551 -18 q 168 87 267 -18 q 68 357 68 191 q 175 655 68 542 q 461 768 282 768 q 637 731 564 768 l 637 600 q 461 658 558 658 q 276 579 347 658 q 204 368 204 500 q 272 165 204 239 q 454 92 339 92 q 637 156 551 92 l 637 34 m 626 1129 l 430 889 l 328 889 l 495 1129 l 626 1129 z "},"Ĉ":{"ha":929,"x_min":68,"x_max":854,"o":"m 854 43 q 564 -18 739 -18 q 203 126 338 -18 q 68 505 68 269 q 220 913 68 759 q 606 1068 372 1068 q 854 1025 756 1068 l 854 884 q 607 946 742 946 q 321 829 431 946 q 210 513 210 712 q 313 214 210 325 q 583 103 416 103 q 854 174 739 103 l 854 43 m 788 1144 l 692 1144 l 572 1310 l 452 1144 l 362 1144 l 522 1387 l 628 1387 l 788 1144 z "},"ĉ":{"ha":696,"x_min":68,"x_max":637,"o":"m 637 34 q 429 -18 551 -18 q 168 87 267 -18 q 68 357 68 191 q 175 655 68 542 q 461 768 282 768 q 637 731 564 768 l 637 600 q 461 658 558 658 q 276 579 347 658 q 204 368 204 500 q 272 165 204 239 q 454 92 339 92 q 637 156 551 92 l 637 34 m 636 889 l 540 889 l 420 1055 l 300 889 l 210 889 l 370 1132 l 476 1132 l 636 889 z "},"Ċ":{"ha":929,"x_min":68,"x_max":854,"o":"m 854 43 q 564 -18 739 -18 q 203 126 338 -18 q 68 505 68 269 q 220 913 68 759 q 606 1068 372 1068 q 854 1025 756 1068 l 854 884 q 607 946 742 946 q 321 829 431 946 q 210 513 210 712 q 313 214 210 325 q 583 103 416 103 q 854 174 739 103 l 854 43 m 474 1220 q 496 1272 474 1251 q 551 1294 518 1294 q 605 1273 583 1294 q 627 1220 627 1253 q 604 1166 627 1188 q 551 1144 582 1144 q 496 1166 518 1144 q 474 1220 474 1189 z "},"ċ":{"ha":696,"x_min":68,"x_max":637,"o":"m 637 34 q 429 -18 551 -18 q 168 87 267 -18 q 68 357 68 191 q 175 655 68 542 q 461 768 282 768 q 637 731 564 768 l 637 600 q 461 658 558 658 q 276 579 347 658 q 204 368 204 500 q 272 165 204 239 q 454 92 339 92 q 637 156 551 92 l 637 34 m 350 965 q 372 1017 350 996 q 427 1039 394 1039 q 481 1018 459 1039 q 503 965 503 998 q 480 911 503 933 q 427 889 458 889 q 372 911 394 889 q 350 965 350 934 z "},"Č":{"ha":929,"x_min":68,"x_max":854,"o":"m 854 43 q 564 -18 739 -18 q 203 126 338 -18 q 68 505 68 269 q 220 913 68 759 q 606 1068 372 1068 q 854 1025 756 1068 l 854 884 q 607 946 742 946 q 321 829 431 946 q 210 513 210 712 q 313 214 210 325 q 583 103 416 103 q 854 174 739 103 l 854 43 m 821 1385 l 662 1144 l 555 1144 l 396 1385 l 488 1385 l 606 1221 l 726 1385 l 821 1385 z "},"č":{"ha":696,"x_min":68,"x_max":637,"o":"m 637 34 q 429 -18 551 -18 q 168 87 267 -18 q 68 357 68 191 q 175 655 68 542 q 461 768 282 768 q 637 731 564 768 l 637 600 q 461 658 558 658 q 276 579 347 658 q 204 368 204 500 q 272 165 204 239 q 454 92 339 92 q 637 156 551 92 l 637 34 m 635 1131 l 477 889 l 370 889 l 211 1131 l 302 1131 l 421 966 l 541 1131 l 635 1131 z "},"Ď":{"ha":1058,"x_min":136,"x_max":991,"o":"m 136 0 l 136 1050 l 435 1050 q 832 911 674 1050 q 991 538 991 772 q 832 147 991 294 q 425 0 674 0 l 136 0 m 271 930 l 271 120 l 424 120 q 736 229 624 120 q 848 535 848 338 q 733 831 848 732 q 430 930 618 930 l 271 930 m 764 1385 l 606 1144 l 499 1144 l 340 1385 l 431 1385 l 550 1221 l 670 1385 l 764 1385 z "},"ď":{"ha":994,"x_min":68,"x_max":1051,"o":"m 770 0 l 637 0 l 637 125 l 634 125 q 379 -18 552 -18 q 153 84 237 -18 q 68 357 68 185 q 163 655 68 543 q 412 768 258 768 q 634 648 565 768 l 637 648 l 637 1110 l 770 1110 l 770 0 m 637 446 q 578 597 637 536 q 432 658 519 658 q 265 579 326 658 q 204 363 204 500 q 263 165 204 238 q 419 92 321 92 q 576 164 515 92 q 637 342 637 235 l 637 446 m 1051 1110 l 929 913 l 833 913 l 917 1110 l 1051 1110 z "},"Đ":{"ha":1058,"x_min":18,"x_max":991,"o":"m 136 0 l 136 465 l 18 465 l 18 588 l 136 588 l 136 1050 l 435 1050 q 991 538 991 1050 q 836 148 991 296 q 425 0 682 0 l 136 0 m 271 930 l 271 588 l 512 588 l 512 465 l 271 465 l 271 120 l 424 120 q 736 230 624 120 q 848 535 848 339 q 430 930 848 930 l 271 930 z "},"đ":{"ha":890,"x_min":68,"x_max":869,"o":"m 869 878 l 770 878 l 770 0 l 637 0 l 637 125 l 634 125 q 379 -18 552 -18 q 151 85 234 -18 q 68 357 68 187 q 161 653 68 538 q 412 768 253 768 q 634 648 564 768 l 637 648 l 637 878 l 395 878 l 395 982 l 637 982 l 637 1110 l 770 1110 l 770 982 l 869 982 l 869 878 m 637 446 q 578 597 637 536 q 432 658 519 658 q 263 577 323 658 q 204 363 204 496 q 262 165 204 239 q 419 92 319 92 q 578 166 517 92 q 637 342 640 239 l 637 446 z "},"Ē":{"ha":764,"x_min":136,"x_max":701,"o":"m 701 0 l 136 0 l 136 1050 l 677 1050 l 677 930 l 271 930 l 271 593 l 647 593 l 647 473 l 271 473 l 271 120 l 701 120 l 701 0 m 613 1143 l 231 1143 l 231 1230 l 613 1230 l 613 1143 z "},"ē":{"ha":788,"x_min":68,"x_max":730,"o":"m 730 341 l 205 341 q 271 156 208 221 q 445 90 333 90 q 676 171 571 90 l 676 52 q 414 -18 577 -18 q 160 85 251 -18 q 68 372 68 189 q 169 656 68 544 q 417 768 269 768 q 647 673 564 768 q 730 408 730 578 l 730 341 m 597 448 q 549 605 596 549 q 415 661 501 661 q 278 602 336 661 q 205 448 220 543 l 597 448 m 610 888 l 228 888 l 228 975 l 610 975 l 610 888 z "},"Ĕ":{"ha":764,"x_min":136,"x_max":701,"o":"m 701 0 l 136 0 l 136 1050 l 677 1050 l 677 930 l 271 930 l 271 593 l 647 593 l 647 473 l 271 473 l 271 120 l 701 120 l 701 0 m 616 1335 q 549 1197 607 1249 q 406 1145 490 1145 q 262 1198 318 1145 q 203 1335 207 1251 l 283 1335 q 408 1223 293 1223 q 493 1254 458 1223 q 534 1335 527 1284 l 616 1335 z "},"ĕ":{"ha":788,"x_min":68,"x_max":730,"o":"m 730 341 l 205 341 q 271 156 208 221 q 445 90 333 90 q 676 171 571 90 l 676 52 q 414 -18 577 -18 q 160 85 251 -18 q 68 372 68 189 q 169 656 68 544 q 417 768 269 768 q 647 673 564 768 q 730 408 730 578 l 730 341 m 597 448 q 549 605 596 549 q 415 661 501 661 q 278 602 336 661 q 205 448 220 543 l 597 448 m 618 1079 q 551 941 609 993 q 408 889 492 889 q 264 942 320 889 q 205 1079 209 994 l 285 1079 q 410 966 295 966 q 495 997 460 966 q 536 1079 529 1028 l 618 1079 z "},"Ė":{"ha":764,"x_min":136,"x_max":701,"o":"m 701 0 l 136 0 l 136 1050 l 677 1050 l 677 930 l 271 930 l 271 593 l 647 593 l 647 473 l 271 473 l 271 120 l 701 120 l 701 0 m 330 1221 q 352 1273 330 1251 q 407 1295 374 1295 q 461 1274 439 1295 q 483 1221 483 1253 q 460 1167 483 1189 q 407 1145 438 1145 q 352 1167 374 1145 q 330 1221 330 1190 z "},"ė":{"ha":788,"x_min":68,"x_max":730,"o":"m 730 341 l 205 341 q 271 156 208 221 q 445 90 333 90 q 676 171 571 90 l 676 52 q 414 -18 577 -18 q 160 85 251 -18 q 68 372 68 189 q 169 656 68 544 q 417 768 269 768 q 647 673 564 768 q 730 408 730 578 l 730 341 m 597 448 q 549 605 596 549 q 415 661 501 661 q 278 602 336 661 q 205 448 220 543 l 597 448 m 350 965 q 372 1017 350 996 q 427 1039 394 1039 q 481 1018 459 1039 q 503 965 503 998 q 480 911 503 933 q 427 889 458 889 q 372 911 394 889 q 350 965 350 934 z "},"Ę":{"ha":764,"x_min":136,"x_max":701,"o":"m 701 0 l 604 0 q 561 -121 561 -72 q 609 -169 561 -169 q 683 -151 646 -169 l 683 -232 q 589 -248 640 -248 q 498 -214 531 -248 q 465 -122 465 -180 q 513 0 465 -73 l 136 0 l 136 1050 l 677 1050 l 677 930 l 271 930 l 271 593 l 647 593 l 647 473 l 271 473 l 271 120 l 701 120 l 701 0 z "},"ę":{"ha":787,"x_min":68,"x_max":730,"o":"m 553 -232 q 457 -248 510 -248 q 367 -214 401 -248 q 333 -122 333 -179 q 370 -16 333 -77 q 148 99 227 -2 q 68 372 68 201 q 168 658 68 548 q 417 768 268 768 q 648 672 566 768 q 730 408 730 576 l 730 341 l 205 341 q 445 90 215 90 q 676 171 572 90 l 676 52 q 464 -16 595 -4 q 431 -121 431 -76 q 479 -169 431 -169 q 553 -151 515 -169 l 553 -232 m 597 448 q 549 606 596 551 q 415 661 501 661 q 277 602 335 661 q 205 448 220 544 l 597 448 z "},"Ě":{"ha":764,"x_min":136,"x_max":701,"o":"m 701 0 l 136 0 l 136 1050 l 677 1050 l 677 930 l 271 930 l 271 593 l 647 593 l 647 473 l 271 473 l 271 120 l 701 120 l 701 0 m 625 1385 l 467 1144 l 360 1144 l 201 1385 l 292 1385 l 411 1221 l 531 1385 l 625 1385 z "},"ě":{"ha":788,"x_min":68,"x_max":730,"o":"m 730 341 l 205 341 q 271 156 208 221 q 445 90 333 90 q 676 171 571 90 l 676 52 q 414 -18 577 -18 q 160 85 251 -18 q 68 372 68 189 q 169 656 68 544 q 417 768 269 768 q 647 673 564 768 q 730 408 730 578 l 730 341 m 597 448 q 549 605 596 549 q 415 661 501 661 q 278 602 336 661 q 205 448 220 543 l 597 448 m 627 1131 l 469 889 l 362 889 l 203 1131 l 294 1131 l 413 966 l 533 1131 l 627 1131 z "},"Ĝ":{"ha":1033,"x_min":68,"x_max":930,"o":"m 930 72 q 574 -18 772 -18 q 207 126 347 -18 q 68 511 68 271 q 222 911 68 755 q 616 1068 376 1068 q 905 1014 787 1068 l 905 867 q 604 947 779 947 q 321 829 433 947 q 210 520 210 712 q 313 213 210 323 q 589 103 415 103 q 793 149 709 103 l 793 433 l 566 433 l 566 553 l 930 553 l 930 72 m 781 1145 l 684 1145 l 565 1311 l 445 1145 l 355 1145 l 514 1388 l 621 1388 l 781 1145 z "},"ĝ":{"ha":888,"x_min":68,"x_max":770,"o":"m 770 63 q 366 -353 770 -353 q 123 -301 226 -353 l 123 -173 q 363 -243 248 -243 q 637 45 637 -243 l 637 124 l 634 124 q 379 -18 549 -18 q 153 83 238 -18 q 68 351 68 184 q 162 655 68 543 q 412 768 256 768 q 634 648 562 768 l 637 648 l 637 750 l 770 750 l 770 63 m 637 446 q 578 595 637 533 q 433 658 519 658 q 264 578 325 658 q 204 359 204 498 q 262 166 204 240 q 417 92 321 92 q 576 163 514 92 q 637 342 637 233 l 637 446 m 637 889 l 541 889 l 422 1055 l 302 889 l 212 889 l 371 1132 l 477 1132 l 637 889 z "},"Ğ":{"ha":1033,"x_min":68,"x_max":930,"o":"m 930 72 q 574 -18 772 -18 q 207 126 347 -18 q 68 511 68 271 q 222 911 68 755 q 616 1068 376 1068 q 905 1014 787 1068 l 905 867 q 604 947 779 947 q 321 829 433 947 q 210 520 210 712 q 313 213 210 323 q 589 103 415 103 q 793 149 709 103 l 793 433 l 566 433 l 566 553 l 930 553 l 930 72 m 791 1333 q 724 1195 783 1247 q 582 1143 666 1143 q 438 1196 494 1143 q 379 1333 382 1249 l 458 1333 q 584 1221 469 1221 q 668 1252 634 1221 q 710 1333 703 1282 l 791 1333 z "},"ğ":{"ha":888,"x_min":68,"x_max":770,"o":"m 770 63 q 366 -353 770 -353 q 123 -301 226 -353 l 123 -173 q 363 -243 248 -243 q 637 45 637 -243 l 637 124 l 634 124 q 379 -18 549 -18 q 153 83 238 -18 q 68 351 68 184 q 162 655 68 543 q 412 768 256 768 q 634 648 562 768 l 637 648 l 637 750 l 770 750 l 770 63 m 637 446 q 578 595 637 533 q 433 658 519 658 q 264 578 325 658 q 204 359 204 498 q 262 166 204 240 q 417 92 321 92 q 576 163 514 92 q 637 342 637 233 l 637 446 m 645 1079 q 578 941 636 993 q 435 889 519 889 q 292 942 347 889 q 233 1079 236 994 l 312 1079 q 437 966 322 966 q 522 997 488 966 q 564 1079 556 1028 l 645 1079 z "},"Ġ":{"ha":1033,"x_min":68,"x_max":930,"o":"m 930 72 q 574 -18 772 -18 q 207 126 347 -18 q 68 511 68 271 q 222 911 68 755 q 616 1068 376 1068 q 905 1014 787 1068 l 905 867 q 604 947 779 947 q 321 829 433 947 q 210 520 210 712 q 313 213 210 323 q 589 103 415 103 q 793 149 709 103 l 793 433 l 566 433 l 566 553 l 930 553 l 930 72 m 512 1221 q 534 1273 512 1251 q 589 1295 556 1295 q 643 1274 621 1295 q 665 1221 665 1253 q 642 1167 665 1189 q 589 1145 620 1145 q 534 1167 556 1145 q 512 1221 512 1190 z "},"ġ":{"ha":888,"x_min":68,"x_max":770,"o":"m 770 63 q 366 -353 770 -353 q 123 -301 226 -353 l 123 -173 q 363 -243 248 -243 q 637 45 637 -243 l 637 124 l 634 124 q 379 -18 549 -18 q 153 83 238 -18 q 68 351 68 184 q 162 655 68 543 q 412 768 256 768 q 634 648 562 768 l 637 648 l 637 750 l 770 750 l 770 63 m 637 446 q 578 595 637 533 q 433 658 519 658 q 264 578 325 658 q 204 359 204 498 q 262 166 204 240 q 417 92 321 92 q 576 163 514 92 q 637 342 637 233 l 637 446 m 349 965 q 371 1017 349 996 q 425 1039 393 1039 q 479 1018 458 1039 q 501 965 501 998 q 479 911 501 933 q 425 889 456 889 q 371 911 393 889 q 349 965 349 934 z "},"Ģ":{"ha":1033,"x_min":68,"x_max":930,"o":"m 930 72 q 574 -18 772 -18 q 207 126 347 -18 q 68 511 68 271 q 222 911 68 755 q 616 1068 376 1068 q 905 1014 787 1068 l 905 867 q 604 947 779 947 q 321 829 433 947 q 210 520 210 712 q 313 213 210 323 q 589 103 415 103 q 793 149 709 103 l 793 433 l 566 433 l 566 553 l 930 553 l 930 72 m 663 -87 l 541 -285 l 446 -285 l 529 -87 l 663 -87 z "},"ģ":{"ha":888,"x_min":68,"x_max":770,"o":"m 345 889 l 466 1087 l 562 1087 l 478 889 l 345 889 m 770 63 q 366 -353 770 -353 q 123 -301 226 -353 l 123 -173 q 363 -243 248 -243 q 637 45 637 -243 l 637 124 l 634 124 q 379 -18 549 -18 q 153 83 238 -18 q 68 351 68 184 q 162 655 68 543 q 412 768 256 768 q 637 648 562 768 l 637 750 l 770 750 l 770 63 m 637 446 q 578 595 637 533 q 433 658 519 658 q 264 578 325 658 q 204 359 204 498 q 262 166 204 240 q 417 92 321 92 q 576 163 514 92 q 637 342 637 233 l 637 446 z "},"Ĥ":{"ha":1074,"x_min":136,"x_max":939,"o":"m 939 0 l 803 0 l 803 473 l 271 473 l 271 0 l 136 0 l 136 1050 l 271 1050 l 271 594 l 803 594 l 803 1050 l 939 1050 l 939 0 m 741 1144 l 644 1144 l 525 1310 l 405 1144 l 315 1144 l 474 1387 l 581 1387 l 741 1144 z "},"ĥ":{"ha":855,"x_min":-32,"x_max":752,"o":"m 752 0 l 620 0 l 620 431 q 452 658 620 658 q 309 592 366 658 q 252 425 252 526 l 252 0 l 119 0 l 119 1110 l 252 1110 l 252 627 l 254 627 q 499 768 340 768 q 752 462 752 768 l 752 0 m 394 1196 l 298 1196 l 178 1362 l 58 1196 l -32 1196 l 127 1439 l 234 1439 l 394 1196 z "},"Ħ":{"ha":1074,"x_min":18,"x_max":1057,"o":"m 1057 752 l 939 752 l 939 0 l 803 0 l 803 473 l 271 473 l 271 0 l 136 0 l 136 752 l 18 752 l 18 867 l 136 867 l 136 1050 l 271 1050 l 271 867 l 803 867 l 803 1050 l 939 1050 l 939 867 l 1057 867 l 1057 752 m 803 594 l 803 752 l 271 752 l 271 594 l 803 594 z "},"ħ":{"ha":859,"x_min":22,"x_max":755,"o":"m 755 0 l 623 0 l 623 429 q 454 656 623 656 q 312 590 369 656 q 254 423 254 524 l 254 0 l 122 0 l 122 878 l 22 878 l 22 979 l 122 979 l 122 1110 l 254 1110 l 254 979 l 498 979 l 498 878 l 254 878 l 254 625 l 258 625 q 502 766 345 766 q 755 460 755 766 l 755 0 z "},"ī":{"ha":370,"x_min":-7,"x_max":376,"o":"m 118 0 l 118 750 l 251 750 l 251 0 l 118 0 m 376 888 l -7 888 l -7 975 l 376 975 l 376 888 z "},"Į":{"ha":408,"x_min":35,"x_max":372,"o":"m 35 0 l 35 115 l 136 115 l 136 936 l 35 936 l 35 1050 l 372 1050 l 372 936 l 271 936 l 271 115 l 372 115 l 372 0 l 290 0 q 188 -158 188 -98 q 237 -208 188 -208 q 283 -197 260 -208 l 283 -278 q 217 -289 257 -289 q 126 -259 161 -289 q 92 -177 92 -229 q 201 0 92 -90 l 35 0 z "},"į":{"ha":370,"x_min":38,"x_max":271,"o":"m 102 1015 q 126 1074 102 1050 q 186 1098 151 1098 q 247 1074 222 1098 q 271 1015 271 1050 q 247 956 271 979 q 186 932 222 932 q 126 956 150 932 q 102 1015 102 979 m 118 0 l 118 750 l 251 750 l 251 0 l 236 0 q 134 -158 134 -99 q 182 -208 134 -208 q 229 -197 206 -208 l 229 -278 q 163 -289 202 -289 q 72 -259 106 -289 q 38 -177 38 -229 q 146 0 38 -91 l 118 0 z "},"İ":{"ha":408,"x_min":35,"x_max":372,"o":"m 372 936 l 271 936 l 271 115 l 372 115 l 372 0 l 35 0 l 35 115 l 136 115 l 136 936 l 35 936 l 35 1050 l 372 1050 l 372 936 m 127 1221 q 149 1273 127 1251 q 203 1295 171 1295 q 258 1274 236 1295 q 279 1221 279 1253 q 257 1167 279 1189 q 203 1145 235 1145 q 149 1167 171 1145 q 127 1221 127 1190 z "},"ı":{"ha":370,"x_min":118,"x_max":251,"o":"m 118 0 l 118 750 l 251 750 l 251 0 l 118 0 z "},"Ĳ":{"ha":978,"x_min":35,"x_max":850,"o":"m 372 936 l 271 936 l 271 115 l 372 115 l 372 0 l 35 0 l 35 115 l 136 115 l 136 936 l 35 936 l 35 1050 l 372 1050 l 372 936 m 850 381 q 770 86 850 191 q 550 -18 689 -18 q 444 1 486 -18 l 444 134 q 549 103 486 103 q 715 381 715 103 l 715 1050 l 850 1050 l 850 381 z "},"ĳ":{"ha":741,"x_min":102,"x_max":642,"o":"m 102 1015 q 126 1074 102 1050 q 186 1098 151 1098 q 247 1074 222 1098 q 271 1015 271 1050 q 247 956 271 979 q 186 932 222 932 q 126 956 150 932 q 102 1015 102 979 m 118 0 l 118 750 l 251 750 l 251 0 l 118 0 m 473 1015 q 497 1074 473 1050 q 557 1098 521 1098 q 618 1074 593 1098 q 642 1015 642 1050 q 617 956 642 980 q 557 932 593 932 q 497 957 521 932 q 473 1015 473 981 m 622 29 q 546 -253 622 -153 q 332 -353 471 -353 q 231 -330 280 -353 l 231 -210 q 331 -242 283 -242 q 489 9 489 -242 l 489 750 l 622 750 l 622 29 z "},"Ĵ":{"ha":550,"x_min":16,"x_max":560,"o":"m 423 381 q 342 86 423 191 q 123 -18 262 -18 q 16 1 58 -18 l 16 134 q 122 103 58 103 q 288 381 288 103 l 288 1050 l 423 1050 l 423 381 m 560 1144 l 464 1144 l 345 1310 l 224 1144 l 134 1144 l 294 1387 l 400 1387 l 560 1144 z "},"ĵ":{"ha":371,"x_min":-140,"x_max":398,"o":"m 398 869 l 302 869 l 184 1028 l 68 869 l -28 869 l 132 1105 l 238 1105 l 398 869 m 252 29 q 178 -248 252 -142 q -39 -353 105 -353 q -140 -330 -92 -353 l -140 -210 q -39 -242 -85 -242 q 119 9 119 -242 l 119 750 l 252 750 l 252 29 z "},"Ķ":{"ha":882,"x_min":136,"x_max":883,"o":"m 883 0 l 697 0 l 302 477 q 275 517 282 503 l 271 517 l 271 0 l 136 0 l 136 1050 l 271 1050 l 271 556 l 275 556 q 302 595 286 574 l 684 1050 l 851 1050 l 410 547 l 883 0 m 549 -87 l 427 -284 l 332 -284 l 415 -87 l 549 -87 z "},"ķ":{"ha":756,"x_min":119,"x_max":756,"o":"m 756 0 l 575 0 l 254 361 l 252 361 l 252 0 l 119 0 l 119 1110 l 252 1110 l 252 406 l 254 406 l 559 750 l 730 750 l 391 389 l 756 0 m 487 -87 l 365 -284 l 269 -284 l 353 -87 l 487 -87 z "},"ĸ":{"ha":756,"x_min":119,"x_max":755,"o":"m 755 0 l 575 0 l 254 361 l 251 361 l 251 0 l 119 0 l 119 750 l 251 750 l 251 406 l 254 406 l 559 750 l 730 750 l 391 389 l 755 0 z "},"Ĺ":{"ha":713,"x_min":82,"x_max":690,"o":"m 690 0 l 136 0 l 136 1050 l 271 1050 l 271 120 l 690 120 l 690 0 m 380 1382 l 184 1142 l 82 1142 l 249 1382 l 380 1382 z "},"ĺ":{"ha":370,"x_min":65,"x_max":363,"o":"m 118 0 l 118 1110 l 251 1110 l 251 0 l 118 0 m 363 1436 l 167 1196 l 65 1196 l 232 1436 l 363 1436 z "},"ļ":{"ha":370,"x_min":59,"x_max":277,"o":"m 118 0 l 118 1110 l 251 1110 l 251 0 l 118 0 m 277 -87 l 155 -285 l 59 -285 l 142 -87 l 277 -87 z "},"Ľ":{"ha":713,"x_min":136,"x_max":690,"o":"m 667 1050 l 545 853 l 450 853 l 533 1050 l 667 1050 m 690 0 l 136 0 l 136 1050 l 271 1050 l 271 120 l 690 120 l 690 0 z "},"ľ":{"ha":475,"x_min":118,"x_max":532,"o":"m 118 0 l 118 1110 l 251 1110 l 251 0 l 118 0 m 532 1110 l 410 913 l 315 913 l 398 1110 l 532 1110 z "},"Ŀ":{"ha":713,"x_min":136,"x_max":690,"o":"m 690 0 l 136 0 l 136 1050 l 271 1050 l 271 120 l 690 120 l 690 0 m 467 562 q 489 614 467 592 q 543 635 511 635 q 597 615 576 635 q 619 562 619 594 q 597 508 619 530 q 543 486 574 486 q 489 508 511 486 q 467 562 467 530 z "},"ŀ":{"ha":520,"x_min":118,"x_max":520,"o":"m 118 0 l 118 1110 l 251 1110 l 251 0 l 118 0 m 368 562 q 390 614 368 593 q 444 636 412 636 q 498 615 477 636 q 520 562 520 595 q 498 508 520 530 q 444 486 475 486 q 390 509 412 486 q 368 562 368 531 z "},"Ł":{"ha":713,"x_min":22,"x_max":690,"o":"m 690 0 l 136 0 l 136 394 l 22 324 l 22 444 l 136 514 l 136 1050 l 271 1050 l 271 595 l 509 739 l 509 617 l 271 475 l 271 120 l 690 120 l 690 0 z "},"ł":{"ha":370,"x_min":18,"x_max":356,"o":"m 251 0 l 117 0 l 117 396 l 18 327 l 18 450 l 117 519 l 117 1110 l 251 1110 l 251 609 l 356 682 l 356 558 l 251 486 l 251 0 z "},"Ń":{"ha":1129,"x_min":136,"x_max":994,"o":"m 994 0 l 833 0 l 304 817 q 269 886 282 852 l 264 886 q 270 739 270 850 l 270 0 l 136 0 l 136 1050 l 306 1050 l 820 248 q 863 175 857 191 l 866 175 q 859 328 859 220 l 859 1050 l 994 1050 l 994 0 m 743 1384 l 547 1144 l 446 1144 l 612 1384 l 743 1384 z "},"ń":{"ha":856,"x_min":119,"x_max":753,"o":"m 753 0 l 621 0 l 621 427 q 452 658 621 658 q 308 593 364 658 q 252 428 252 528 l 252 0 l 119 0 l 119 750 l 252 750 l 252 626 l 254 626 q 500 768 339 768 q 688 689 624 768 q 753 458 753 610 l 753 0 m 618 1129 l 422 889 l 321 889 l 488 1129 l 618 1129 z "},"Ņ":{"ha":1129,"x_min":136,"x_max":994,"o":"m 994 0 l 833 0 l 304 817 q 269 886 282 852 l 264 886 q 270 739 270 850 l 270 0 l 136 0 l 136 1050 l 306 1050 l 820 248 q 863 175 857 191 l 866 175 q 859 328 859 220 l 859 1050 l 994 1050 l 994 0 m 641 -87 l 519 -284 l 423 -284 l 507 -87 l 641 -87 z "},"ņ":{"ha":856,"x_min":119,"x_max":753,"o":"m 753 0 l 621 0 l 621 427 q 452 658 621 658 q 308 593 364 658 q 252 428 252 528 l 252 0 l 119 0 l 119 750 l 252 750 l 252 626 l 254 626 q 500 768 339 768 q 688 689 624 768 q 753 458 753 610 l 753 0 m 517 -87 l 395 -284 l 300 -284 l 383 -87 l 517 -87 z "},"Ň":{"ha":1129,"x_min":136,"x_max":994,"o":"m 994 0 l 833 0 l 304 817 q 269 886 282 852 l 264 886 q 270 739 270 850 l 270 0 l 136 0 l 136 1050 l 306 1050 l 820 248 q 863 175 857 191 l 866 175 q 859 328 859 220 l 859 1050 l 994 1050 l 994 0 m 776 1385 l 617 1144 l 511 1144 l 351 1385 l 443 1385 l 562 1221 l 682 1385 l 776 1385 z "},"ň":{"ha":856,"x_min":119,"x_max":753,"o":"m 753 0 l 621 0 l 621 427 q 452 658 621 658 q 308 593 364 658 q 252 428 252 528 l 252 0 l 119 0 l 119 750 l 252 750 l 252 626 l 254 626 q 500 768 339 768 q 688 689 624 768 q 753 458 753 610 l 753 0 m 655 1131 l 496 889 l 390 889 l 231 1131 l 322 1131 l 441 966 l 561 1131 l 655 1131 z "},"ŉ":{"ha":922,"x_min":-31,"x_max":820,"o":"m 168 1069 l 61 742 l -31 742 l 50 1069 l 168 1069 m 820 0 l 687 0 l 687 427 q 519 658 687 658 q 374 592 431 658 q 318 428 318 526 l 318 0 l 186 0 l 186 750 l 318 750 l 318 626 l 321 626 q 567 768 406 768 q 820 458 820 768 l 820 0 z "},"Ŋ":{"ha":1129,"x_min":136,"x_max":994,"o":"m 994 48 q 724 -309 994 -309 q 617 -286 663 -309 l 617 -159 q 721 -191 675 -191 q 857 0 857 -191 l 304 817 q 269 886 286 846 q 270 739 270 844 l 270 0 l 136 0 l 136 1050 l 306 1050 l 820 288 q 863 211 825 281 l 866 211 q 859 370 859 262 l 859 1050 l 994 1050 l 994 48 z "},"ŋ":{"ha":856,"x_min":119,"x_max":753,"o":"m 753 22 q 487 -309 753 -309 q 382 -286 429 -309 l 382 -159 q 484 -191 439 -191 q 620 4 620 -191 l 620 427 q 452 658 620 658 q 308 592 364 658 q 251 428 251 527 l 251 0 l 119 0 l 119 750 l 251 750 l 251 626 l 254 626 q 500 768 340 768 q 753 458 753 768 l 753 22 z "},"Ō":{"ha":1132,"x_min":68,"x_max":1065,"o":"m 68 513 q 205 918 68 767 q 578 1068 343 1068 q 931 921 798 1068 q 1065 538 1065 774 q 928 132 1065 282 q 562 -18 791 -18 q 203 130 338 -18 q 68 513 68 277 m 210 524 q 308 218 210 333 q 562 103 405 103 q 826 213 730 103 q 922 522 922 323 q 828 836 922 725 q 570 946 734 946 q 310 829 410 946 q 210 524 210 713 m 761 1157 l 378 1157 l 378 1244 l 761 1244 l 761 1157 z "},"ō":{"ha":883,"x_min":68,"x_max":814,"o":"m 68 367 q 172 660 68 553 q 454 768 276 768 q 719 664 623 768 q 814 378 814 561 q 712 92 814 201 q 437 -18 610 -18 q 169 88 269 -18 q 68 367 68 194 m 204 371 q 270 167 204 241 q 446 92 335 92 q 619 165 559 92 q 679 374 679 238 q 619 585 679 511 q 446 658 559 658 q 269 581 334 658 q 204 371 204 505 m 637 888 l 255 888 l 255 975 l 637 975 l 637 888 z "},"Ŏ":{"ha":1132,"x_min":68,"x_max":1065,"o":"m 68 513 q 205 918 68 767 q 578 1068 343 1068 q 931 921 798 1068 q 1065 538 1065 774 q 928 132 1065 282 q 562 -18 791 -18 q 203 130 338 -18 q 68 513 68 277 m 210 524 q 308 218 210 333 q 562 103 405 103 q 826 213 730 103 q 922 522 922 323 q 828 836 922 725 q 570 946 734 946 q 310 829 410 946 q 210 524 210 713 m 779 1335 q 712 1197 770 1249 q 570 1145 654 1145 q 426 1198 481 1145 q 367 1335 370 1251 l 446 1335 q 572 1223 456 1223 q 656 1254 622 1223 q 698 1335 690 1284 l 779 1335 z "},"ŏ":{"ha":883,"x_min":68,"x_max":814,"o":"m 68 367 q 172 660 68 553 q 454 768 276 768 q 719 664 623 768 q 814 378 814 561 q 712 92 814 201 q 437 -18 610 -18 q 169 88 269 -18 q 68 367 68 194 m 204 371 q 270 167 204 241 q 446 92 335 92 q 619 165 559 92 q 679 374 679 238 q 619 585 679 511 q 446 658 559 658 q 269 581 334 658 q 204 371 204 505 m 656 1079 q 589 941 647 993 q 446 889 530 889 q 302 942 358 889 q 243 1079 247 994 l 323 1079 q 448 966 333 966 q 533 997 498 966 q 574 1079 567 1028 l 656 1079 z "},"Ő":{"ha":1132,"x_min":68,"x_max":1065,"o":"m 68 513 q 205 918 68 767 q 578 1068 343 1068 q 931 921 798 1068 q 1065 538 1065 774 q 928 132 1065 282 q 562 -18 791 -18 q 203 130 338 -18 q 68 513 68 277 m 210 524 q 308 218 210 333 q 562 103 405 103 q 826 213 730 103 q 922 522 922 323 q 828 836 922 725 q 570 946 734 946 q 310 829 410 946 q 210 524 210 713 m 844 1379 l 664 1145 l 584 1145 l 737 1379 l 844 1379 m 652 1379 l 476 1145 l 396 1145 l 548 1379 l 652 1379 z "},"ő":{"ha":883,"x_min":68,"x_max":814,"o":"m 68 367 q 172 660 68 553 q 454 768 276 768 q 719 664 623 768 q 814 378 814 561 q 712 92 814 201 q 437 -18 610 -18 q 169 88 269 -18 q 68 367 68 194 m 204 371 q 270 167 204 241 q 446 92 335 92 q 619 165 559 92 q 679 374 679 238 q 619 585 679 511 q 446 658 559 658 q 269 581 334 658 q 204 371 204 505 m 726 1122 l 546 889 l 466 889 l 619 1122 l 726 1122 m 534 1122 l 358 889 l 278 889 l 430 1122 l 534 1122 z "},"Œ":{"ha":1397,"x_min":68,"x_max":1330,"o":"m 1330 0 l 793 0 q 767 -3 791 0 q 564 -18 631 -18 q 203 129 338 -18 q 68 513 68 276 q 208 916 68 764 q 583 1068 348 1068 q 794 1050 694 1068 l 1306 1050 l 1306 930 l 901 930 l 901 593 l 1276 593 l 1276 473 l 901 473 l 901 120 l 1330 120 l 1330 0 m 764 924 q 573 946 654 946 q 312 828 414 946 q 210 524 210 710 q 310 221 210 339 q 568 103 410 103 q 764 130 654 103 l 764 924 z "},"œ":{"ha":1391,"x_min":68,"x_max":1337,"o":"m 1337 341 l 811 341 q 877 155 814 220 q 1052 90 939 90 q 1283 171 1179 90 l 1283 52 q 1023 -18 1184 -18 q 742 152 826 -18 l 739 152 q 435 -18 643 -18 q 168 88 268 -18 q 68 366 68 193 q 173 660 68 551 q 454 768 277 768 q 747 600 667 768 l 750 600 q 1031 768 836 768 q 1256 671 1175 768 q 1337 410 1337 574 l 1337 341 m 1204 448 q 1025 661 1198 661 q 885 602 946 661 q 812 448 825 543 l 1204 448 m 204 368 q 269 166 204 241 q 444 92 333 92 q 618 165 558 92 q 679 373 679 237 q 618 585 679 511 q 446 658 557 658 q 269 580 334 658 q 204 368 204 503 z "},"Ŕ":{"ha":907,"x_min":136,"x_max":903,"o":"m 903 0 l 743 0 l 568 292 q 473 411 516 379 q 369 442 429 442 l 271 442 l 271 0 l 136 0 l 136 1050 l 456 1050 q 696 977 609 1050 q 783 770 783 903 q 549 486 783 551 l 549 483 q 624 431 593 465 q 706 315 656 397 l 903 0 m 271 932 l 271 561 l 431 561 q 582 615 524 561 q 640 758 640 669 q 587 886 640 840 q 433 932 534 932 l 271 932 m 647 1384 l 451 1144 l 349 1144 l 516 1384 l 647 1384 z "},"ŕ":{"ha":530,"x_min":119,"x_max":521,"o":"m 521 618 q 429 642 488 642 q 302 570 352 642 q 252 380 252 498 l 252 0 l 119 0 l 119 750 l 252 750 l 252 597 l 254 597 q 451 763 311 763 q 521 753 496 763 l 521 618 m 510 1129 l 314 889 l 212 889 l 379 1129 l 510 1129 z "},"Ŗ":{"ha":907,"x_min":136,"x_max":903,"o":"m 903 0 l 743 0 l 568 292 q 473 411 516 379 q 369 442 429 442 l 271 442 l 271 0 l 136 0 l 136 1050 l 456 1050 q 696 977 609 1050 q 783 770 783 903 q 549 486 783 551 l 549 483 q 624 431 593 465 q 706 315 656 397 l 903 0 m 271 932 l 271 561 l 431 561 q 582 615 524 561 q 640 758 640 669 q 587 886 640 840 q 433 932 534 932 l 271 932 m 562 -87 l 440 -284 l 345 -284 l 428 -87 l 562 -87 z "},"ŗ":{"ha":530,"x_min":68,"x_max":521,"o":"m 521 618 q 429 642 488 642 q 302 570 352 642 q 252 380 252 498 l 252 0 l 119 0 l 119 750 l 252 750 l 252 597 l 254 597 q 451 763 311 763 q 521 753 496 763 l 521 618 m 286 -87 l 163 -284 l 68 -284 l 151 -87 l 286 -87 z "},"Ř":{"ha":907,"x_min":136,"x_max":903,"o":"m 903 0 l 743 0 l 568 292 q 473 411 516 379 q 369 442 429 442 l 271 442 l 271 0 l 136 0 l 136 1050 l 456 1050 q 696 977 609 1050 q 783 770 783 903 q 549 486 783 551 l 549 483 q 624 431 593 465 q 706 315 656 397 l 903 0 m 271 932 l 271 561 l 431 561 q 582 615 524 561 q 640 758 640 669 q 587 886 640 840 q 433 932 534 932 l 271 932 m 662 1385 l 503 1144 l 397 1144 l 237 1385 l 329 1385 l 448 1221 l 568 1385 l 662 1385 z "},"ř":{"ha":530,"x_min":94,"x_max":521,"o":"m 521 618 q 429 642 488 642 q 302 570 352 642 q 252 380 252 498 l 252 0 l 119 0 l 119 750 l 252 750 l 252 597 l 254 597 q 451 763 311 763 q 521 753 496 763 l 521 618 m 518 1131 l 359 889 l 253 889 l 94 1131 l 185 1131 l 304 966 l 424 1131 l 518 1131 z "},"Ś":{"ha":802,"x_min":87,"x_max":732,"o":"m 87 197 q 216 128 135 155 q 369 101 296 101 q 590 258 590 101 q 566 338 590 302 q 501 400 543 373 q 346 484 460 427 q 138 630 188 562 q 87 784 87 697 q 193 991 87 915 q 458 1068 298 1068 q 688 1030 614 1068 l 688 882 q 448 948 593 948 q 291 908 351 948 q 230 795 230 867 q 272 692 230 732 q 454 583 314 652 q 671 435 609 509 q 732 269 732 361 q 632 56 732 130 q 353 -18 532 -18 q 208 0 291 -18 q 87 43 125 17 l 87 197 m 616 1382 l 420 1142 l 319 1142 l 486 1382 l 616 1382 z "},"ś":{"ha":643,"x_min":77,"x_max":583,"o":"m 77 162 q 293 90 177 90 q 448 191 448 90 q 414 263 448 235 q 277 330 380 291 q 115 429 152 380 q 77 548 77 478 q 162 708 77 648 q 370 768 246 768 q 547 734 465 768 l 547 606 q 357 661 463 661 q 253 633 293 661 q 213 559 213 605 q 242 490 213 515 q 370 425 271 465 q 539 328 495 378 q 583 204 583 278 q 499 42 583 101 q 280 -18 414 -18 q 77 26 163 -18 l 77 162 m 539 1129 l 343 889 l 241 889 l 408 1129 l 539 1129 z "},"Ŝ":{"ha":802,"x_min":87,"x_max":732,"o":"m 87 197 q 216 128 135 155 q 369 101 296 101 q 590 258 590 101 q 566 338 590 302 q 501 400 543 373 q 346 484 460 427 q 138 630 188 562 q 87 784 87 697 q 193 991 87 915 q 458 1068 298 1068 q 688 1030 614 1068 l 688 882 q 448 948 593 948 q 291 908 351 948 q 230 795 230 867 q 272 692 230 732 q 454 583 314 652 q 671 435 609 509 q 732 269 732 361 q 632 56 732 130 q 353 -18 532 -18 q 208 0 291 -18 q 87 43 125 17 l 87 197 m 656 1149 l 559 1149 l 440 1314 l 320 1149 l 230 1149 l 389 1392 l 496 1392 l 656 1149 z "},"ŝ":{"ha":643,"x_min":77,"x_max":583,"o":"m 77 162 q 293 90 177 90 q 448 191 448 90 q 414 263 448 235 q 277 330 380 291 q 115 429 152 380 q 77 548 77 478 q 162 708 77 648 q 370 768 246 768 q 547 734 465 768 l 547 606 q 357 661 463 661 q 253 633 293 661 q 213 559 213 605 q 242 490 213 515 q 370 425 271 465 q 539 328 495 378 q 583 204 583 278 q 499 42 583 101 q 280 -18 414 -18 q 77 26 163 -18 l 77 162 m 565 889 l 469 889 l 349 1055 l 229 889 l 139 889 l 298 1132 l 405 1132 l 565 889 z "},"Ş":{"ha":802,"x_min":87,"x_max":732,"o":"m 87 197 q 216 128 135 155 q 369 101 296 101 q 589 258 589 101 q 566 338 589 302 q 500 401 543 373 q 346 484 458 429 q 138 630 188 562 q 87 784 87 697 q 193 991 87 915 q 458 1068 298 1068 q 688 1030 614 1068 l 688 882 q 448 948 593 948 q 291 908 351 948 q 230 795 230 867 q 272 692 230 732 q 454 583 314 652 q 669 436 606 510 q 732 269 732 362 q 425 -14 732 19 l 425 -74 q 528 -105 490 -75 q 565 -186 565 -135 q 509 -286 560 -253 q 353 -319 458 -319 l 311 -317 l 311 -247 q 361 -252 336 -252 q 464 -186 464 -252 q 370 -130 464 -130 q 341 -134 366 -130 l 341 -18 q 87 43 172 -9 l 87 197 z "},"ş":{"ha":640,"x_min":73,"x_max":579,"o":"m 73 162 q 290 90 174 90 q 445 191 445 90 q 411 263 445 235 q 273 330 377 291 q 111 429 149 380 q 74 548 74 478 q 158 708 74 648 q 366 768 243 768 q 544 734 462 768 l 544 606 q 353 661 460 661 q 249 632 288 661 q 209 559 209 604 q 224 505 209 528 q 264 470 240 483 q 366 425 288 456 q 536 327 493 378 q 579 204 579 277 q 515 58 579 115 q 340 -14 451 1 l 340 -74 q 442 -105 405 -75 q 479 -186 479 -135 q 428 -280 479 -239 q 273 -320 377 -320 l 224 -317 l 224 -247 q 276 -252 248 -252 q 377 -186 377 -252 q 285 -130 377 -130 q 254 -134 281 -130 l 254 -17 q 73 26 152 -14 l 73 162 z "},"Š":{"ha":802,"x_min":87,"x_max":732,"o":"m 87 197 q 216 128 135 155 q 369 101 296 101 q 590 258 590 101 q 566 338 590 302 q 501 400 543 373 q 346 484 460 427 q 138 630 188 562 q 87 784 87 697 q 193 991 87 915 q 458 1068 298 1068 q 688 1030 614 1068 l 688 882 q 448 948 593 948 q 291 908 351 948 q 230 795 230 867 q 272 692 230 732 q 454 583 314 652 q 671 435 609 509 q 732 269 732 361 q 632 56 732 130 q 353 -18 532 -18 q 208 0 291 -18 q 87 43 125 17 l 87 197 m 616 1387 l 457 1145 l 351 1145 l 191 1387 l 283 1387 l 401 1223 l 522 1387 l 616 1387 z "},"š":{"ha":643,"x_min":77,"x_max":583,"o":"m 77 162 q 293 90 177 90 q 448 191 448 90 q 414 263 448 235 q 277 330 380 291 q 115 429 152 380 q 77 548 77 478 q 162 708 77 648 q 370 768 246 768 q 547 734 465 768 l 547 606 q 357 661 463 661 q 253 633 293 661 q 213 559 213 605 q 242 490 213 515 q 370 425 271 465 q 539 328 495 378 q 583 204 583 278 q 499 42 583 101 q 280 -18 414 -18 q 77 26 163 -18 l 77 162 m 566 1131 l 407 889 l 300 889 l 141 1131 l 233 1131 l 351 966 l 471 1131 l 566 1131 z "},"Ţ":{"ha":796,"x_min":29,"x_max":770,"o":"m 770 930 l 467 930 l 467 0 l 427 0 l 427 -74 q 528 -104 491 -75 q 565 -186 565 -134 q 515 -278 564 -237 q 349 -321 465 -319 q 311 -317 336 -321 l 311 -247 q 362 -252 336 -252 q 464 -186 464 -252 q 371 -130 464 -130 q 341 -134 368 -130 l 341 0 l 331 0 l 331 930 l 29 930 l 29 1050 l 770 1050 l 770 930 z "},"ţ":{"ha":517,"x_min":31,"x_max":492,"o":"m 478 7 q 362 -16 435 -18 l 353 -16 l 353 -74 q 454 -105 417 -75 q 492 -186 492 -135 q 445 -281 492 -243 q 288 -319 398 -319 q 237 -317 267 -319 l 237 -247 q 289 -252 260 -252 q 390 -186 390 -252 q 298 -130 390 -130 q 267 -134 294 -130 l 267 -1 q 159 207 159 41 l 159 640 l 31 640 l 31 750 l 159 750 l 159 930 q 292 972 220 951 l 292 750 l 478 750 l 478 640 l 292 640 l 292 231 q 317 125 292 157 q 401 93 342 93 q 478 118 445 93 l 478 7 z "},"Ť":{"ha":796,"x_min":29,"x_max":770,"o":"m 770 930 l 467 930 l 467 0 l 331 0 l 331 930 l 29 930 l 29 1050 l 770 1050 l 770 930 m 611 1385 l 452 1144 l 346 1144 l 186 1385 l 278 1385 l 397 1221 l 517 1385 l 611 1385 z "},"ť":{"ha":603,"x_min":31,"x_max":660,"o":"m 660 1031 l 538 833 l 442 833 l 526 1031 l 660 1031 m 478 7 q 361 -16 435 -16 q 159 207 159 -16 l 159 640 l 31 640 l 31 750 l 159 750 l 159 930 l 292 972 l 292 750 l 478 750 l 478 640 l 292 640 l 292 231 q 317 125 292 157 q 401 93 342 93 q 478 118 446 93 l 478 7 z "},"Ŧ":{"ha":796,"x_min":29,"x_max":770,"o":"m 770 930 l 467 930 l 467 584 l 646 584 l 646 461 l 467 461 l 467 0 l 331 0 l 331 461 l 150 461 l 150 584 l 331 584 l 331 930 l 29 930 l 29 1050 l 770 1050 l 770 930 z "},"ŧ":{"ha":517,"x_min":31,"x_max":478,"o":"m 469 395 l 292 395 l 292 231 q 317 125 292 157 q 401 93 342 93 q 478 118 446 93 l 478 7 q 361 -16 435 -16 q 159 207 159 -16 l 159 395 l 40 395 l 40 498 l 159 498 l 159 640 l 31 640 l 31 750 l 159 750 l 159 930 l 292 972 l 292 750 l 478 750 l 478 640 l 292 640 l 292 498 l 469 498 l 469 395 z "},"Ũ":{"ha":1037,"x_min":123,"x_max":914,"o":"m 914 428 q 510 -18 914 -18 q 123 412 123 -18 l 123 1050 l 258 1050 l 258 418 q 523 103 258 103 q 779 408 779 103 l 779 1050 l 914 1050 l 914 428 m 766 1326 q 729 1197 766 1246 q 633 1147 693 1147 q 513 1185 581 1147 q 426 1217 456 1217 q 362 1134 362 1217 l 290 1134 q 326 1264 290 1217 q 425 1312 362 1312 q 536 1274 473 1312 q 629 1241 590 1241 q 690 1326 690 1241 l 766 1326 z "},"ũ":{"ha":856,"x_min":104,"x_max":738,"o":"m 738 0 l 604 0 l 604 118 l 602 118 q 370 -18 526 -18 q 104 301 104 -18 l 104 750 l 235 750 l 235 321 q 410 92 235 92 q 551 156 497 92 q 604 318 604 220 l 604 750 l 738 750 l 738 0 m 665 1072 q 629 942 665 991 q 532 892 593 892 q 413 930 480 892 q 326 962 355 962 q 262 879 262 962 l 189 879 q 225 1009 189 962 q 324 1057 262 1057 q 435 1019 373 1057 q 529 986 490 986 q 589 1072 589 986 l 665 1072 z "},"Ū":{"ha":1037,"x_min":123,"x_max":914,"o":"m 914 428 q 510 -18 914 -18 q 123 412 123 -18 l 123 1050 l 258 1050 l 258 418 q 523 103 258 103 q 779 408 779 103 l 779 1050 l 914 1050 l 914 428 m 708 1143 l 326 1143 l 326 1230 l 708 1230 l 708 1143 z "},"ū":{"ha":856,"x_min":104,"x_max":738,"o":"m 738 0 l 604 0 l 604 118 l 602 118 q 370 -18 526 -18 q 104 301 104 -18 l 104 750 l 235 750 l 235 321 q 410 92 235 92 q 551 156 497 92 q 604 318 604 220 l 604 750 l 738 750 l 738 0 m 610 888 l 227 888 l 227 975 l 610 975 l 610 888 z "},"Ŭ":{"ha":1037,"x_min":123,"x_max":914,"o":"m 914 428 q 510 -18 914 -18 q 123 412 123 -18 l 123 1050 l 258 1050 l 258 418 q 523 103 258 103 q 779 408 779 103 l 779 1050 l 914 1050 l 914 428 m 722 1334 q 655 1196 713 1248 q 513 1144 597 1144 q 369 1197 425 1144 q 310 1334 313 1249 l 389 1334 q 515 1221 399 1221 q 599 1252 565 1221 q 641 1334 633 1283 l 722 1334 z "},"ŭ":{"ha":856,"x_min":104,"x_max":738,"o":"m 738 0 l 604 0 l 604 118 l 602 118 q 370 -18 526 -18 q 104 301 104 -18 l 104 750 l 235 750 l 235 321 q 410 92 235 92 q 551 156 497 92 q 604 318 604 220 l 604 750 l 738 750 l 738 0 m 623 1079 q 556 941 614 993 q 414 889 498 889 q 270 942 326 889 q 211 1079 214 994 l 290 1079 q 416 966 300 966 q 500 997 466 966 q 542 1079 534 1028 l 623 1079 z "},"Ů":{"ha":1037,"x_min":123,"x_max":914,"o":"m 914 428 q 510 -18 914 -18 q 123 412 123 -18 l 123 1050 l 258 1050 l 258 418 q 523 103 258 103 q 779 408 779 103 l 779 1050 l 914 1050 l 914 428 m 349 1289 q 392 1395 349 1354 q 505 1436 436 1436 q 613 1396 570 1436 q 656 1294 656 1355 q 611 1190 656 1232 q 500 1148 566 1148 q 391 1188 434 1148 q 349 1289 349 1228 m 418 1293 q 500 1212 418 1212 q 559 1235 536 1212 q 583 1293 583 1258 q 560 1351 583 1329 q 500 1374 536 1374 q 441 1350 465 1374 q 418 1293 418 1326 z "},"ů":{"ha":856,"x_min":104,"x_max":738,"o":"m 738 0 l 604 0 l 604 118 l 602 118 q 370 -18 526 -18 q 104 301 104 -18 l 104 750 l 235 750 l 235 321 q 410 92 235 92 q 551 156 497 92 q 604 318 604 220 l 604 750 l 738 750 l 738 0 m 262 1003 q 306 1109 262 1067 q 418 1150 349 1150 q 527 1109 484 1150 q 570 1008 570 1069 q 525 904 570 946 q 413 862 479 862 q 304 902 347 862 q 262 1003 262 942 m 332 1006 q 413 926 332 926 q 473 949 449 926 q 496 1006 496 972 q 473 1065 496 1042 q 413 1088 450 1088 q 355 1064 378 1088 q 332 1006 332 1040 z "},"Ű":{"ha":1037,"x_min":123,"x_max":914,"o":"m 914 428 q 510 -18 914 -18 q 123 412 123 -18 l 123 1050 l 258 1050 l 258 418 q 523 103 258 103 q 779 408 779 103 l 779 1050 l 914 1050 l 914 428 m 787 1377 l 607 1144 l 527 1144 l 680 1377 l 787 1377 m 595 1377 l 419 1144 l 339 1144 l 491 1377 l 595 1377 z "},"ű":{"ha":856,"x_min":104,"x_max":738,"o":"m 738 0 l 604 0 l 604 118 l 602 118 q 370 -18 526 -18 q 104 301 104 -18 l 104 750 l 235 750 l 235 321 q 410 92 235 92 q 551 156 497 92 q 604 318 604 220 l 604 750 l 738 750 l 738 0 m 684 1122 l 503 889 l 423 889 l 576 1122 l 684 1122 m 492 1122 l 315 889 l 235 889 l 387 1122 l 492 1122 z "},"Ų":{"ha":1037,"x_min":123,"x_max":914,"o":"m 914 428 q 559 -16 914 9 q 526 -121 526 -77 q 574 -169 526 -169 q 648 -151 610 -169 l 648 -232 q 552 -248 605 -248 q 463 -214 497 -248 q 429 -122 429 -179 q 466 -16 429 -76 q 123 412 123 8 l 123 1050 l 258 1050 l 258 418 q 523 103 258 103 q 779 408 779 103 l 779 1050 l 914 1050 l 914 428 z "},"ų":{"ha":856,"x_min":104,"x_max":777,"o":"m 738 0 l 697 0 q 654 -121 654 -72 q 703 -169 654 -169 q 777 -151 739 -169 l 777 -232 q 682 -248 733 -248 q 591 -214 625 -248 q 557 -122 557 -180 q 607 0 557 -77 l 604 0 l 604 118 l 602 118 q 370 -18 524 -18 q 104 301 104 -18 l 104 750 l 235 750 l 235 321 q 410 92 235 92 q 551 156 497 92 q 604 318 604 220 l 604 750 l 738 750 l 738 0 z "},"Ŵ":{"ha":1413,"x_min":18,"x_max":1396,"o":"m 1396 1050 l 1101 0 l 943 0 l 732 757 q 715 865 718 808 l 712 865 q 693 758 708 809 l 479 0 l 323 0 l 18 1050 l 168 1050 l 382 257 q 399 149 397 203 l 404 149 q 426 257 407 190 l 653 1050 l 787 1050 l 1004 251 q 1021 151 1015 212 l 1024 151 q 1044 254 1027 195 l 1250 1050 l 1396 1050 m 929 1144 l 833 1144 l 713 1310 l 593 1144 l 503 1144 l 663 1387 l 769 1387 l 929 1144 z "},"ŵ":{"ha":1097,"x_min":17,"x_max":1080,"o":"m 1080 750 l 856 0 l 718 0 l 568 526 q 556 598 559 560 l 553 598 q 538 528 551 570 l 376 0 l 242 0 l 17 750 l 155 750 l 305 194 q 315 125 312 169 l 321 125 q 334 196 323 163 l 495 750 l 618 750 l 775 193 q 786 124 782 169 l 792 124 q 804 193 793 154 l 951 750 l 1080 750 m 770 889 l 674 889 l 555 1055 l 435 889 l 345 889 l 504 1132 l 610 1132 l 770 889 z "},"Ŷ":{"ha":838,"x_min":12,"x_max":831,"o":"m 831 1050 l 485 387 l 485 0 l 349 0 l 349 383 l 12 1050 l 167 1050 l 394 585 q 419 518 395 585 l 421 518 q 449 585 429 547 l 686 1050 l 831 1050 m 632 1143 l 536 1143 l 416 1309 l 296 1143 l 206 1143 l 366 1386 l 472 1386 l 632 1143 z "},"ŷ":{"ha":735,"x_min":9,"x_max":729,"o":"m 729 750 l 389 -113 q 121 -353 294 -353 q 36 -342 71 -353 l 36 -226 q 111 -241 75 -241 q 245 -135 201 -241 l 303 1 l 9 750 l 156 750 l 352 186 l 368 125 l 372 125 q 388 185 376 146 l 593 750 l 729 750 m 589 889 l 493 889 l 374 1055 l 254 889 l 163 889 l 323 1132 l 429 1132 l 589 889 z "},"Ÿ":{"ha":838,"x_min":12,"x_max":831,"o":"m 831 1050 l 485 387 l 485 0 l 349 0 l 349 383 l 12 1050 l 167 1050 l 394 585 q 419 518 395 585 l 421 518 q 449 585 429 547 l 686 1050 l 831 1050 m 487 1219 q 509 1273 487 1252 q 562 1295 531 1295 q 617 1273 595 1295 q 640 1219 640 1251 q 617 1165 640 1187 q 564 1143 595 1143 q 510 1165 532 1143 q 487 1219 487 1187 m 197 1219 q 219 1273 197 1251 q 274 1295 241 1295 q 329 1273 306 1295 q 352 1219 352 1251 q 330 1166 352 1188 q 276 1143 307 1143 q 221 1165 245 1143 q 197 1219 197 1187 z "},"Ź":{"ha":861,"x_min":25,"x_max":829,"o":"m 829 1010 l 224 120 l 816 120 l 816 0 l 25 0 l 25 46 l 627 930 l 73 930 l 73 1050 l 829 1050 l 829 1010 m 642 1385 l 446 1145 l 345 1145 l 511 1385 l 642 1385 z "},"ź":{"ha":683,"x_min":24,"x_max":649,"o":"m 646 0 l 24 0 l 24 44 l 460 640 l 64 640 l 64 750 l 649 750 l 649 707 l 216 110 l 646 110 l 646 0 m 536 1129 l 340 889 l 238 889 l 405 1129 l 536 1129 z "},"Ż":{"ha":861,"x_min":25,"x_max":829,"o":"m 829 1010 l 224 120 l 816 120 l 816 0 l 25 0 l 25 46 l 627 930 l 73 930 l 73 1050 l 829 1050 l 829 1010 m 363 1220 q 385 1272 363 1251 q 439 1294 407 1294 q 494 1273 472 1294 q 515 1220 515 1253 q 493 1166 515 1188 q 439 1144 471 1144 q 385 1166 407 1144 q 363 1220 363 1189 z "},"ż":{"ha":683,"x_min":24,"x_max":649,"o":"m 646 0 l 24 0 l 24 44 l 460 640 l 64 640 l 64 750 l 649 750 l 649 707 l 216 110 l 646 110 l 646 0 m 283 965 q 306 1017 283 996 q 360 1039 328 1039 q 414 1018 393 1039 q 436 965 436 998 q 414 911 436 933 q 360 889 391 889 q 306 911 328 889 q 283 965 283 934 z "},"Ž":{"ha":861,"x_min":25,"x_max":829,"o":"m 829 1010 l 224 120 l 816 120 l 816 0 l 25 0 l 25 46 l 627 930 l 73 930 l 73 1050 l 829 1050 l 829 1010 m 654 1385 l 496 1143 l 389 1143 l 230 1385 l 321 1385 l 440 1221 l 560 1385 l 654 1385 z "},"ž":{"ha":683,"x_min":24,"x_max":649,"o":"m 646 0 l 24 0 l 24 44 l 460 640 l 64 640 l 64 750 l 649 750 l 649 707 l 216 110 l 646 110 l 646 0 m 580 1131 l 421 889 l 315 889 l 155 1131 l 247 1131 l 366 966 l 486 1131 l 580 1131 z "},"ſ":{"ha":372,"x_min":119,"x_max":456,"o":"m 456 997 q 376 1017 420 1017 q 251 862 251 1017 l 251 0 l 119 0 l 119 868 q 183 1057 119 987 q 366 1126 248 1126 q 456 1114 422 1126 l 456 997 z "},"ƒ":{"ha":814,"x_min":68,"x_max":705,"o":"m 705 920 q 624 941 669 941 q 501 825 519 941 l 479 678 l 600 678 l 600 571 l 463 571 l 397 101 q 136 -205 354 -205 q 68 -194 113 -205 l 68 -81 q 131 -96 93 -96 q 267 110 239 -96 l 334 571 l 258 571 l 258 678 l 351 678 l 370 833 q 449 991 382 930 q 616 1051 515 1051 q 705 1037 665 1051 l 705 920 z "},"ǎ":{"ha":768,"x_min":63,"x_max":666,"o":"m 136 698 q 395 768 248 768 q 666 483 666 768 l 666 0 l 534 0 l 534 116 l 531 116 q 301 -18 453 -18 q 127 41 192 -18 q 63 201 63 100 q 312 446 63 411 l 534 477 q 382 661 534 661 q 136 570 248 661 l 136 698 m 359 353 q 232 307 267 340 q 197 212 197 273 q 235 124 197 158 q 335 90 273 90 q 478 151 422 90 q 534 304 534 212 l 534 376 l 359 353 m 609 1131 l 450 889 l 344 889 l 184 1131 l 276 1131 l 395 966 l 515 1131 l 609 1131 z "},"ǐ":{"ha":370,"x_min":-26,"x_max":399,"o":"m 118 0 l 118 750 l 251 750 l 251 0 l 118 0 m 399 1131 l 240 889 l 134 889 l -26 1131 l 66 1131 l 184 966 l 304 1131 l 399 1131 z "},"ǒ":{"ha":883,"x_min":68,"x_max":814,"o":"m 68 367 q 172 660 68 553 q 454 768 276 768 q 719 664 623 768 q 814 378 814 561 q 712 92 814 201 q 437 -18 610 -18 q 169 88 269 -18 q 68 367 68 194 m 204 371 q 270 167 204 241 q 446 92 335 92 q 619 165 559 92 q 679 374 679 238 q 619 585 679 511 q 446 658 559 658 q 269 581 334 658 q 204 371 204 505 m 663 1131 l 505 889 l 398 889 l 239 1131 l 330 1131 l 449 966 l 569 1131 l 663 1131 z "},"ǔ":{"ha":856,"x_min":104,"x_max":738,"o":"m 738 0 l 604 0 l 604 118 l 602 118 q 370 -18 526 -18 q 104 301 104 -18 l 104 750 l 235 750 l 235 321 q 410 92 235 92 q 551 156 497 92 q 604 318 604 220 l 604 750 l 738 750 l 738 0 m 630 1131 l 471 889 l 365 889 l 205 1131 l 297 1131 l 416 966 l 536 1131 l 630 1131 z "},"ǖ":{"ha":856,"x_min":104,"x_max":738,"o":"m 738 0 l 604 0 l 604 118 l 602 118 q 370 -18 526 -18 q 104 301 104 -18 l 104 750 l 235 750 l 235 321 q 410 92 235 92 q 551 156 497 92 q 604 318 604 220 l 604 750 l 738 750 l 738 0 m 612 1159 l 230 1159 l 230 1246 l 612 1246 l 612 1159 m 490 965 q 512 1019 490 998 q 565 1040 534 1040 q 620 1019 597 1040 q 643 965 643 997 q 620 911 643 932 q 566 889 597 889 q 512 911 535 889 q 490 965 490 933 m 200 965 q 222 1019 200 997 q 277 1040 244 1040 q 332 1018 309 1040 q 355 965 355 996 q 332 911 355 934 q 279 889 310 889 q 224 911 248 889 q 200 965 200 933 z "},"ǘ":{"ha":856,"x_min":104,"x_max":738,"o":"m 738 0 l 604 0 l 604 118 l 602 118 q 370 -18 526 -18 q 104 301 104 -18 l 104 750 l 235 750 l 235 321 q 410 92 235 92 q 551 156 497 92 q 604 318 604 220 l 604 750 l 738 750 l 738 0 m 490 965 q 512 1019 490 998 q 565 1040 534 1040 q 620 1019 597 1040 q 643 965 643 997 q 620 911 643 932 q 566 889 597 889 q 512 911 535 889 q 490 965 490 933 m 200 965 q 222 1019 200 997 q 277 1040 244 1040 q 332 1018 309 1040 q 355 965 355 996 q 332 911 355 934 q 279 889 310 889 q 224 911 248 889 q 200 965 200 933 m 661 1400 l 465 1160 l 363 1160 l 530 1400 l 661 1400 z "},"ǚ":{"ha":856,"x_min":104,"x_max":738,"o":"m 738 0 l 604 0 l 604 118 l 602 118 q 370 -18 526 -18 q 104 301 104 -18 l 104 750 l 235 750 l 235 321 q 410 92 235 92 q 551 156 497 92 q 604 318 604 220 l 604 750 l 738 750 l 738 0 m 490 965 q 512 1019 490 998 q 565 1040 534 1040 q 620 1019 597 1040 q 643 965 643 997 q 620 911 643 932 q 566 889 597 889 q 512 911 535 889 q 490 965 490 933 m 200 965 q 222 1019 200 997 q 277 1040 244 1040 q 332 1018 309 1040 q 355 965 355 996 q 332 911 355 934 q 279 889 310 889 q 224 911 248 889 q 200 965 200 933 m 629 1402 l 471 1160 l 364 1160 l 205 1402 l 296 1402 l 415 1238 l 535 1402 l 629 1402 z "},"ǜ":{"ha":856,"x_min":104,"x_max":738,"o":"m 738 0 l 604 0 l 604 118 l 602 118 q 370 -18 526 -18 q 104 301 104 -18 l 104 750 l 235 750 l 235 321 q 410 92 235 92 q 551 156 497 92 q 604 318 604 220 l 604 750 l 738 750 l 738 0 m 490 965 q 512 1019 490 998 q 565 1040 534 1040 q 620 1019 597 1040 q 643 965 643 997 q 620 911 643 932 q 566 889 597 889 q 512 911 535 889 q 490 965 490 933 m 200 965 q 222 1019 200 997 q 277 1040 244 1040 q 332 1018 309 1040 q 355 965 355 996 q 332 911 355 934 q 279 889 310 889 q 224 911 248 889 q 200 965 200 933 m 471 1160 l 370 1160 l 174 1400 l 306 1400 l 471 1160 z "},"ǹ":{"ha":856,"x_min":119,"x_max":753,"o":"m 753 0 l 621 0 l 621 427 q 452 658 621 658 q 308 593 364 658 q 252 428 252 528 l 252 0 l 119 0 l 119 750 l 252 750 l 252 626 l 254 626 q 500 768 339 768 q 688 689 624 768 q 753 458 753 610 l 753 0 m 576 889 l 475 889 l 279 1129 l 411 1129 l 576 889 z "},"ǻ":{"ha":768,"x_min":63,"x_max":666,"o":"m 136 698 q 395 768 248 768 q 666 483 666 768 l 666 0 l 534 0 l 534 116 l 531 116 q 301 -18 453 -18 q 127 41 192 -18 q 63 201 63 100 q 312 446 63 411 l 534 477 q 382 661 534 661 q 136 570 248 661 l 136 698 m 359 353 q 232 307 267 340 q 197 212 197 273 q 235 124 197 158 q 335 90 273 90 q 478 151 422 90 q 534 304 534 212 l 534 376 l 359 353 m 231 1000 q 275 1105 231 1064 q 387 1147 319 1147 q 496 1106 453 1147 q 539 1004 539 1065 q 494 901 539 943 q 382 859 449 859 q 274 899 317 859 q 231 1000 231 939 m 301 1003 q 382 922 301 922 q 442 945 418 922 q 466 1003 466 968 q 443 1062 466 1039 q 382 1084 419 1084 q 324 1061 347 1084 q 301 1003 301 1037 m 563 1383 l 367 1203 l 265 1203 l 432 1383 l 563 1383 z "},"Ǽ":{"ha":1303,"x_min":7,"x_max":1236,"o":"m 1236 0 l 672 0 l 672 288 l 302 288 l 164 0 l 7 0 l 522 1050 l 1212 1050 l 1212 930 l 807 930 l 807 593 l 1183 593 l 1183 473 l 807 473 l 807 120 l 1236 120 l 1236 0 m 672 406 l 672 930 l 604 930 l 355 406 l 672 406 m 939 1384 l 743 1144 l 642 1144 l 808 1384 l 939 1384 z "},"ǽ":{"ha":1247,"x_min":63,"x_max":1190,"o":"m 1190 341 l 663 341 q 728 155 666 220 q 902 90 791 90 q 1135 171 1030 90 l 1135 52 q 871 -18 1037 -18 q 590 146 673 -18 l 587 146 q 305 -18 481 -18 q 129 41 194 -18 q 63 201 63 100 q 343 439 63 421 l 534 451 q 380 661 534 661 q 136 572 252 661 l 136 698 q 393 768 248 768 q 615 627 564 768 l 618 627 q 876 768 704 768 q 1107 672 1024 768 q 1190 406 1190 576 l 1190 341 m 1056 448 q 876 661 1052 661 q 736 601 795 661 q 665 448 677 541 l 1056 448 m 534 345 l 390 336 q 239 299 284 330 q 195 205 195 268 q 233 122 195 154 q 334 90 271 90 q 476 151 418 90 q 534 300 534 212 l 534 345 m 809 1129 l 613 889 l 511 889 l 678 1129 l 809 1129 z "},"Ǿ":{"ha":1132,"x_min":68,"x_max":1065,"o":"m 129 -38 l 68 13 l 182 151 q 68 513 68 293 q 207 916 68 763 q 578 1068 345 1068 q 873 974 749 1068 l 972 1092 l 1032 1042 l 931 922 q 1065 538 1065 774 q 927 133 1065 283 q 562 -18 790 -18 q 239 94 369 -18 l 129 -38 m 792 876 q 570 948 701 948 q 309 830 409 948 q 208 523 208 711 q 275 260 208 367 l 792 876 m 325 198 q 562 101 418 101 q 826 213 729 101 q 924 521 924 325 q 844 817 924 704 l 325 198 m 742 1384 l 546 1144 l 444 1144 l 611 1384 l 742 1384 z "},"ǿ":{"ha":883,"x_min":35,"x_max":863,"o":"m 863 764 l 741 635 q 814 382 814 535 q 712 90 814 198 q 437 -18 609 -18 q 203 56 296 -18 l 98 -60 l 35 0 l 143 118 q 68 367 68 220 q 172 660 68 552 q 456 768 276 768 q 681 697 591 768 l 798 824 l 863 764 m 597 608 q 446 660 542 660 q 267 583 332 660 q 202 371 202 507 q 236 216 202 280 l 597 608 m 288 143 q 444 90 349 90 q 622 165 561 90 q 682 376 682 239 q 650 536 682 469 l 288 143 m 618 1129 l 422 889 l 321 889 l 488 1129 l 618 1129 z "},"Ș":{"ha":802,"x_min":87,"x_max":732,"o":"m 87 197 q 216 128 135 155 q 369 101 296 101 q 590 258 590 101 q 566 338 590 302 q 501 400 543 373 q 346 484 460 427 q 138 630 188 562 q 87 784 87 697 q 193 991 87 915 q 458 1068 298 1068 q 688 1030 614 1068 l 688 882 q 448 948 593 948 q 291 908 351 948 q 230 795 230 867 q 272 692 230 732 q 454 583 314 652 q 671 435 609 509 q 732 269 732 361 q 632 56 732 130 q 353 -18 532 -18 q 208 0 291 -18 q 87 43 125 17 l 87 197 m 387 -87 l 265 -285 l 170 -285 l 253 -87 l 387 -87 z "},"ș":{"ha":643,"x_min":77,"x_max":583,"o":"m 77 162 q 293 90 177 90 q 448 191 448 90 q 414 263 448 235 q 277 330 380 291 q 115 429 152 380 q 77 548 77 478 q 162 708 77 648 q 370 768 246 768 q 547 734 465 768 l 547 606 q 357 661 463 661 q 253 633 293 661 q 213 559 213 605 q 242 490 213 515 q 370 425 271 465 q 539 328 495 378 q 583 204 583 278 q 499 42 583 101 q 280 -18 414 -18 q 77 26 163 -18 l 77 162 m 387 -87 l 265 -285 l 170 -285 l 253 -87 l 387 -87 z "},"ɑ":{"ha":925,"x_min":64,"x_max":901,"o":"m 743 381 q 798 170 770 224 q 868 115 825 115 q 901 119 888 115 l 901 4 q 826 -7 857 -7 q 668 203 709 -7 l 665 203 q 366 -18 559 -18 q 146 87 229 -18 q 64 353 64 192 q 159 652 64 536 q 414 768 254 768 q 579 714 508 768 q 686 564 650 660 l 689 564 l 749 750 l 887 750 l 743 381 m 633 382 q 419 659 574 659 q 259 572 318 659 q 200 361 200 486 q 250 173 200 250 q 386 96 300 96 q 623 349 541 96 l 633 382 z "},"ɡ":{"ha":888,"x_min":68,"x_max":770,"o":"m 770 63 q 366 -353 770 -353 q 123 -301 226 -353 l 123 -173 q 363 -243 248 -243 q 637 45 637 -243 l 637 124 l 634 124 q 379 -18 549 -18 q 153 83 238 -18 q 68 351 68 184 q 162 655 68 543 q 412 768 256 768 q 634 648 562 768 l 637 648 l 637 750 l 770 750 l 770 63 m 637 446 q 578 595 637 533 q 433 658 519 658 q 264 578 325 658 q 204 359 204 498 q 262 166 204 240 q 417 92 321 92 q 576 163 514 92 q 637 342 637 233 l 637 446 z "},"ˆ":{"ha":559,"x_min":62,"x_max":488,"o":"m 488 889 l 392 889 l 273 1055 l 153 889 l 62 889 l 222 1132 l 328 1132 l 488 889 z "},"ˇ":{"ha":559,"x_min":69,"x_max":494,"o":"m 494 1131 l 335 889 l 229 889 l 69 1131 l 161 1131 l 279 966 l 399 1131 l 494 1131 z "},"ˉ":{"ha":475,"x_min":45,"x_max":428,"o":"m 428 888 l 45 888 l 45 975 l 428 975 l 428 888 z "},"ˊ":{"ha":427,"x_min":92,"x_max":390,"o":"m 390 1129 l 194 889 l 92 889 l 259 1129 l 390 1129 z "},"ˋ":{"ha":410,"x_min":58,"x_max":355,"o":"m 355 889 l 254 889 l 58 1129 l 191 1129 l 355 889 z "},"˘":{"ha":463,"x_min":26,"x_max":438,"o":"m 438 1079 q 371 941 429 993 q 229 889 313 889 q 85 942 140 889 q 26 1079 29 994 l 105 1079 q 231 966 115 966 q 315 997 281 966 q 357 1079 349 1028 l 438 1079 z "},"˙":{"ha":311,"x_min":79,"x_max":232,"o":"m 79 965 q 101 1017 79 996 q 156 1039 123 1039 q 210 1018 189 1039 q 232 965 232 998 q 210 911 232 933 q 156 889 187 889 q 101 911 123 889 q 79 965 79 934 z "},"˚":{"ha":419,"x_min":56,"x_max":364,"o":"m 56 1003 q 100 1109 56 1067 q 212 1150 144 1150 q 321 1109 278 1150 q 364 1008 364 1069 q 319 904 364 946 q 208 862 274 862 q 99 902 142 862 q 56 1003 56 942 m 126 1006 q 208 926 126 926 q 267 949 243 926 q 291 1006 291 972 q 268 1065 291 1042 q 208 1088 244 1088 q 149 1064 172 1088 q 126 1006 126 1040 z "},"˛":{"ha":291,"x_min":48,"x_max":247,"o":"m 247 0 q 144 -158 144 -98 q 193 -208 144 -208 q 239 -197 216 -208 l 239 -278 q 173 -289 212 -289 q 82 -259 117 -289 q 48 -177 48 -229 q 157 0 48 -91 l 247 0 z "},"˜":{"ha":513,"x_min":26,"x_max":502,"o":"m 502 1072 q 466 942 502 991 q 369 892 429 892 q 250 930 317 892 q 162 962 192 962 q 98 879 98 962 l 26 879 q 62 1009 26 962 q 161 1057 98 1057 q 272 1019 210 1057 q 366 986 326 986 q 426 1072 426 986 l 502 1072 z "},"˝":{"ha":500,"x_min":44,"x_max":492,"o":"m 492 1122 l 312 889 l 232 889 l 385 1122 l 492 1122 m 300 1122 l 124 889 l 44 889 l 196 1122 l 300 1122 z "},";":{"ha":334,"x_min":28,"x_max":258,"o":"m 82 680 q 108 741 82 716 q 170 766 134 766 q 232 741 206 766 q 258 680 258 715 q 233 619 258 644 q 170 594 208 594 q 107 620 132 594 q 82 680 82 646 m 241 169 l 125 -193 l 28 -193 l 113 169 l 241 169 z "},"΄":{"ha":416,"x_min":149,"x_max":355,"o":"m 355 1123 l 224 859 l 149 859 l 224 1123 l 355 1123 z "},"΅":{"ha":432,"x_min":-40,"x_max":479,"o":"m 347 1137 l 216 870 l 142 870 l 215 1137 l 347 1137 m 328 968 q 350 1020 328 999 q 402 1042 372 1042 q 456 1020 433 1042 q 479 968 479 999 q 457 914 479 935 q 403 893 435 893 q 349 915 370 893 q 328 968 328 937 m -40 968 q -18 1021 -40 1000 q 36 1042 5 1042 q 90 1020 67 1042 q 113 968 113 998 q 91 914 113 935 q 36 893 68 893 q -18 915 4 893 q -40 968 -40 937 z "},"Ά":{"ha":977,"x_min":16,"x_max":961,"o":"m 961 0 l 811 0 l 704 288 l 267 288 l 165 0 l 16 0 l 416 1050 l 561 1050 l 961 0 m 662 406 l 503 843 q 487 916 496 864 l 484 916 q 467 843 476 869 l 309 406 l 662 406 m 254 1055 l 123 791 l 47 791 l 122 1055 l 254 1055 z "},"·":{"ha":334,"x_min":81,"x_max":256,"o":"m 81 458 q 106 520 81 494 q 168 545 132 545 q 230 520 204 545 q 256 458 256 495 q 231 397 256 423 q 168 372 205 372 q 105 397 130 372 q 81 458 81 423 z "},"Έ":{"ha":884,"x_min":-27,"x_max":821,"o":"m 821 0 l 256 0 l 256 1050 l 797 1050 l 797 930 l 391 930 l 391 593 l 767 593 l 767 473 l 391 473 l 391 120 l 821 120 l 821 0 m 179 1050 l 48 786 l -27 786 l 47 1050 l 179 1050 z "},"Ή":{"ha":1194,"x_min":-27,"x_max":1059,"o":"m 1059 0 l 923 0 l 923 473 l 391 473 l 391 0 l 256 0 l 256 1050 l 391 1050 l 391 594 l 923 594 l 923 1050 l 1059 1050 l 1059 0 m 179 1048 l 48 785 l -27 785 l 47 1048 l 179 1048 z "},"Ί":{"ha":598,"x_min":-27,"x_max":562,"o":"m 562 936 l 461 936 l 461 115 l 562 115 l 562 0 l 224 0 l 224 115 l 326 115 l 326 936 l 224 936 l 224 1050 l 562 1050 l 562 936 m 179 1048 l 48 785 l -27 785 l 47 1048 l 179 1048 z "},"Ό":{"ha":1217,"x_min":-27,"x_max":1150,"o":"m 153 513 q 291 918 153 767 q 664 1068 429 1068 q 1017 921 883 1068 q 1150 538 1150 774 q 1013 132 1150 282 q 647 -18 876 -18 q 288 130 423 -18 q 153 513 153 277 m 296 524 q 393 218 296 333 q 647 103 490 103 q 911 213 815 103 q 1007 522 1007 323 q 913 836 1007 725 q 656 946 819 946 q 395 829 495 946 q 296 524 296 713 m 179 1048 l 48 785 l -27 785 l 47 1048 l 179 1048 z "},"Ύ":{"ha":1049,"x_min":-27,"x_max":1041,"o":"m 1041 1050 l 695 387 l 695 0 l 559 0 l 559 383 l 222 1050 l 377 1050 l 604 585 q 629 518 605 585 l 631 518 q 659 585 640 547 l 897 1050 l 1041 1050 m 179 1048 l 48 785 l -27 785 l 47 1048 l 179 1048 z "},"Ώ":{"ha":1227,"x_min":-27,"x_max":1158,"o":"m 770 0 l 770 117 q 1017 572 1017 302 q 919 846 1017 743 q 664 949 821 949 q 405 845 504 949 q 307 571 307 742 q 553 117 307 303 l 553 0 l 165 0 l 165 118 l 420 117 q 165 578 165 286 q 301 935 165 802 q 660 1068 437 1068 q 1023 936 888 1068 q 1158 580 1158 804 q 903 117 1158 288 l 1158 118 l 1158 0 l 770 0 m 179 1048 l 48 785 l -27 785 l 47 1048 l 179 1048 z "},"ΐ":{"ha":410,"x_min":-60,"x_max":460,"o":"m 392 7 q 298 -9 342 -9 q 121 198 121 -9 l 121 750 l 252 750 l 252 205 q 326 105 252 105 q 392 119 355 105 l 392 7 m 327 1137 l 196 870 l 123 870 l 195 1137 l 327 1137 m 308 968 q 330 1020 308 999 q 382 1042 352 1042 q 437 1020 414 1042 q 460 968 460 999 q 438 914 460 935 q 383 893 416 893 q 329 915 351 893 q 308 968 308 937 m -60 968 q -37 1021 -60 1000 q 16 1042 -15 1042 q 70 1020 47 1042 q 93 968 93 998 q 71 914 93 935 q 16 893 49 893 q -38 915 -16 893 q -60 968 -60 937 z "},"Α":{"ha":977,"x_min":16,"x_max":961,"o":"m 961 0 l 811 0 l 704 288 l 267 288 l 165 0 l 16 0 l 416 1050 l 561 1050 l 961 0 m 662 406 l 503 843 q 487 916 496 864 l 484 916 q 467 843 476 869 l 309 406 l 662 406 z "},"Β":{"ha":871,"x_min":136,"x_max":799,"o":"m 136 0 l 136 1050 l 444 1050 q 665 984 583 1050 q 748 809 748 918 q 699 656 748 722 q 564 562 650 589 l 564 559 q 735 478 671 547 q 799 303 799 409 q 702 84 799 168 q 452 0 604 0 l 136 0 m 271 932 l 271 603 l 395 603 q 549 651 493 603 q 605 783 605 699 q 407 932 605 932 l 271 932 m 271 485 l 271 119 l 434 119 q 598 168 541 119 q 656 304 656 217 q 412 485 656 485 l 271 485 z "},"Γ":{"ha":714,"x_min":136,"x_max":690,"o":"m 690 927 l 273 927 l 273 0 l 136 0 l 136 1050 l 690 1050 l 690 927 z "},"Δ":{"ha":977,"x_min":36,"x_max":941,"o":"m 36 0 l 36 60 l 415 1050 l 559 1050 l 941 60 l 941 0 l 36 0 m 513 812 q 495 871 502 845 q 486 917 488 897 l 483 917 q 473 872 480 898 q 454 813 467 846 q 341 499 403 672 q 204 120 279 327 l 769 120 l 513 812 z "},"Ε":{"ha":764,"x_min":136,"x_max":701,"o":"m 701 0 l 136 0 l 136 1050 l 677 1050 l 677 930 l 271 930 l 271 593 l 647 593 l 647 473 l 271 473 l 271 120 l 701 120 l 701 0 z "},"Ζ":{"ha":861,"x_min":25,"x_max":829,"o":"m 829 1010 l 224 120 l 816 120 l 816 0 l 25 0 l 25 46 l 627 930 l 73 930 l 73 1050 l 829 1050 l 829 1010 z "},"Η":{"ha":1074,"x_min":136,"x_max":939,"o":"m 939 0 l 803 0 l 803 473 l 271 473 l 271 0 l 136 0 l 136 1050 l 271 1050 l 271 594 l 803 594 l 803 1050 l 939 1050 l 939 0 z "},"Θ":{"ha":1132,"x_min":68,"x_max":1065,"o":"m 68 513 q 207 916 68 763 q 578 1068 345 1068 q 930 921 795 1068 q 1065 538 1065 774 q 928 134 1065 285 q 562 -18 791 -18 q 204 129 340 -18 q 68 513 68 276 m 211 524 q 308 219 211 335 q 562 104 406 104 q 825 215 730 104 q 921 522 921 327 q 827 834 921 722 q 570 946 734 946 q 311 830 412 946 q 211 524 211 713 m 759 464 l 373 464 l 373 585 l 759 585 l 759 464 z "},"Ι":{"ha":408,"x_min":35,"x_max":372,"o":"m 372 936 l 271 936 l 271 115 l 372 115 l 372 0 l 35 0 l 35 115 l 136 115 l 136 936 l 35 936 l 35 1050 l 372 1050 l 372 936 z "},"Κ":{"ha":882,"x_min":136,"x_max":883,"o":"m 883 0 l 697 0 l 302 477 q 275 517 282 503 l 271 517 l 271 0 l 136 0 l 136 1050 l 271 1050 l 271 556 l 275 556 q 302 595 286 574 l 684 1050 l 851 1050 l 410 547 l 883 0 z "},"Λ":{"ha":954,"x_min":16,"x_max":937,"o":"m 937 0 l 786 0 l 498 833 q 477 921 486 867 l 474 921 q 452 833 468 878 l 162 0 l 16 0 l 400 1050 l 556 1050 l 937 0 z "},"Μ":{"ha":1357,"x_min":136,"x_max":1221,"o":"m 1086 0 l 1086 696 q 1096 903 1086 782 l 1093 903 q 1061 797 1075 827 l 715 0 l 640 0 l 294 791 q 262 903 281 818 l 258 903 q 265 690 265 829 l 265 0 l 136 0 l 136 1050 l 319 1050 l 629 330 q 676 201 665 248 l 681 201 q 730 333 716 298 l 1046 1050 l 1221 1050 l 1221 0 l 1086 0 z "},"Ν":{"ha":1129,"x_min":136,"x_max":994,"o":"m 994 0 l 833 0 l 304 817 q 269 886 282 852 l 264 886 q 270 739 270 850 l 270 0 l 136 0 l 136 1050 l 306 1050 l 820 248 q 863 175 857 191 l 866 175 q 859 328 859 220 l 859 1050 l 994 1050 l 994 0 z "},"Ξ":{"ha":772,"x_min":43,"x_max":730,"o":"m 711 924 l 62 924 l 62 1050 l 711 1050 l 711 924 m 609 470 l 164 470 l 164 591 l 609 591 l 609 470 m 730 0 l 43 0 l 43 127 l 730 127 l 730 0 z "},"Ο":{"ha":1132,"x_min":68,"x_max":1065,"o":"m 68 513 q 205 918 68 767 q 578 1068 343 1068 q 931 921 798 1068 q 1065 538 1065 774 q 928 132 1065 282 q 562 -18 791 -18 q 203 130 338 -18 q 68 513 68 277 m 210 524 q 308 218 210 333 q 562 103 405 103 q 826 213 730 103 q 922 522 922 323 q 828 836 922 725 q 570 946 734 946 q 310 829 410 946 q 210 524 210 713 z "},"Π":{"ha":1078,"x_min":136,"x_max":945,"o":"m 945 0 l 808 0 l 808 926 l 273 926 l 273 0 l 136 0 l 136 1050 l 945 1050 l 945 0 z "},"Ρ":{"ha":850,"x_min":136,"x_max":792,"o":"m 271 393 l 271 0 l 136 0 l 136 1050 l 434 1050 q 698 968 604 1050 q 792 734 792 886 q 682 483 792 579 q 408 393 572 387 l 271 393 m 271 931 l 271 512 l 397 512 q 585 568 521 512 q 650 728 650 624 q 410 931 650 931 l 271 931 z "},"Σ":{"ha":783,"x_min":33,"x_max":748,"o":"m 748 0 l 33 0 l 33 65 l 374 540 l 62 977 l 62 1050 l 703 1050 l 703 928 l 260 928 l 535 545 l 230 118 l 748 118 l 748 0 z "},"Τ":{"ha":796,"x_min":29,"x_max":770,"o":"m 770 930 l 467 930 l 467 0 l 331 0 l 331 930 l 29 930 l 29 1050 l 770 1050 l 770 930 z "},"Υ":{"ha":838,"x_min":12,"x_max":831,"o":"m 831 1050 l 485 387 l 485 0 l 349 0 l 349 383 l 12 1050 l 167 1050 l 394 585 q 419 518 395 585 l 421 518 q 449 585 429 547 l 686 1050 l 831 1050 z "},"Φ":{"ha":1141,"x_min":69,"x_max":1072,"o":"m 634 136 l 634 -12 l 508 -12 l 508 136 l 477 136 q 182 251 294 136 q 69 552 69 367 q 183 843 69 734 q 479 951 296 951 l 508 951 l 508 1061 l 634 1061 l 634 951 l 663 951 q 960 842 847 951 q 1072 552 1072 733 q 958 251 1072 367 q 665 136 844 136 l 634 136 m 634 838 l 634 254 l 664 254 q 866 332 793 254 q 940 550 940 410 q 865 760 940 681 q 663 838 791 838 l 634 838 m 508 254 l 508 838 l 479 838 q 277 761 353 838 q 201 549 201 684 q 274 332 201 410 q 478 254 347 254 l 508 254 z "},"Χ":{"ha":896,"x_min":18,"x_max":876,"o":"m 876 0 l 711 0 l 476 395 q 452 450 468 409 l 449 450 q 425 395 448 444 l 183 0 l 18 0 l 367 528 l 45 1050 l 212 1050 l 419 687 q 456 612 437 655 l 458 612 q 498 690 475 649 l 715 1050 l 871 1050 l 543 530 l 876 0 z "},"Ψ":{"ha":1173,"x_min":100,"x_max":1074,"o":"m 1074 661 q 965 389 1074 495 q 687 283 857 283 l 648 283 l 648 0 l 524 0 l 524 283 l 486 283 q 207 388 315 283 q 100 661 100 492 l 100 1050 l 229 1050 l 229 663 q 485 401 229 402 l 524 401 l 524 1050 l 648 1050 l 648 401 l 687 401 q 944 663 944 401 l 944 1050 l 1074 1050 l 1074 661 z "},"Ω":{"ha":1135,"x_min":72,"x_max":1064,"o":"m 677 0 l 677 117 q 923 572 923 302 q 825 846 923 743 q 570 949 727 949 q 312 845 410 949 q 213 571 213 742 q 460 117 213 303 l 460 0 l 72 0 l 72 118 l 326 117 q 72 578 72 286 q 208 935 72 802 q 566 1068 343 1068 q 929 936 794 1068 q 1064 580 1064 804 q 810 117 1064 288 l 1064 118 l 1064 0 l 677 0 z "},"Ϊ":{"ha":408,"x_min":-16,"x_max":427,"o":"m 372 936 l 271 936 l 271 115 l 372 115 l 372 0 l 35 0 l 35 115 l 136 115 l 136 936 l 35 936 l 35 1050 l 372 1050 l 372 936 m 273 1218 q 295 1272 273 1251 q 349 1293 317 1293 q 404 1272 381 1293 q 427 1218 427 1250 q 404 1164 427 1185 q 350 1142 381 1142 q 296 1164 319 1142 q 273 1218 273 1186 m -16 1218 q 6 1272 -16 1250 q 60 1293 28 1293 q 115 1271 92 1293 q 138 1218 138 1249 q 116 1164 138 1187 q 62 1142 94 1142 q 7 1164 31 1142 q -16 1218 -16 1186 z "},"Ϋ":{"ha":838,"x_min":12,"x_max":831,"o":"m 831 1050 l 485 387 l 485 0 l 349 0 l 349 383 l 12 1050 l 167 1050 l 394 585 q 419 518 395 585 l 421 518 q 449 585 429 547 l 686 1050 l 831 1050 m 487 1219 q 509 1273 487 1252 q 562 1295 531 1295 q 617 1273 595 1295 q 640 1219 640 1251 q 617 1165 640 1187 q 564 1143 595 1143 q 510 1165 532 1143 q 487 1219 487 1187 m 197 1219 q 219 1273 197 1251 q 274 1295 241 1295 q 329 1273 306 1295 q 352 1219 352 1251 q 330 1166 352 1188 q 276 1143 307 1143 q 221 1165 245 1143 q 197 1219 197 1187 z "},"ά":{"ha":925,"x_min":64,"x_max":901,"o":"m 743 381 q 798 170 770 224 q 868 115 825 115 q 901 119 888 115 l 901 4 q 826 -7 857 -7 q 668 203 709 -7 l 665 203 q 366 -18 559 -18 q 146 87 229 -18 q 64 353 64 192 q 159 652 64 536 q 414 768 254 768 q 579 714 508 768 q 686 564 650 660 l 689 564 l 749 750 l 887 750 l 743 381 m 633 382 q 419 659 574 659 q 259 572 318 659 q 200 361 200 486 q 250 173 200 250 q 386 96 300 96 q 623 349 541 96 l 633 382 m 566 1123 l 435 859 l 359 859 l 434 1123 l 566 1123 z "},"έ":{"ha":661,"x_min":59,"x_max":610,"o":"m 511 330 q 408 333 447 333 q 193 207 193 333 q 243 121 193 153 q 385 90 292 90 q 610 142 505 90 l 610 16 q 369 -18 514 -18 q 143 39 228 -18 q 59 202 59 97 q 109 321 59 271 q 242 386 159 371 l 242 389 q 133 451 178 401 q 87 557 87 500 q 166 713 87 658 q 377 768 245 768 q 578 736 484 768 l 578 609 q 374 661 478 661 q 222 557 222 661 q 278 470 222 500 q 425 439 335 439 q 511 441 479 439 l 511 330 m 494 1123 l 363 859 l 288 859 l 362 1123 l 494 1123 z "},"ή":{"ha":869,"x_min":92,"x_max":752,"o":"m 752 -351 l 618 -351 l 618 416 q 452 648 618 648 q 307 586 363 648 q 251 428 251 524 l 251 0 l 119 0 l 119 507 q 92 750 119 683 l 228 750 q 249 624 249 698 l 252 624 q 500 768 333 768 q 752 461 752 768 l 752 -351 m 583 1123 l 452 859 l 377 859 l 452 1123 l 583 1123 z "},"ί":{"ha":410,"x_min":103,"x_max":392,"o":"m 392 7 q 298 -9 342 -9 q 121 198 121 -9 l 121 750 l 252 750 l 252 205 q 326 105 252 105 q 392 119 355 105 l 392 7 m 309 1123 l 178 859 l 103 859 l 178 1123 l 309 1123 z "},"ΰ":{"ha":841,"x_min":15,"x_max":772,"o":"m 126 517 q 110 613 126 585 q 56 642 94 642 q 15 637 33 642 l 15 745 q 91 755 50 755 q 221 702 184 755 q 258 526 258 648 l 258 340 q 449 97 258 97 q 590 160 541 97 q 639 336 639 224 q 533 750 639 555 l 680 750 q 772 341 772 568 q 685 78 772 174 q 448 -19 598 -19 q 210 68 293 -19 q 126 317 126 155 l 126 517 m 547 1137 l 416 870 l 343 870 l 416 1137 l 547 1137 m 528 968 q 550 1020 528 999 q 603 1042 572 1042 q 657 1020 634 1042 q 680 968 680 999 q 658 914 680 935 q 604 893 636 893 q 550 915 571 893 q 528 968 528 937 m 161 968 q 183 1021 161 1000 q 237 1042 205 1042 q 291 1020 268 1042 q 313 968 313 998 q 291 914 313 935 q 237 893 269 893 q 183 915 205 893 q 161 968 161 937 z "},"α":{"ha":925,"x_min":64,"x_max":901,"o":"m 743 381 q 798 170 770 224 q 868 115 825 115 q 901 119 888 115 l 901 4 q 826 -7 857 -7 q 668 203 709 -7 l 665 203 q 366 -18 559 -18 q 146 87 229 -18 q 64 353 64 192 q 159 652 64 536 q 414 768 254 768 q 579 714 508 768 q 686 564 650 660 l 689 564 l 749 750 l 887 750 l 743 381 m 633 382 q 419 659 574 659 q 259 572 318 659 q 200 361 200 486 q 250 173 200 250 q 386 96 300 96 q 623 349 541 96 l 633 382 z "},"β":{"ha":835,"x_min":119,"x_max":779,"o":"m 251 32 l 251 -351 l 119 -351 l 119 811 q 202 1037 119 952 q 424 1122 284 1122 q 630 1055 555 1122 q 706 869 706 987 q 651 706 706 781 q 506 602 595 630 l 506 599 q 707 499 635 577 q 779 300 779 421 q 688 70 779 158 q 452 -18 597 -18 q 251 32 343 -18 m 370 536 l 370 640 q 516 714 460 653 q 572 853 572 775 q 422 1011 572 1011 q 294 956 338 1011 q 251 801 251 900 l 251 155 q 447 93 352 93 q 591 144 538 93 q 643 294 643 196 q 370 536 643 510 z "},"γ":{"ha":787,"x_min":1,"x_max":739,"o":"m 425 -52 q 422 -352 425 -286 l 282 -352 q 294 11 294 -215 q 176 389 265 164 q 1 750 87 614 l 153 750 q 399 115 333 426 l 402 115 q 606 654 606 416 q 598 750 606 703 l 734 750 q 739 686 739 715 q 694 414 739 557 q 425 -52 648 271 z "},"δ":{"ha":881,"x_min":66,"x_max":817,"o":"m 365 700 q 193 926 193 806 q 270 1072 193 1021 q 483 1124 347 1124 q 734 1076 602 1124 l 734 932 q 485 1009 608 1009 q 371 984 412 1009 q 330 920 330 959 q 490 760 330 855 q 759 543 701 633 q 817 353 817 452 q 712 81 817 181 q 432 -18 608 -18 q 168 79 270 -18 q 66 335 66 177 q 365 700 66 571 m 464 640 q 206 338 206 536 q 270 159 206 226 q 441 93 334 93 q 617 161 551 93 q 683 345 683 229 q 631 497 683 429 q 464 640 580 566 z "},"ε":{"ha":661,"x_min":59,"x_max":610,"o":"m 511 330 q 408 333 447 333 q 193 207 193 333 q 243 121 193 153 q 385 90 292 90 q 610 142 505 90 l 610 16 q 369 -18 514 -18 q 143 39 228 -18 q 59 202 59 97 q 109 321 59 271 q 242 386 159 371 l 242 389 q 133 451 178 401 q 87 557 87 500 q 166 713 87 658 q 377 768 245 768 q 578 736 484 768 l 578 609 q 374 661 478 661 q 222 557 222 661 q 278 470 222 500 q 425 439 335 439 q 511 441 479 439 l 511 330 z "},"ζ":{"ha":667,"x_min":55,"x_max":661,"o":"m 463 -227 q 536 -111 536 -169 q 497 -43 536 -67 q 345 -1 458 -18 q 55 331 55 39 q 486 1002 55 644 l 486 1005 l 170 1005 l 170 1110 l 619 1110 l 619 1003 q 192 336 192 629 q 399 121 192 157 q 601 43 542 95 q 661 -90 661 -8 q 607 -227 661 -166 l 463 -227 z "},"η":{"ha":869,"x_min":92,"x_max":752,"o":"m 752 -351 l 618 -351 l 618 416 q 452 648 618 648 q 307 586 363 648 q 251 428 251 524 l 251 0 l 119 0 l 119 507 q 92 750 119 683 l 228 750 q 249 624 249 698 l 252 624 q 500 768 333 768 q 752 461 752 768 l 752 -351 z "},"θ":{"ha":884,"x_min":69,"x_max":814,"o":"m 69 545 q 170 973 69 823 q 457 1124 270 1124 q 814 562 814 1124 q 714 133 814 284 q 435 -18 614 -18 q 166 131 262 -18 q 69 545 69 279 m 677 616 q 445 1013 664 1013 q 279 910 343 1013 q 205 616 214 806 l 677 616 m 204 511 q 271 199 209 305 q 444 94 333 94 q 613 202 553 94 q 678 511 673 311 l 204 511 z "},"ι":{"ha":410,"x_min":121,"x_max":392,"o":"m 392 7 q 298 -9 342 -9 q 121 198 121 -9 l 121 750 l 252 750 l 252 205 q 326 105 252 105 q 392 119 355 105 l 392 7 z "},"κ":{"ha":794,"x_min":119,"x_max":774,"o":"m 774 0 l 612 0 l 350 359 l 251 254 l 251 0 l 119 0 l 119 750 l 251 750 l 251 391 l 445 614 q 562 728 517 696 q 650 760 607 760 q 730 754 704 760 l 730 640 q 671 646 707 646 q 522 536 622 646 l 440 449 l 774 0 z "},"λ":{"ha":756,"x_min":-1,"x_max":735,"o":"m 735 0 l 593 0 l 395 596 l 144 0 l -1 0 l 337 744 l 290 881 q 176 992 252 992 q 85 977 138 992 l 85 1101 q 186 1111 134 1111 q 327 1062 278 1111 q 423 883 376 1013 l 735 0 z "},"μ":{"ha":872,"x_min":119,"x_max":777,"o":"m 640 0 q 623 121 623 52 l 619 121 q 420 -17 559 -17 q 254 68 304 -17 l 251 68 l 251 -290 l 119 -290 l 119 750 l 251 750 l 251 295 q 299 151 251 204 q 427 98 348 98 q 566 159 513 98 q 618 324 618 221 l 618 750 l 753 750 l 753 198 q 777 0 753 56 l 640 0 z "},"ν":{"ha":793,"x_min":6,"x_max":714,"o":"m 305 0 l 6 750 l 151 750 l 391 122 q 582 591 582 363 q 555 750 582 684 l 696 750 q 714 609 714 699 q 435 0 714 334 l 305 0 z "},"ξ":{"ha":673,"x_min":56,"x_max":656,"o":"m 602 -231 l 458 -231 q 531 -113 531 -174 q 499 -45 531 -72 q 348 -2 468 -18 q 132 94 208 16 q 56 299 56 172 q 116 472 56 395 q 288 589 177 549 q 126 769 126 637 q 195 912 126 849 q 379 1003 263 975 l 379 1008 l 121 1005 l 121 1111 l 574 1111 l 574 1004 q 346 923 433 983 q 259 781 259 863 q 320 670 259 709 q 448 631 382 631 l 561 635 l 561 517 l 475 520 q 273 464 354 520 q 192 311 192 407 q 395 123 192 155 q 598 47 540 98 q 656 -90 656 -3 q 602 -231 656 -170 z "},"ο":{"ha":883,"x_min":68,"x_max":814,"o":"m 68 367 q 172 660 68 553 q 454 768 276 768 q 719 664 623 768 q 814 378 814 561 q 712 92 814 201 q 437 -18 610 -18 q 169 88 269 -18 q 68 367 68 194 m 204 371 q 270 167 204 241 q 446 92 335 92 q 619 165 559 92 q 679 374 679 238 q 619 585 679 511 q 446 658 559 658 q 269 581 334 658 q 204 371 204 505 z "},"π":{"ha":951,"x_min":12,"x_max":891,"o":"m 891 644 l 728 644 l 728 208 q 801 105 728 105 q 866 119 827 105 l 866 8 q 772 -9 819 -9 q 595 199 595 -9 l 595 644 l 321 644 l 321 208 q 297 0 321 65 l 163 0 q 190 209 190 68 l 190 644 q 12 579 100 642 l 12 698 q 191 750 68 750 l 891 750 l 891 644 z "},"ρ":{"ha":884,"x_min":115,"x_max":816,"o":"m 248 70 l 248 -290 l 115 -290 l 115 384 q 202 667 115 567 q 452 768 290 768 q 715 661 615 768 q 816 387 816 553 q 725 89 816 196 q 473 -18 633 -18 q 250 70 334 -18 l 248 70 m 248 194 q 334 121 276 150 q 454 93 393 93 q 679 380 679 93 q 616 578 679 498 q 454 657 553 657 q 248 385 248 657 l 248 194 z "},"ς":{"ha":695,"x_min":62,"x_max":662,"o":"m 464 -231 q 538 -110 538 -175 q 496 -38 538 -62 q 355 -1 454 -14 q 139 102 215 18 q 62 316 62 186 q 174 642 62 515 q 460 768 286 768 q 630 730 555 768 l 630 600 q 454 658 547 658 q 273 564 346 658 q 200 331 200 471 q 242 200 200 251 q 406 122 284 150 q 618 36 574 83 q 662 -92 662 -11 q 609 -231 662 -171 l 464 -231 z "},"σ":{"ha":869,"x_min":69,"x_max":852,"o":"m 852 645 l 667 645 q 768 357 768 515 q 674 86 768 190 q 425 -18 580 -18 q 166 89 262 -18 q 69 368 69 195 q 452 750 69 750 l 852 750 l 852 645 m 465 645 q 205 363 205 645 q 264 168 205 243 q 424 93 323 93 q 577 168 522 93 q 633 367 633 242 q 547 645 633 524 l 465 645 z "},"τ":{"ha":741,"x_min":25,"x_max":716,"o":"m 716 645 l 432 645 l 432 208 q 516 105 432 105 q 595 120 557 105 l 595 7 q 489 -9 544 -9 q 300 205 300 -9 l 300 645 l 201 645 q 25 580 115 645 l 25 696 q 206 750 81 750 l 716 750 l 716 645 z "},"υ":{"ha":841,"x_min":15,"x_max":772,"o":"m 126 517 q 110 613 126 585 q 56 642 94 642 q 15 637 33 642 l 15 745 q 91 755 50 755 q 221 702 184 755 q 258 526 258 648 l 258 340 q 449 97 258 97 q 590 160 541 97 q 639 336 639 224 q 533 750 639 555 l 680 750 q 772 341 772 568 q 685 78 772 174 q 448 -19 598 -19 q 210 68 293 -19 q 126 317 126 155 l 126 517 z "},"φ":{"ha":1058,"x_min":68,"x_max":989,"o":"m 467 -353 l 467 -18 q 448 -18 451 -21 q 171 89 273 -20 q 68 374 68 197 q 218 750 68 604 l 372 750 q 202 372 202 594 q 268 169 202 245 q 446 93 334 93 l 467 93 l 467 560 q 676 768 467 768 q 906 655 823 768 q 989 366 989 542 q 885 89 989 198 q 611 -18 781 -20 q 587 -18 608 -21 l 587 -353 l 467 -353 m 587 93 l 612 93 q 789 171 723 93 q 855 373 855 250 q 809 573 855 490 q 679 657 762 657 q 587 563 587 657 l 587 93 z "},"χ":{"ha":810,"x_min":5,"x_max":805,"o":"m 805 -344 q 733 -351 774 -351 q 619 -303 670 -351 q 513 -125 568 -256 l 401 130 l 153 -342 l 5 -342 l 336 260 l 213 540 q 111 650 164 650 q 46 639 76 650 l 46 760 q 128 768 73 768 q 232 733 190 768 q 311 610 275 698 l 410 378 l 602 750 l 750 750 l 475 252 l 642 -120 q 747 -233 693 -233 q 805 -221 770 -233 l 805 -344 z "},"ψ":{"ha":1132,"x_min":109,"x_max":1023,"o":"m 1023 407 q 922 102 1023 222 q 644 -17 821 -17 l 625 -17 l 625 -353 l 507 -353 l 507 -17 l 488 -17 q 212 100 315 -17 q 109 407 109 216 l 109 750 l 241 750 l 241 407 q 309 187 241 277 q 490 97 376 97 l 507 97 l 507 975 l 625 975 l 625 97 l 642 97 q 822 186 753 97 q 890 407 890 276 l 890 750 l 1023 750 l 1023 407 z "},"ω":{"ha":1216,"x_min":85,"x_max":1131,"o":"m 609 121 l 606 121 q 382 -17 531 -17 q 164 79 243 -17 q 85 336 85 175 q 178 750 85 526 l 323 750 q 218 332 218 519 q 260 161 218 224 q 380 98 302 98 q 543 342 543 98 l 543 549 l 674 549 l 674 342 q 836 98 674 98 q 955 158 912 98 q 998 332 998 218 q 893 750 998 519 l 1038 750 q 1131 336 1131 524 q 1053 80 1131 176 q 832 -17 975 -17 q 609 121 682 -17 z "},"ϊ":{"ha":410,"x_min":-29,"x_max":414,"o":"m 392 7 q 298 -9 342 -9 q 121 198 121 -9 l 121 750 l 252 750 l 252 205 q 326 105 252 105 q 392 119 355 105 l 392 7 m 260 965 q 282 1019 260 998 q 336 1040 304 1040 q 391 1019 368 1040 q 414 965 414 997 q 391 911 414 932 q 337 889 368 889 q 283 911 306 889 q 260 965 260 933 m -29 965 q -7 1019 -29 997 q 47 1040 15 1040 q 102 1018 79 1040 q 125 965 125 996 q 103 911 125 934 q 50 889 81 889 q -5 911 18 889 q -29 965 -29 933 z "},"ϋ":{"ha":841,"x_min":15,"x_max":772,"o":"m 126 517 q 110 613 126 585 q 56 642 94 642 q 15 637 33 642 l 15 745 q 91 755 50 755 q 221 702 184 755 q 258 526 258 648 l 258 340 q 449 97 258 97 q 590 160 541 97 q 639 336 639 224 q 533 750 639 555 l 680 750 q 772 341 772 568 q 685 78 772 174 q 448 -19 598 -19 q 210 68 293 -19 q 126 317 126 155 l 126 517 m 473 965 q 495 1019 473 998 q 549 1040 517 1040 q 604 1019 581 1040 q 627 965 627 997 q 604 911 627 932 q 550 889 581 889 q 496 911 519 889 q 473 965 473 933 m 184 965 q 206 1019 184 997 q 260 1040 228 1040 q 315 1018 292 1040 q 338 965 338 996 q 316 911 338 934 q 262 889 294 889 q 208 911 231 889 q 184 965 184 933 z "},"ό":{"ha":883,"x_min":68,"x_max":814,"o":"m 68 367 q 172 660 68 553 q 454 768 276 768 q 719 664 623 768 q 814 378 814 561 q 712 92 814 201 q 437 -18 610 -18 q 169 88 269 -18 q 68 367 68 194 m 204 371 q 270 167 204 241 q 446 92 335 92 q 619 165 559 92 q 679 374 679 238 q 619 585 679 511 q 446 658 559 658 q 269 581 334 658 q 204 371 204 505 m 579 1123 l 448 859 l 373 859 l 448 1123 l 579 1123 z "},"ύ":{"ha":841,"x_min":15,"x_max":772,"o":"m 126 517 q 110 613 126 585 q 56 642 94 642 q 15 637 33 642 l 15 745 q 91 755 50 755 q 221 702 184 755 q 258 526 258 648 l 258 340 q 449 97 258 97 q 590 160 541 97 q 639 336 639 224 q 533 750 639 555 l 680 750 q 772 341 772 568 q 685 78 772 174 q 448 -19 598 -19 q 210 68 293 -19 q 126 317 126 155 l 126 517 m 536 1123 l 406 859 l 330 859 l 405 1123 l 536 1123 z "},"ώ":{"ha":1216,"x_min":85,"x_max":1131,"o":"m 609 121 l 606 121 q 382 -17 531 -17 q 164 79 243 -17 q 85 336 85 175 q 178 750 85 526 l 323 750 q 218 332 218 519 q 260 161 218 224 q 380 98 302 98 q 543 342 543 98 l 543 549 l 674 549 l 674 342 q 836 98 674 98 q 955 158 912 98 q 998 332 998 218 q 893 750 998 519 l 1038 750 q 1131 336 1131 524 q 1053 80 1131 176 q 832 -17 975 -17 q 609 121 682 -17 m 745 1123 l 614 859 l 538 859 l 613 1123 l 745 1123 z "},"ϐ":{"ha":835,"x_min":119,"x_max":778,"o":"m 507 599 q 707 499 635 578 q 778 300 778 421 q 685 70 778 158 q 439 -18 591 -18 q 201 75 284 -18 q 119 338 119 168 l 119 810 q 202 1038 119 953 q 424 1122 286 1122 q 625 1053 550 1122 q 701 869 701 984 q 647 706 701 781 q 507 602 593 631 l 507 599 m 370 640 q 513 714 459 655 q 566 854 566 774 q 416 1011 566 1011 q 252 801 252 1011 l 252 342 q 446 96 252 96 q 642 294 642 96 q 370 537 642 511 l 370 640 z "},"ϑ":{"ha":905,"x_min":14,"x_max":915,"o":"m 915 550 q 799 520 863 531 q 685 125 788 269 q 405 -18 583 -18 q 182 63 265 -18 q 98 284 98 144 q 115 439 98 345 q 130 574 130 532 q 66 658 130 658 q 14 644 38 658 l 14 753 q 92 768 52 768 q 215 716 169 768 q 262 585 262 664 q 247 446 262 540 q 231 294 231 353 q 279 152 231 208 q 411 96 328 96 q 666 511 645 96 q 385 621 492 522 q 277 870 277 720 q 342 1052 277 977 q 508 1126 407 1126 q 800 633 782 1126 q 915 665 857 641 l 915 550 m 667 625 q 507 1016 656 1016 q 434 975 460 1016 q 408 878 408 935 q 478 705 408 774 q 667 625 547 635 z "},"ϒ":{"ha":857,"x_min":12,"x_max":893,"o":"m 893 932 q 828 946 861 946 q 698 810 767 946 l 485 383 l 485 0 l 349 0 l 349 383 l 12 1050 l 167 1050 l 394 585 q 419 518 395 584 l 421 518 q 446 585 429 545 l 585 865 q 698 1024 643 981 q 818 1068 753 1068 q 893 1053 859 1068 l 893 932 z "},"ϓ":{"ha":1067,"x_min":-27,"x_max":1103,"o":"m 1103 932 q 1038 946 1071 946 q 908 810 977 946 l 695 383 l 695 0 l 559 0 l 559 383 l 222 1050 l 377 1050 l 604 585 q 629 518 605 584 l 631 518 q 656 585 640 545 l 795 865 q 908 1024 853 981 q 1028 1068 963 1068 q 1103 1053 1069 1068 l 1103 932 m 179 1048 l 48 785 l -27 785 l 47 1048 l 179 1048 z "},"ϔ":{"ha":857,"x_min":12,"x_max":893,"o":"m 893 932 q 828 946 861 946 q 698 810 767 946 l 485 383 l 485 0 l 349 0 l 349 383 l 12 1050 l 167 1050 l 394 585 q 419 518 395 584 l 421 518 q 446 585 429 545 l 585 865 q 698 1024 643 981 q 818 1068 753 1068 q 893 1053 859 1068 l 893 932 m 492 1218 q 514 1272 492 1251 q 568 1293 536 1293 q 623 1272 600 1293 q 646 1218 646 1250 q 623 1164 646 1185 q 569 1142 600 1142 q 515 1164 538 1142 q 492 1218 492 1186 m 203 1218 q 225 1272 203 1250 q 279 1293 247 1293 q 334 1271 311 1293 q 357 1218 357 1249 q 335 1164 357 1187 q 281 1142 313 1142 q 227 1164 250 1142 q 203 1218 203 1186 z "},"ϕ":{"ha":964,"x_min":68,"x_max":897,"o":"m 548 -345 l 418 -345 l 418 -18 q 163 101 258 -5 q 68 370 68 207 q 162 641 68 534 q 418 768 255 749 l 418 1110 l 548 1110 l 548 768 q 805 650 713 755 q 897 379 897 545 q 803 109 897 217 q 548 -18 709 0 l 548 -345 m 548 92 q 708 180 652 106 q 763 376 763 254 q 707 571 763 497 q 548 658 652 644 l 548 92 m 418 658 q 258 569 315 644 q 201 374 201 494 q 258 183 201 258 q 418 92 314 108 l 418 658 z "},"ϖ":{"ha":1215,"x_min":-1,"x_max":1175,"o":"m 1175 640 l 1042 640 q 1133 329 1133 484 q 1053 76 1133 168 q 833 -16 973 -16 q 608 121 681 -16 l 605 121 q 378 -16 530 -16 q 164 76 241 -16 q 86 329 86 169 q 178 640 86 481 q -1 576 84 640 l -1 697 q 186 750 75 750 l 1175 750 l 1175 640 m 311 640 q 218 326 218 479 q 261 158 218 218 q 382 98 304 98 q 546 342 546 98 l 546 524 l 675 524 l 675 342 q 837 98 675 98 q 957 159 913 98 q 1000 326 1000 220 q 908 640 1000 476 l 311 640 z "},"ϗ":{"ha":865,"x_min":0,"x_max":865,"o":"m 865 -46 q 807 -208 865 -146 q 654 -269 749 -269 q 567 -251 607 -269 l 567 -137 q 650 -160 605 -160 q 719 -129 694 -160 q 745 -44 745 -98 l 745 -16 q 608 76 657 -3 q 558 283 558 155 q 572 428 558 363 q 229 102 285 173 q 186 0 209 52 l 49 0 q 179 451 179 274 q 149 603 179 547 q 60 658 118 658 q 0 642 29 658 l 0 751 q 86 768 39 768 q 247 687 188 768 q 307 467 307 607 q 293 322 307 387 q 635 648 576 575 q 679 750 644 669 l 817 750 q 686 299 686 478 q 717 146 686 200 q 805 92 748 92 q 865 103 838 92 l 865 -46 z "},"Ϙ":{"ha":1059,"x_min":62,"x_max":996,"o":"m 597 0 l 461 0 l 461 260 q 169 389 275 280 q 62 658 62 498 q 195 951 62 834 q 532 1068 328 1068 q 867 956 738 1068 q 996 667 996 843 q 887 395 996 509 q 597 260 779 281 l 597 0 m 203 662 q 294 456 203 535 q 530 376 384 376 q 765 455 675 376 q 855 662 855 534 q 765 868 855 789 q 530 947 675 947 q 294 869 384 947 q 203 662 203 791 z "},"ϙ":{"ha":883,"x_min":68,"x_max":814,"o":"m 508 -345 l 375 -345 l 375 -14 q 150 108 231 5 q 68 367 68 211 q 172 660 68 553 q 454 768 276 768 q 719 664 623 768 q 814 378 814 561 q 733 115 814 221 q 508 -14 652 9 l 508 -345 m 204 371 q 270 167 204 241 q 446 92 335 92 q 619 165 559 92 q 679 374 679 238 q 619 585 679 511 q 446 658 559 658 q 269 581 334 658 q 204 371 204 505 z "},"Ϛ":{"ha":873,"x_min":68,"x_max":863,"o":"m 655 -248 q 715 -130 715 -186 q 663 -60 715 -86 q 500 -16 611 -35 q 68 505 68 60 q 135 800 68 681 q 298 970 203 918 q 614 1073 393 1023 q 716 1108 696 1093 q 736 1153 736 1124 q 730 1196 736 1175 l 852 1196 q 863 1134 863 1166 q 809 1018 863 1055 q 628 951 755 981 q 392 877 477 918 q 259 739 308 836 q 210 513 210 642 q 539 110 210 176 q 785 25 718 74 q 852 -111 852 -23 q 800 -248 852 -180 l 655 -248 z "},"ϛ":{"ha":689,"x_min":68,"x_max":683,"o":"m 673 895 q 683 837 683 871 q 668 767 683 796 q 631 722 652 739 q 525 675 610 706 q 376 624 440 644 q 204 342 204 568 q 415 117 204 160 q 617 35 559 86 q 674 -94 674 -16 q 615 -231 674 -165 l 469 -231 q 543 -110 543 -174 q 512 -50 543 -75 q 362 0 481 -24 q 68 327 68 58 q 96 513 68 435 q 169 637 123 591 q 253 702 215 684 q 442 770 291 720 q 536 809 513 793 q 559 854 559 825 q 553 895 559 876 l 673 895 z "},"Ϝ":{"ha":754,"x_min":136,"x_max":694,"o":"m 545 378 q 551 430 551 399 q 475 495 551 495 l 271 495 l 271 0 l 136 0 l 136 1050 l 694 1050 l 694 930 l 271 930 l 271 612 l 481 612 q 667 454 667 612 q 656 378 667 417 l 545 378 z "},"ϝ":{"ha":682,"x_min":104,"x_max":630,"o":"m 630 641 l 458 641 q 235 399 235 641 l 235 349 l 600 349 l 600 239 l 235 239 l 235 -345 l 104 -345 l 104 385 q 195 654 104 559 q 457 750 287 750 l 630 750 l 630 641 z "},"Ϟ":{"ha":899,"x_min":50,"x_max":848,"o":"m 848 594 l 637 0 l 492 0 l 665 473 l 50 473 l 256 1050 l 400 1050 l 233 594 l 848 594 z "},"ϟ":{"ha":762,"x_min":36,"x_max":726,"o":"m 726 442 l 656 247 q 568 -105 568 -1 q 591 -204 568 -167 q 656 -242 614 -242 q 713 -227 688 -242 l 713 -336 q 636 -353 679 -353 q 493 -286 548 -353 q 437 -119 437 -219 q 530 265 437 3 l 553 332 l 36 332 l 106 528 q 194 878 194 774 q 106 1016 194 1016 q 49 1001 75 1016 l 49 1110 q 125 1126 83 1126 q 269 1060 214 1126 q 325 894 325 994 q 232 508 325 772 l 208 442 l 726 442 z "},"Ϡ":{"ha":932,"x_min":-3,"x_max":865,"o":"m 764 0 l 613 0 q 726 429 726 189 q 718 545 726 490 l 404 304 l 338 390 l 691 664 q 632 788 671 725 l 256 498 l 189 585 l 558 871 q 343 946 464 946 q 163 903 252 946 q 10 781 75 859 l -3 927 q 353 1068 152 1068 q 725 888 585 1068 q 865 446 865 709 q 764 0 865 216 z "},"ϡ":{"ha":752,"x_min":-101,"x_max":667,"o":"m 359 -338 q 535 189 535 -98 q 530 284 535 252 l 191 158 l 152 260 l 510 393 q 442 572 488 485 l 85 439 l 46 541 l 385 667 q -101 996 199 944 q -95 1063 -98 1030 q -90 1126 -93 1095 q 453 798 240 1064 q 667 193 667 532 q 507 -346 667 -78 l 359 -338 z "},"Ϣ":{"ha":1352,"x_min":133,"x_max":1215,"o":"m 1215 212 q 1100 -217 1215 -81 q 721 -353 984 -353 q 580 -345 663 -353 q 455 -336 490 -336 q 311 -355 376 -336 l 311 -235 q 460 -215 380 -215 q 587 -223 503 -215 q 727 -232 676 -232 q 984 -152 901 -232 q 1080 115 1067 -72 l 1075 115 q 845 -18 994 -18 q 633 138 687 -18 q 382 -18 549 -18 q 133 315 133 -18 l 133 1050 l 269 1050 l 269 334 q 307 157 269 212 q 431 103 345 103 q 555 172 504 103 q 606 337 606 241 l 606 1050 l 743 1050 l 743 319 q 903 103 743 103 q 1029 169 979 103 q 1080 337 1080 235 l 1080 1050 l 1215 1050 l 1215 212 z "},"ϣ":{"ha":1301,"x_min":117,"x_max":1197,"o":"m 1197 251 q 1088 -209 1197 -64 q 713 -353 979 -353 q 582 -345 663 -353 q 465 -336 503 -336 q 326 -355 381 -336 l 326 -242 q 471 -227 391 -227 q 585 -233 506 -227 q 720 -241 656 -241 q 972 -155 888 -241 q 1063 119 1055 -70 l 1061 119 q 827 -18 981 -18 q 696 23 753 -18 q 614 136 639 64 q 365 -18 530 -18 q 117 287 117 -18 l 117 750 l 250 750 l 250 319 q 413 92 250 92 q 541 163 490 92 q 591 323 591 234 l 591 750 l 724 750 l 724 306 q 888 92 724 92 q 1015 161 966 92 q 1063 323 1063 229 l 1063 750 l 1197 750 l 1197 251 z "},"Ϥ":{"ha":919,"x_min":37,"x_max":798,"o":"m 798 0 l 662 0 l 662 460 q 380 376 528 376 q 131 473 226 376 q 37 728 37 570 q 105 975 37 882 q 288 1068 174 1068 q 385 1050 337 1068 l 385 933 q 296 952 342 952 q 173 734 173 952 q 233 561 173 625 q 397 497 293 497 q 662 578 527 497 l 662 1050 l 798 1050 l 798 0 z "},"ϥ":{"ha":781,"x_min":41,"x_max":677,"o":"m 677 -345 l 545 -345 l 545 114 l 542 114 q 305 -18 458 -18 q 41 375 41 -18 q 288 768 41 768 q 371 753 332 768 l 371 642 q 295 659 338 659 q 174 380 174 659 q 214 162 174 231 q 343 92 255 92 q 488 160 430 92 q 545 325 545 229 l 545 750 l 677 750 l 677 -345 z "},"Ϧ":{"ha":968,"x_min":0,"x_max":896,"o":"m 896 174 q 409 -353 896 -353 q 271 -345 353 -353 q 143 -336 185 -336 q 0 -355 65 -336 l 0 -235 q 149 -215 66 -215 q 274 -223 190 -215 q 416 -232 352 -232 q 676 -134 592 -232 q 760 172 760 -37 l 760 326 q 700 519 760 444 q 534 595 640 595 q 271 513 397 595 l 271 0 l 136 0 l 136 1050 l 271 1050 l 271 629 q 558 715 407 715 q 804 615 713 715 q 896 349 895 515 l 896 174 z "},"ϧ":{"ha":808,"x_min":-16,"x_max":742,"o":"m -16 0 q 177 229 18 229 q 332 158 251 229 q 445 96 406 96 q 562 172 513 96 q 612 361 612 249 q 573 513 612 444 q 315 395 453 395 q 163 444 224 395 q 103 570 103 494 q 174 712 103 656 q 352 768 245 768 q 577 690 475 768 q 612 768 597 726 l 734 768 q 656 612 705 685 q 742 361 742 502 q 655 95 742 208 q 443 -18 568 -18 q 267 57 348 -18 q 178 116 203 116 q 109 0 125 116 l -16 0 m 509 596 q 349 661 437 661 q 257 637 290 661 q 224 576 224 614 q 321 503 224 503 q 509 596 422 503 z "},"Ϩ":{"ha":925,"x_min":52,"x_max":890,"o":"m 890 374 q 745 84 867 186 q 431 -18 623 -18 q 161 70 269 -18 q 52 304 52 157 q 90 453 52 387 q 195 554 127 519 q 504 644 263 589 q 663 754 663 680 q 588 888 663 829 q 427 948 512 948 q 317 871 317 948 q 334 806 317 841 l 202 806 q 184 883 184 845 q 252 1018 184 967 q 420 1068 319 1068 q 682 975 559 1068 q 806 752 806 882 q 768 640 806 690 q 680 569 730 590 q 496 519 630 549 q 325 473 385 495 q 230 408 265 451 q 195 306 195 364 q 262 157 195 212 q 438 101 330 101 q 662 176 575 101 q 764 388 749 252 l 890 374 z "},"ϩ":{"ha":699,"x_min":45,"x_max":679,"o":"m 679 290 q 576 62 667 142 q 334 -18 486 -18 q 124 46 203 -18 q 45 212 45 110 q 77 329 45 285 q 162 398 109 373 q 365 458 215 424 q 475 532 475 482 q 416 619 475 576 q 300 662 357 662 q 233 611 233 662 q 256 545 233 582 l 136 545 q 114 623 114 583 q 163 727 114 687 q 292 768 213 768 q 505 695 403 768 q 606 530 606 623 q 557 418 606 458 q 397 356 509 379 q 229 303 281 333 q 176 216 176 273 q 221 125 176 159 q 340 90 267 90 q 501 146 441 90 q 567 302 561 201 l 679 290 z "},"Ϫ":{"ha":919,"x_min":16,"x_max":902,"o":"m 902 0 l 16 0 l 16 43 l 387 745 l 351 814 q 280 923 307 899 q 221 948 253 948 q 153 933 189 948 l 153 1053 q 231 1068 186 1068 q 357 1020 306 1068 q 459 878 408 972 q 563 1022 512 977 q 688 1068 613 1068 q 766 1053 732 1068 l 766 933 q 697 948 730 948 q 628 915 656 948 q 566 814 600 882 l 530 747 l 902 43 l 902 0 m 712 120 l 458 616 l 203 120 l 712 120 z "},"ϫ":{"ha":745,"x_min":15,"x_max":730,"o":"m 730 0 l 15 0 l 15 34 l 303 540 q 292 562 298 551 q 279 584 285 573 q 190 659 237 659 q 138 648 164 659 l 138 757 q 199 768 164 768 q 297 741 258 768 q 372 652 335 715 q 447 742 409 715 q 545 768 485 768 q 606 757 580 768 l 606 648 q 555 659 581 659 q 505 641 530 659 q 439 543 480 623 l 730 34 l 730 0 m 551 110 l 370 434 l 189 110 l 551 110 z "},"Ϭ":{"ha":993,"x_min":64,"x_max":928,"o":"m 895 1010 q 756 991 836 991 q 709 994 740 991 q 509 1006 542 1006 q 297 920 365 1006 q 211 649 229 834 q 526 795 334 795 q 816 683 703 795 q 928 395 928 571 q 806 100 928 217 q 496 -18 684 -18 q 176 109 289 -18 q 64 473 64 235 q 170 971 64 817 q 514 1126 276 1126 q 713 1114 541 1126 q 762 1112 745 1112 q 895 1130 836 1112 l 895 1010 m 211 402 q 289 185 211 268 q 499 102 368 102 q 707 183 628 102 q 787 388 787 263 q 709 595 787 515 q 503 675 631 675 q 294 598 377 675 q 211 402 211 521 z "},"ϭ":{"ha":883,"x_min":68,"x_max":814,"o":"m 730 1020 q 628 1007 687 1007 q 554 1010 593 1007 q 490 1013 515 1013 q 208 644 243 1013 l 212 644 q 467 768 305 768 q 721 664 627 768 q 814 378 814 559 q 711 92 814 201 q 434 -18 607 -18 q 163 109 258 -18 q 68 469 68 235 q 496 1126 68 1126 q 565 1123 511 1126 q 637 1119 619 1119 q 730 1130 690 1119 l 730 1020 m 207 517 q 204 431 204 473 q 269 183 204 274 q 442 92 333 92 q 617 167 555 92 q 679 374 679 241 q 616 584 679 510 q 438 659 553 659 q 306 619 372 659 q 207 517 241 579 z "},"Ϯ":{"ha":859,"x_min":7,"x_max":853,"o":"m 853 745 l 517 745 l 517 0 l 380 0 l 380 745 l 200 745 q 124 679 124 745 q 130 627 124 650 l 17 627 q 7 703 7 665 q 201 865 7 865 l 380 865 l 380 1050 l 517 1050 l 517 865 l 853 865 l 853 745 z "},"ϯ":{"ha":629,"x_min":-1,"x_max":633,"o":"m 633 640 l 397 640 l 397 59 q 134 -269 397 -214 l 97 -144 q 234 -58 202 -125 q 265 113 265 9 l 265 640 l 212 640 q 139 626 159 640 q 119 581 119 611 q 122 532 119 556 l 2 541 q -1 582 -1 562 q 6 646 -1 602 q 54 721 14 691 q 184 750 94 750 l 265 750 l 265 930 l 397 972 l 397 750 l 633 750 l 633 640 z "},"ϰ":{"ha":865,"x_min":0,"x_max":865,"o":"m 865 -1 q 778 -18 825 -18 q 615 67 673 -18 q 558 283 558 151 q 572 428 558 363 q 229 102 294 180 q 186 0 209 52 l 49 0 q 179 451 179 274 q 149 603 179 547 q 60 658 118 658 q 0 642 29 658 l 0 751 q 86 768 39 768 q 249 684 191 768 q 307 467 307 600 q 293 322 307 387 q 635 648 576 575 q 679 750 644 669 l 817 750 q 686 299 686 478 q 717 146 686 200 q 805 92 748 92 q 865 108 836 92 l 865 -1 z "},"ϱ":{"ha":878,"x_min":115,"x_max":815,"o":"m 772 -353 q 627 -345 722 -347 q 333 -300 432 -342 q 175 -155 235 -258 q 115 189 115 -52 l 115 384 q 206 666 115 564 q 463 768 297 768 q 719 662 622 768 q 815 386 815 556 q 724 90 815 198 q 472 -18 633 -18 q 246 70 332 -18 q 296 -104 252 -36 q 415 -201 339 -172 q 633 -232 491 -229 q 772 -239 733 -235 l 772 -353 m 246 193 q 335 120 276 149 q 452 92 393 92 q 678 380 678 92 q 617 582 678 506 q 458 658 557 658 q 301 585 357 658 q 246 385 246 512 l 246 193 z "},"ϲ":{"ha":696,"x_min":68,"x_max":637,"o":"m 637 34 q 429 -18 551 -18 q 168 87 267 -18 q 68 357 68 191 q 175 655 68 542 q 461 768 282 768 q 637 731 564 768 l 637 600 q 461 658 558 658 q 276 579 347 658 q 204 368 204 500 q 272 165 204 239 q 454 92 339 92 q 637 156 551 92 l 637 34 z "},"ϳ":{"ha":371,"x_min":-140,"x_max":272,"o":"m 103 1015 q 127 1074 103 1050 q 186 1098 151 1098 q 248 1074 223 1098 q 272 1015 272 1050 q 247 956 272 980 q 186 932 222 932 q 127 957 151 932 q 103 1015 103 981 m 252 29 q 176 -253 252 -153 q -39 -353 100 -353 q -140 -330 -90 -353 l -140 -210 q -39 -242 -87 -242 q 119 9 119 -242 l 119 750 l 252 750 l 252 29 z "},"ϴ":{"ha":1132,"x_min":68,"x_max":1065,"o":"m 68 513 q 206 917 68 765 q 578 1068 345 1068 q 930 921 795 1068 q 1065 538 1065 774 q 927 133 1065 283 q 562 -18 790 -18 q 204 130 340 -18 q 68 513 68 277 m 919 586 q 812 853 905 760 q 570 947 720 947 q 329 851 428 947 q 213 586 231 755 l 919 586 m 213 465 q 326 197 231 292 q 562 102 420 102 q 811 197 717 102 q 919 465 905 291 l 213 465 z "},"ϵ":{"ha":703,"x_min":68,"x_max":634,"o":"m 634 0 l 464 0 q 176 96 284 0 q 68 360 68 192 q 180 645 68 539 q 477 750 292 750 l 627 750 l 627 641 l 477 641 q 207 439 243 641 l 597 439 l 597 329 l 203 329 q 477 109 223 109 l 634 109 l 634 0 z "},"϶":{"ha":703,"x_min":69,"x_max":635,"o":"m 69 0 l 69 109 l 227 109 q 498 329 472 109 l 106 329 l 106 439 l 498 439 q 227 641 469 641 l 76 641 l 76 750 l 242 750 q 527 654 418 750 q 635 389 635 557 q 522 105 635 210 q 226 0 410 0 l 69 0 z "},"Ϸ":{"ha":850,"x_min":136,"x_max":792,"o":"m 271 229 l 271 0 l 136 0 l 136 1050 l 271 1050 l 271 886 l 434 886 q 698 805 604 886 q 792 570 792 724 q 686 324 792 419 q 405 229 580 229 l 271 229 m 271 768 l 271 349 l 397 349 q 650 563 650 349 q 410 768 650 768 l 271 768 z "},"ϸ":{"ha":887,"x_min":119,"x_max":819,"o":"m 252 106 l 252 -345 l 119 -345 l 119 1110 l 252 1110 l 252 621 l 254 621 q 512 768 342 768 q 738 667 656 768 q 819 397 819 566 q 727 96 819 210 q 477 -18 634 -18 q 254 106 333 -18 l 252 106 m 252 309 q 310 155 251 218 q 458 92 369 92 q 623 174 564 92 q 683 399 683 255 q 627 589 683 520 q 475 658 572 658 q 314 588 377 658 q 252 409 251 518 l 252 309 z "},"Ϲ":{"ha":929,"x_min":68,"x_max":854,"o":"m 854 43 q 564 -18 739 -18 q 203 126 338 -18 q 68 505 68 269 q 220 913 68 759 q 606 1068 372 1068 q 854 1025 756 1068 l 854 884 q 607 946 742 946 q 321 829 431 946 q 210 513 210 712 q 313 214 210 325 q 583 103 416 103 q 854 174 739 103 l 854 43 z "},"Ϻ":{"ha":1238,"x_min":136,"x_max":1102,"o":"m 1102 0 l 970 0 l 970 696 q 980 907 970 791 q 928 789 967 869 q 916 764 920 772 l 654 279 l 583 279 l 321 762 q 310 787 318 771 q 262 907 271 865 q 265 695 265 850 l 265 0 l 136 0 l 136 1050 l 305 1050 l 568 566 q 616 450 601 505 l 621 450 q 671 568 642 515 l 934 1050 l 1102 1050 l 1102 0 z "},"ϻ":{"ha":1066,"x_min":119,"x_max":947,"o":"m 817 0 l 817 439 q 820 635 817 551 q 783 569 808 602 l 567 264 l 498 264 l 286 565 q 248 635 257 606 q 249 439 249 604 l 249 -345 l 119 -345 l 119 750 l 289 750 l 481 475 q 538 389 522 418 q 595 475 575 450 l 791 750 l 947 750 l 947 0 l 817 0 z "},"Ё":{"ha":764,"x_min":136,"x_max":701,"o":"m 701 0 l 136 0 l 136 1050 l 677 1050 l 677 930 l 271 930 l 271 593 l 647 593 l 647 473 l 271 473 l 271 120 l 701 120 l 701 0 m 477 1218 q 499 1272 477 1251 q 552 1293 521 1293 q 607 1272 585 1293 q 630 1218 630 1250 q 607 1164 630 1185 q 553 1142 585 1142 q 499 1164 522 1142 q 477 1218 477 1186 m 187 1218 q 209 1272 187 1250 q 264 1293 231 1293 q 319 1271 296 1293 q 342 1218 342 1249 q 319 1164 342 1187 q 266 1142 297 1142 q 211 1164 235 1142 q 187 1218 187 1186 z "},"Ђ":{"ha":1060,"x_min":29,"x_max":973,"o":"m 570 125 q 685 101 617 101 q 794 150 753 101 q 836 284 836 199 q 776 438 836 384 q 606 492 716 492 l 429 492 l 429 0 l 294 0 l 294 930 l 29 930 l 29 1050 l 770 1050 l 770 930 l 429 930 l 429 608 l 614 608 q 877 523 780 608 q 973 286 973 437 q 900 66 973 145 q 692 -13 827 -13 q 570 5 624 -13 l 570 125 z "},"Ѓ":{"ha":714,"x_min":136,"x_max":690,"o":"m 595 1382 l 399 1142 l 298 1142 l 465 1382 l 595 1382 z "},"Є":{"ha":927,"x_min":68,"x_max":850,"o":"m 850 43 q 561 -18 734 -18 q 203 127 338 -18 q 68 507 68 272 q 211 912 68 757 q 582 1068 355 1068 q 850 1025 740 1068 l 850 884 q 583 947 732 947 q 331 850 431 947 q 214 585 232 754 l 671 585 l 671 465 l 212 465 q 322 191 225 280 q 573 102 419 102 q 850 172 734 102 l 850 43 z "},"Ѕ":{"ha":802,"x_min":87,"x_max":732,"o":"m 87 197 q 216 128 135 155 q 369 101 296 101 q 590 258 590 101 q 566 338 590 302 q 501 400 543 373 q 346 484 460 427 q 138 630 188 562 q 87 784 87 697 q 193 991 87 915 q 458 1068 298 1068 q 688 1030 614 1068 l 688 882 q 448 948 593 948 q 291 908 351 948 q 230 795 230 867 q 272 692 230 732 q 454 583 314 652 q 671 435 609 509 q 732 269 732 361 q 632 56 732 130 q 353 -18 532 -18 q 208 0 291 -18 q 87 43 125 17 l 87 197 z "},"І":{"ha":408,"x_min":35,"x_max":372,"o":"m 372 936 l 271 936 l 271 115 l 372 115 l 372 0 l 35 0 l 35 115 l 136 115 l 136 936 l 35 936 l 35 1050 l 372 1050 l 372 936 z "},"Ї":{"ha":408,"x_min":-16,"x_max":427,"o":"m 372 936 l 271 936 l 271 115 l 372 115 l 372 0 l 35 0 l 35 115 l 136 115 l 136 936 l 35 936 l 35 1050 l 372 1050 l 372 936 m 273 1265 q 295 1319 273 1298 q 349 1341 317 1341 q 404 1319 381 1341 q 427 1265 427 1297 q 404 1211 427 1233 q 350 1190 381 1190 q 296 1212 319 1190 q 273 1265 273 1234 m -16 1265 q 6 1319 -16 1297 q 60 1341 28 1341 q 115 1319 92 1341 q 138 1265 138 1297 q 116 1212 138 1234 q 62 1190 94 1190 q 7 1212 31 1190 q -16 1265 -16 1234 z "},"Ј":{"ha":550,"x_min":16,"x_max":423,"o":"m 423 381 q 342 86 423 191 q 123 -18 262 -18 q 16 1 58 -18 l 16 134 q 122 103 58 103 q 288 381 288 103 l 288 1050 l 423 1050 l 423 381 z "},"Љ":{"ha":1480,"x_min":12,"x_max":1412,"o":"m 882 609 l 1076 609 q 1325 533 1238 609 q 1412 317 1412 457 q 1319 85 1412 170 q 1066 0 1225 0 l 747 0 l 747 930 l 464 930 q 314 110 378 237 q 116 -17 249 -17 q 12 -1 61 -17 l 12 123 q 94 103 49 103 q 220 256 173 103 q 351 1050 267 409 l 882 1050 l 882 609 m 882 491 l 882 119 l 1047 119 q 1211 168 1153 119 q 1270 308 1270 217 q 1047 491 1270 491 l 882 491 z "},"Њ":{"ha":1486,"x_min":136,"x_max":1418,"o":"m 752 0 l 752 487 l 271 487 l 271 0 l 136 0 l 136 1050 l 271 1050 l 271 608 l 752 608 l 752 1050 l 888 1050 l 888 610 l 1082 610 q 1330 534 1242 610 q 1418 317 1418 458 q 1325 85 1418 170 q 1072 0 1232 0 l 752 0 m 888 491 l 888 119 l 1053 119 q 1218 169 1160 119 q 1276 309 1276 218 q 1054 491 1276 491 l 888 491 z "},"Ћ":{"ha":1097,"x_min":29,"x_max":1007,"o":"m 1007 0 l 871 0 l 871 282 q 666 493 871 493 l 467 493 l 467 0 l 331 0 l 331 930 l 29 930 l 29 1050 l 770 1050 l 770 930 l 467 930 l 467 612 l 672 612 q 1007 285 1007 612 l 1007 0 z "},"Ќ":{"ha":882,"x_min":136,"x_max":883,"o":"m 883 0 l 697 0 l 302 477 q 275 517 282 503 l 271 517 l 271 0 l 136 0 l 136 1050 l 271 1050 l 271 556 l 275 556 q 302 595 286 574 l 684 1050 l 851 1050 l 410 547 l 883 0 m 677 1382 l 481 1142 l 379 1142 l 546 1382 l 677 1382 z "},"Ў":{"ha":859,"x_min":41,"x_max":867,"o":"m 867 1050 l 543 319 q 371 49 452 116 q 195 -18 290 -18 q 64 4 119 -18 l 64 139 q 186 102 125 102 q 396 302 298 102 l 41 1050 l 195 1050 l 439 505 q 466 435 447 488 l 467 435 q 477 463 469 442 q 496 507 486 483 l 723 1050 l 867 1050 m 669 1332 q 602 1194 661 1246 q 460 1142 544 1142 q 316 1195 372 1142 q 257 1332 260 1247 l 336 1332 q 462 1219 347 1219 q 546 1250 512 1219 q 588 1332 581 1281 l 669 1332 z "},"Џ":{"ha":1072,"x_min":136,"x_max":939,"o":"m 939 0 l 597 0 l 597 -282 l 474 -282 l 474 0 l 136 0 l 136 1050 l 271 1050 l 271 121 l 803 121 l 803 1050 l 939 1050 l 939 0 z "},"А":{"ha":977,"x_min":16,"x_max":961,"o":"m 961 0 l 811 0 l 704 288 l 267 288 l 165 0 l 16 0 l 416 1050 l 561 1050 l 961 0 m 662 406 l 503 843 q 487 916 496 864 l 484 916 q 467 843 476 869 l 309 406 l 662 406 z "},"Б":{"ha":869,"x_min":136,"x_max":804,"o":"m 136 0 l 136 1050 l 709 1050 l 709 930 l 271 930 l 271 608 l 471 608 q 715 531 626 608 q 804 315 804 454 q 712 86 804 169 q 459 0 619 3 l 136 0 m 271 490 l 271 118 l 440 118 q 604 167 547 118 q 661 307 661 216 q 441 490 661 490 l 271 490 z "},"В":{"ha":871,"x_min":136,"x_max":799,"o":"m 136 0 l 136 1050 l 444 1050 q 665 984 583 1050 q 748 809 748 918 q 699 656 748 722 q 564 562 650 589 l 564 559 q 735 478 671 547 q 799 303 799 409 q 702 84 799 168 q 452 0 604 0 l 136 0 m 271 932 l 271 603 l 395 603 q 549 651 493 603 q 605 783 605 699 q 407 932 605 932 l 271 932 m 271 485 l 271 119 l 434 119 q 598 168 541 119 q 656 304 656 217 q 412 485 656 485 l 271 485 z "},"Г":{"ha":714,"x_min":136,"x_max":690,"o":"m 690 927 l 273 927 l 273 0 l 136 0 l 136 1050 l 690 1050 l 690 927 z "},"Д":{"ha":1054,"x_min":13,"x_max":1004,"o":"m 1004 -283 l 880 -283 l 880 0 l 137 0 l 137 -283 l 13 -283 l 13 121 l 96 121 q 276 576 205 322 q 354 1050 346 830 l 861 1050 l 861 121 l 1004 121 l 1004 -283 m 725 121 l 725 930 l 469 930 q 390 514 456 749 q 242 121 324 279 l 725 121 z "},"Е":{"ha":764,"x_min":136,"x_max":701,"o":"m 701 0 l 136 0 l 136 1050 l 677 1050 l 677 930 l 271 930 l 271 593 l 647 593 l 647 473 l 271 473 l 271 120 l 701 120 l 701 0 z "},"Ж":{"ha":1321,"x_min":-15,"x_max":1335,"o":"m 1335 0 l 1156 0 l 756 477 q 728 515 741 494 l 725 515 l 725 0 l 595 0 l 595 515 l 592 515 q 565 477 581 496 l 165 0 l -15 0 l 457 545 l 17 1050 l 182 1050 l 565 597 q 592 559 582 578 l 595 559 l 595 1050 l 725 1050 l 725 559 l 728 559 q 756 597 737 576 l 1139 1050 l 1303 1050 l 863 545 l 1335 0 z "},"З":{"ha":813,"x_min":68,"x_max":734,"o":"m 68 185 q 348 96 192 96 q 525 149 460 96 q 590 292 590 203 q 323 488 590 488 l 211 488 l 211 597 l 315 597 q 491 646 429 597 q 553 785 553 694 q 501 908 553 863 q 358 954 448 954 q 102 871 229 954 l 102 1004 q 372 1068 221 1068 q 610 997 522 1068 q 699 809 699 926 q 498 552 699 606 l 498 549 q 671 467 608 535 q 734 298 734 398 q 629 68 734 153 q 346 -18 524 -18 q 68 43 166 -18 l 68 185 z "},"И":{"ha":1131,"x_min":136,"x_max":994,"o":"m 994 0 l 859 0 l 859 739 q 867 886 859 835 l 862 886 q 826 817 845 846 l 298 0 l 136 0 l 136 1050 l 270 1050 l 270 328 q 264 175 270 210 l 267 175 q 310 248 279 201 l 825 1050 l 994 1050 l 994 0 z "},"Й":{"ha":1131,"x_min":136,"x_max":994,"o":"m 994 0 l 859 0 l 859 739 q 867 886 859 835 l 862 886 q 826 817 845 846 l 298 0 l 136 0 l 136 1050 l 270 1050 l 270 328 q 264 175 270 210 l 267 175 q 310 248 279 201 l 825 1050 l 994 1050 l 994 0 m 764 1332 q 696 1194 755 1246 q 554 1142 638 1142 q 410 1195 466 1142 q 351 1332 355 1247 l 431 1332 q 556 1219 441 1219 q 641 1250 606 1219 q 682 1332 675 1281 l 764 1332 z "},"К":{"ha":882,"x_min":136,"x_max":883,"o":"m 883 0 l 697 0 l 302 477 q 275 517 282 503 l 271 517 l 271 0 l 136 0 l 136 1050 l 271 1050 l 271 556 l 275 556 q 302 595 286 574 l 684 1050 l 851 1050 l 410 547 l 883 0 z "},"Л":{"ha":1019,"x_min":12,"x_max":882,"o":"m 882 0 l 747 0 l 747 930 l 464 930 q 314 113 379 243 q 115 -17 248 -17 q 12 -1 61 -17 l 12 123 q 94 103 50 103 q 222 265 176 103 q 351 1050 268 427 l 882 1050 l 882 0 z "},"М":{"ha":1357,"x_min":136,"x_max":1221,"o":"m 1086 0 l 1086 696 q 1096 903 1086 782 l 1093 903 q 1061 797 1075 827 l 715 0 l 640 0 l 294 791 q 262 903 281 818 l 258 903 q 265 690 265 829 l 265 0 l 136 0 l 136 1050 l 319 1050 l 629 330 q 676 201 665 248 l 681 201 q 730 333 716 298 l 1046 1050 l 1221 1050 l 1221 0 l 1086 0 z "},"Н":{"ha":1074,"x_min":136,"x_max":939,"o":"m 939 0 l 803 0 l 803 473 l 271 473 l 271 0 l 136 0 l 136 1050 l 271 1050 l 271 594 l 803 594 l 803 1050 l 939 1050 l 939 0 z "},"О":{"ha":1132,"x_min":68,"x_max":1065,"o":"m 68 513 q 205 918 68 767 q 578 1068 343 1068 q 931 921 798 1068 q 1065 538 1065 774 q 928 132 1065 282 q 562 -18 791 -18 q 203 130 338 -18 q 68 513 68 277 m 210 524 q 308 218 210 333 q 562 103 405 103 q 826 213 730 103 q 922 522 922 323 q 828 836 922 725 q 570 946 734 946 q 310 829 410 946 q 210 524 210 713 z "},"П":{"ha":1078,"x_min":136,"x_max":945,"o":"m 945 0 l 808 0 l 808 926 l 273 926 l 273 0 l 136 0 l 136 1050 l 945 1050 l 945 0 z "},"Р":{"ha":850,"x_min":136,"x_max":792,"o":"m 271 393 l 271 0 l 136 0 l 136 1050 l 434 1050 q 698 968 604 1050 q 792 734 792 886 q 682 483 792 579 q 408 393 572 387 l 271 393 m 271 931 l 271 512 l 397 512 q 585 568 521 512 q 650 728 650 624 q 410 931 650 931 l 271 931 z "},"С":{"ha":929,"x_min":68,"x_max":854,"o":"m 854 43 q 564 -18 739 -18 q 203 126 338 -18 q 68 505 68 269 q 220 913 68 759 q 606 1068 372 1068 q 854 1025 756 1068 l 854 884 q 607 946 742 946 q 321 829 431 946 q 210 513 210 712 q 313 214 210 325 q 583 103 416 103 q 854 174 739 103 l 854 43 z "},"Т":{"ha":796,"x_min":29,"x_max":770,"o":"m 770 930 l 467 930 l 467 0 l 331 0 l 331 930 l 29 930 l 29 1050 l 770 1050 l 770 930 z "},"У":{"ha":859,"x_min":41,"x_max":867,"o":"m 867 1050 l 543 319 q 371 49 452 116 q 195 -18 290 -18 q 64 4 119 -18 l 64 139 q 186 102 125 102 q 396 302 298 102 l 41 1050 l 195 1050 l 439 505 q 466 435 447 488 l 467 435 q 477 463 469 442 q 496 507 486 483 l 723 1050 l 867 1050 z "},"Ф":{"ha":1109,"x_min":67,"x_max":1052,"o":"m 623 135 l 623 -1 l 496 -1 l 496 135 l 475 135 q 184 255 300 135 q 67 551 67 374 q 184 835 67 722 q 477 948 301 948 l 496 948 l 496 1079 l 623 1079 l 623 948 l 642 948 q 936 836 821 948 q 1052 551 1052 724 q 935 255 1052 376 q 643 135 817 135 l 623 135 m 623 836 l 623 252 l 641 252 q 837 334 764 252 q 910 549 910 416 q 837 756 910 677 q 640 836 763 836 l 623 836 m 496 252 l 496 836 l 478 836 q 283 756 357 836 q 209 549 209 675 q 282 333 209 414 q 477 252 356 252 l 496 252 z "},"Х":{"ha":896,"x_min":18,"x_max":876,"o":"m 876 0 l 711 0 l 476 395 q 452 450 468 409 l 449 450 q 425 395 448 444 l 183 0 l 18 0 l 367 528 l 45 1050 l 212 1050 l 419 687 q 456 612 437 655 l 458 612 q 498 690 475 649 l 715 1050 l 871 1050 l 543 530 l 876 0 z "},"Ц":{"ha":1127,"x_min":136,"x_max":1080,"o":"m 1080 -283 l 956 -283 l 956 0 l 136 0 l 136 1050 l 271 1050 l 271 121 l 803 121 l 803 1050 l 939 1050 l 939 121 l 1080 121 l 1080 -283 z "},"Ч":{"ha":1002,"x_min":119,"x_max":858,"o":"m 858 0 l 722 0 l 722 467 q 412 378 555 378 q 195 450 271 378 q 119 655 119 522 l 119 1050 l 255 1050 l 255 662 q 432 497 255 497 q 722 576 562 497 l 722 1050 l 858 1050 l 858 0 z "},"Ш":{"ha":1434,"x_min":136,"x_max":1297,"o":"m 1297 0 l 136 0 l 136 1050 l 271 1050 l 271 121 l 648 121 l 648 1050 l 783 1050 l 783 121 l 1161 121 l 1161 1050 l 1297 1050 l 1297 0 z "},"Щ":{"ha":1485,"x_min":136,"x_max":1439,"o":"m 1439 -283 l 1316 -283 l 1316 0 l 136 0 l 136 1050 l 271 1050 l 271 121 l 648 121 l 648 1050 l 784 1050 l 784 121 l 1161 121 l 1161 1050 l 1297 1050 l 1297 121 l 1439 121 l 1439 -283 z "},"Ъ":{"ha":1067,"x_min":29,"x_max":998,"o":"m 331 0 l 331 928 l 29 928 l 29 1050 l 467 1050 l 467 611 l 662 611 q 910 535 822 611 q 998 317 998 459 q 905 85 998 170 q 650 0 811 0 l 331 0 m 467 492 l 467 119 l 633 119 q 798 169 740 119 q 856 309 856 218 q 633 492 856 492 l 467 492 z "},"Ы":{"ha":1194,"x_min":136,"x_max":1058,"o":"m 1058 0 l 922 0 l 922 1050 l 1058 1050 l 1058 0 m 136 0 l 136 1050 l 271 1050 l 271 611 l 466 611 q 714 534 626 611 q 802 317 802 458 q 709 85 802 171 q 455 0 615 0 l 136 0 m 271 492 l 271 119 l 437 119 q 602 169 545 119 q 659 309 659 218 q 437 492 659 492 l 271 492 z "},"Ь":{"ha":872,"x_min":136,"x_max":802,"o":"m 136 0 l 136 1050 l 271 1050 l 271 611 l 466 611 q 714 534 626 611 q 802 317 802 458 q 709 86 802 172 q 455 0 616 0 l 136 0 m 271 492 l 271 119 l 437 119 q 602 169 545 119 q 659 309 659 218 q 437 492 659 492 l 271 492 z "},"Э":{"ha":926,"x_min":75,"x_max":858,"o":"m 75 172 q 353 102 191 102 q 602 197 505 102 q 713 467 699 291 l 254 467 l 254 586 l 711 586 q 595 851 692 756 q 344 947 498 947 q 75 885 196 947 l 75 1023 q 347 1068 189 1068 q 717 916 576 1068 q 858 511 858 763 q 721 130 858 277 q 361 -18 583 -18 q 75 43 192 -18 l 75 172 z "},"Ю":{"ha":1535,"x_min":136,"x_max":1467,"o":"m 271 485 l 271 0 l 136 0 l 136 1050 l 271 1050 l 271 605 l 516 605 q 670 946 541 825 q 1000 1068 800 1068 q 1339 923 1211 1068 q 1467 538 1467 779 q 1337 132 1467 281 q 982 -18 1206 -18 q 650 117 779 -18 q 511 485 522 252 l 271 485 m 653 528 q 740 214 653 326 q 983 103 827 103 q 1234 213 1144 103 q 1324 522 1324 322 q 1239 835 1324 724 q 996 946 1154 946 q 745 835 836 946 q 653 528 653 724 z "},"Я":{"ha":895,"x_min":41,"x_max":758,"o":"m 758 0 l 622 0 l 622 443 l 479 443 q 402 418 435 443 q 331 312 369 393 l 201 0 l 41 0 l 199 347 q 326 478 245 448 l 326 481 q 160 578 217 506 q 102 753 102 650 q 197 969 102 888 q 447 1050 292 1050 l 758 1050 l 758 0 m 622 562 l 622 931 l 460 931 q 302 884 358 931 q 247 749 247 836 q 304 612 247 662 q 457 562 361 562 l 622 562 z "},"а":{"ha":768,"x_min":63,"x_max":666,"o":"m 136 698 q 395 768 248 768 q 666 483 666 768 l 666 0 l 534 0 l 534 116 l 531 116 q 301 -18 453 -18 q 127 41 192 -18 q 63 201 63 100 q 312 446 63 411 l 534 477 q 382 661 534 661 q 136 570 248 661 l 136 698 m 359 353 q 232 307 267 340 q 197 212 197 273 q 235 124 197 158 q 335 90 273 90 q 478 151 422 90 q 534 304 534 212 l 534 376 l 359 353 z "},"б":{"ha":873,"x_min":84,"x_max":804,"o":"m 709 1000 q 612 966 676 977 q 382 919 444 941 q 278 828 320 897 q 222 610 235 758 l 226 610 q 473 733 313 733 q 713 631 622 733 q 804 365 804 530 q 707 88 804 193 q 448 -18 610 -18 q 179 106 273 -18 q 84 457 84 229 q 119 758 84 635 q 213 942 154 880 q 346 1027 272 1004 q 604 1083 420 1051 q 709 1120 675 1099 l 709 1000 m 221 486 q 226 316 221 359 q 260 214 231 272 q 340 124 290 157 q 451 92 390 92 q 607 165 545 92 q 669 352 669 237 q 607 550 669 475 q 441 624 545 624 q 221 486 296 624 z "},"в":{"ha":803,"x_min":119,"x_max":726,"o":"m 119 0 l 119 750 l 456 750 q 634 700 570 750 q 698 567 698 650 q 553 391 698 422 q 726 217 726 368 q 654 62 726 123 q 477 0 582 0 l 119 0 m 252 643 l 252 438 l 424 438 q 565 547 565 438 q 438 643 565 643 l 252 643 m 252 332 l 252 107 l 451 107 q 593 222 593 107 q 435 332 593 332 l 252 332 z "},"г":{"ha":579,"x_min":119,"x_max":544,"o":"m 544 640 l 251 640 l 251 0 l 119 0 l 119 750 l 544 750 l 544 640 z "},"д":{"ha":833,"x_min":13,"x_max":789,"o":"m 789 -273 l 677 -273 l 677 0 l 125 0 l 125 -273 l 13 -273 l 13 109 l 80 109 q 271 750 268 382 l 677 750 l 677 109 l 789 109 l 789 -273 m 544 109 l 544 642 l 383 642 q 218 109 364 346 l 544 109 z "},"е":{"ha":788,"x_min":68,"x_max":730,"o":"m 730 341 l 205 341 q 271 156 208 221 q 445 90 333 90 q 676 171 571 90 l 676 52 q 414 -18 577 -18 q 160 85 251 -18 q 68 372 68 189 q 169 656 68 544 q 417 768 269 768 q 647 673 564 768 q 730 408 730 578 l 730 341 m 597 448 q 549 605 596 549 q 415 661 501 661 q 278 602 336 661 q 205 448 220 543 l 597 448 z "},"ж":{"ha":1137,"x_min":3,"x_max":1135,"o":"m 1135 0 l 960 0 l 635 371 l 631 371 l 631 0 l 505 0 l 505 371 l 502 371 l 176 0 l 3 0 l 366 387 l 24 750 l 191 750 l 502 399 l 505 399 l 505 750 l 631 750 l 631 399 l 635 399 l 946 750 l 1114 750 l 770 387 l 1135 0 z "},"з":{"ha":675,"x_min":58,"x_max":613,"o":"m 58 144 q 286 90 159 90 q 480 212 480 90 q 268 332 480 332 l 191 332 l 191 439 l 265 439 q 451 553 451 439 q 408 632 451 603 q 291 661 366 661 q 74 606 184 661 l 74 724 q 304 768 200 768 q 584 567 584 768 q 543 454 584 501 q 427 392 503 408 l 427 388 q 562 332 510 382 q 613 206 613 282 q 529 43 613 103 q 296 -18 445 -18 q 58 21 142 -18 l 58 144 z "},"и":{"ha":880,"x_min":119,"x_max":760,"o":"m 760 0 l 640 0 l 640 586 q 590 496 635 574 l 254 0 l 119 0 l 119 750 l 240 750 l 240 172 q 279 246 256 206 l 624 750 l 760 750 l 760 0 z "},"й":{"ha":880,"x_min":119,"x_max":760,"o":"m 760 0 l 640 0 l 640 586 q 590 496 635 574 l 254 0 l 119 0 l 119 750 l 240 750 l 240 172 q 279 246 256 206 l 624 750 l 760 750 l 760 0 m 648 1079 q 581 941 639 993 q 438 889 522 889 q 294 942 350 889 q 235 1079 239 994 l 315 1079 q 440 966 325 966 q 525 997 490 966 q 566 1079 559 1028 l 648 1079 z "},"к":{"ha":756,"x_min":119,"x_max":755,"o":"m 755 0 l 575 0 l 254 361 l 251 361 l 251 0 l 119 0 l 119 750 l 251 750 l 251 406 l 254 406 l 559 750 l 730 750 l 391 389 l 755 0 z "},"л":{"ha":803,"x_min":12,"x_max":684,"o":"m 684 0 l 552 0 l 552 642 l 383 642 q 280 138 353 287 q 79 -10 207 -10 q 12 1 39 -10 l 12 110 q 67 97 37 97 q 273 750 227 97 l 684 750 l 684 0 z "},"м":{"ha":1066,"x_min":119,"x_max":947,"o":"m 947 0 l 817 0 l 817 614 q 768 476 802 568 l 586 0 l 467 0 l 279 476 q 231 614 263 517 l 231 0 l 119 0 l 119 750 l 289 750 l 481 267 q 533 121 490 245 q 584 265 537 134 l 770 750 l 947 750 l 947 0 z "},"н":{"ha":872,"x_min":119,"x_max":753,"o":"m 753 0 l 620 0 l 620 337 l 251 337 l 251 0 l 119 0 l 119 750 l 251 750 l 251 446 l 620 446 l 620 750 l 753 750 l 753 0 z "},"о":{"ha":883,"x_min":68,"x_max":814,"o":"m 68 367 q 172 660 68 553 q 454 768 276 768 q 719 664 623 768 q 814 378 814 561 q 712 92 814 201 q 437 -18 610 -18 q 169 88 269 -18 q 68 367 68 194 m 204 371 q 270 167 204 241 q 446 92 335 92 q 619 165 559 92 q 679 374 679 238 q 619 585 679 511 q 446 658 559 658 q 269 581 334 658 q 204 371 204 505 z "},"п":{"ha":872,"x_min":119,"x_max":753,"o":"m 753 0 l 620 0 l 620 641 l 251 641 l 251 0 l 119 0 l 119 750 l 753 750 l 753 0 z "},"р":{"ha":887,"x_min":119,"x_max":819,"o":"m 252 106 l 252 -345 l 119 -345 l 119 750 l 252 750 l 252 621 l 254 621 q 512 768 342 768 q 738 667 656 768 q 819 397 819 566 q 727 96 819 210 q 477 -18 634 -18 q 254 106 333 -18 l 252 106 m 251 309 q 310 155 251 218 q 458 92 369 92 q 623 174 564 92 q 683 399 683 255 q 627 589 683 520 q 475 658 572 658 q 314 588 377 658 q 251 409 251 518 l 251 309 z "},"с":{"ha":696,"x_min":68,"x_max":637,"o":"m 637 34 q 429 -18 551 -18 q 168 87 267 -18 q 68 357 68 191 q 175 655 68 542 q 461 768 282 768 q 637 731 564 768 l 637 600 q 461 658 558 658 q 276 579 347 658 q 204 368 204 500 q 272 165 204 239 q 454 92 339 92 q 637 156 551 92 l 637 34 z "},"т":{"ha":623,"x_min":22,"x_max":600,"o":"m 600 640 l 378 640 l 378 0 l 245 0 l 245 640 l 22 640 l 22 750 l 600 750 l 600 640 z "},"у":{"ha":735,"x_min":9,"x_max":729,"o":"m 729 750 l 389 -113 q 121 -353 294 -353 q 36 -342 71 -353 l 36 -226 q 111 -241 75 -241 q 245 -135 201 -241 l 303 1 l 9 750 l 156 750 l 352 186 l 368 125 l 372 125 q 388 185 376 146 l 593 750 l 729 750 z "},"ф":{"ha":1046,"x_min":68,"x_max":977,"o":"m 583 -17 l 583 -353 l 462 -353 l 462 -17 l 437 -17 q 171 89 273 -17 q 68 367 68 195 q 172 658 68 549 q 443 767 275 767 l 462 767 l 462 1069 l 583 1069 l 583 767 l 601 767 q 874 658 770 767 q 977 367 977 549 q 875 90 977 196 q 610 -17 773 -17 l 583 -17 m 583 659 l 583 92 l 598 92 q 775 169 710 92 q 841 370 841 245 q 776 582 841 506 q 602 659 711 659 l 583 659 m 462 92 l 462 659 l 445 659 q 269 581 334 659 q 203 370 203 503 q 271 168 203 243 q 448 92 338 92 l 462 92 z "},"х":{"ha":704,"x_min":18,"x_max":686,"o":"m 686 750 l 435 372 l 683 0 l 528 0 l 385 239 q 353 297 374 258 l 350 297 q 316 239 349 293 l 170 0 l 18 0 l 273 368 l 29 750 l 184 750 l 324 499 q 355 439 337 476 l 358 439 l 541 750 l 686 750 z "},"ц":{"ha":909,"x_min":119,"x_max":864,"o":"m 864 -273 l 751 -273 l 751 0 l 119 0 l 119 750 l 251 750 l 251 109 l 620 109 l 620 750 l 753 750 l 753 109 l 864 109 l 864 -273 z "},"ч":{"ha":854,"x_min":109,"x_max":734,"o":"m 734 0 l 602 0 l 602 297 q 361 226 473 226 q 109 491 109 226 l 109 750 l 240 750 l 240 501 q 378 342 240 342 q 602 403 484 342 l 602 750 l 734 750 l 734 0 z "},"ш":{"ha":1211,"x_min":119,"x_max":1091,"o":"m 1091 0 l 119 0 l 119 750 l 251 750 l 251 109 l 539 109 l 539 750 l 671 750 l 671 109 l 959 109 l 959 750 l 1091 750 l 1091 0 z "},"щ":{"ha":1249,"x_min":119,"x_max":1205,"o":"m 1205 -273 l 1091 -273 l 1091 0 l 119 0 l 119 750 l 251 750 l 251 109 l 538 109 l 538 750 l 671 750 l 671 109 l 960 109 l 960 750 l 1092 750 l 1092 109 l 1205 109 l 1205 -273 z "},"ъ":{"ha":896,"x_min":22,"x_max":836,"o":"m 248 0 l 248 640 l 22 640 l 22 750 l 381 750 l 381 465 l 583 465 q 768 404 701 465 q 836 237 836 342 q 767 65 836 131 q 593 0 699 0 l 248 0 m 381 357 l 381 107 l 553 107 q 699 236 699 107 q 553 357 699 357 l 381 357 z "},"ы":{"ha":1082,"x_min":119,"x_max":962,"o":"m 962 0 l 831 0 l 831 750 l 962 750 l 962 0 m 119 0 l 119 750 l 251 750 l 251 465 l 453 465 q 637 405 568 465 q 706 237 706 345 q 637 63 706 127 q 463 0 568 0 l 119 0 m 251 357 l 251 107 l 424 107 q 570 236 570 107 q 423 357 570 357 l 251 357 z "},"ь":{"ha":766,"x_min":119,"x_max":706,"o":"m 119 0 l 119 750 l 251 750 l 251 465 l 453 465 q 637 405 568 465 q 706 237 706 345 q 637 63 706 127 q 463 0 568 0 l 119 0 m 251 357 l 251 107 l 424 107 q 570 236 570 107 q 423 357 570 357 l 251 357 z "},"э":{"ha":696,"x_min":64,"x_max":633,"o":"m 64 152 q 258 90 149 90 q 425 152 361 90 q 496 324 488 214 l 181 324 l 181 431 l 496 431 q 422 600 486 540 q 254 660 359 660 q 73 604 150 660 l 73 728 q 258 768 152 768 q 536 664 439 768 q 633 369 633 559 q 532 87 633 193 q 267 -18 431 -18 q 64 33 151 -18 l 64 152 z "},"ю":{"ha":1232,"x_min":119,"x_max":1161,"o":"m 251 336 l 251 0 l 119 0 l 119 750 l 251 750 l 251 446 l 459 446 q 576 684 480 600 q 818 768 671 768 q 1071 666 981 768 q 1161 378 1161 564 q 1065 89 1161 196 q 802 -18 969 -18 q 556 74 646 -18 q 458 336 467 166 l 251 336 m 591 374 q 811 92 591 92 q 1026 374 1026 92 q 808 658 1026 658 q 591 374 591 658 z "},"я":{"ha":765,"x_min":43,"x_max":648,"o":"m 648 0 l 515 0 l 515 307 l 420 307 q 292 191 350 307 l 196 0 l 43 0 l 168 229 q 277 338 212 313 q 143 402 189 350 q 96 534 96 454 q 171 693 96 637 q 376 750 245 750 l 648 750 l 648 0 m 515 412 l 515 643 l 380 643 q 232 530 232 643 q 376 412 232 412 l 515 412 z "},"ё":{"ha":788,"x_min":68,"x_max":730,"o":"m 730 341 l 205 341 q 271 156 208 221 q 445 90 333 90 q 676 171 571 90 l 676 52 q 414 -18 577 -18 q 160 85 251 -18 q 68 372 68 189 q 169 656 68 544 q 417 768 269 768 q 647 673 564 768 q 730 408 730 578 l 730 341 m 597 448 q 549 605 596 549 q 415 661 501 661 q 278 602 336 661 q 205 448 220 543 l 597 448 m 482 965 q 504 1019 482 998 q 557 1040 526 1040 q 613 1019 590 1040 q 635 965 635 997 q 613 911 635 932 q 559 889 590 889 q 505 911 528 889 q 482 965 482 933 m 193 965 q 215 1019 193 997 q 269 1040 237 1040 q 324 1018 301 1040 q 347 965 347 996 q 325 911 347 934 q 271 889 302 889 q 216 911 240 889 q 193 965 193 933 z "},"ђ":{"ha":873,"x_min":28,"x_max":775,"o":"m 349 -165 q 439 -191 397 -191 q 587 -106 533 -191 q 641 281 641 -22 q 456 637 641 637 q 316 571 374 637 q 258 408 258 505 l 258 0 l 126 0 l 126 878 l 28 878 l 28 979 l 126 979 l 126 1110 l 258 1110 l 258 979 l 503 979 l 503 878 l 258 878 l 258 608 l 261 608 q 492 749 338 749 q 775 283 775 749 q 691 -181 775 -56 q 439 -306 607 -306 q 349 -288 397 -306 l 349 -165 z "},"ѓ":{"ha":579,"x_min":119,"x_max":544,"o":"m 544 640 l 251 640 l 251 0 l 119 0 l 119 750 l 544 750 l 544 640 m 519 1129 l 323 889 l 221 889 l 388 1129 l 519 1129 z "},"є":{"ha":696,"x_min":68,"x_max":636,"o":"m 636 33 q 433 -18 550 -18 q 167 87 265 -18 q 68 365 68 191 q 171 661 68 554 q 452 768 274 768 q 629 731 553 768 l 629 606 q 450 660 555 660 q 280 598 346 660 q 205 431 215 537 l 519 431 l 519 324 l 203 324 q 276 152 212 214 q 443 90 340 90 q 636 155 549 90 l 636 33 z "},"ѕ":{"ha":643,"x_min":77,"x_max":583,"o":"m 77 162 q 293 90 177 90 q 448 191 448 90 q 414 263 448 235 q 277 330 380 291 q 115 429 152 380 q 77 548 77 478 q 162 708 77 648 q 370 768 246 768 q 547 734 465 768 l 547 606 q 357 661 463 661 q 253 633 293 661 q 213 559 213 605 q 242 490 213 515 q 370 425 271 465 q 539 328 495 378 q 583 204 583 278 q 499 42 583 101 q 280 -18 414 -18 q 77 26 163 -18 l 77 162 z "},"і":{"ha":370,"x_min":102,"x_max":271,"o":"m 102 1015 q 126 1074 102 1050 q 186 1098 151 1098 q 247 1074 222 1098 q 271 1015 271 1050 q 247 956 271 979 q 186 932 222 932 q 126 956 150 932 q 102 1015 102 979 m 118 0 l 118 750 l 251 750 l 251 0 l 118 0 z "},"ї":{"ha":370,"x_min":-36,"x_max":407,"o":"m 118 0 l 118 750 l 251 750 l 251 0 l 118 0 m 254 965 q 276 1019 254 998 q 329 1040 298 1040 q 384 1019 361 1040 q 407 965 407 997 q 384 911 407 932 q 330 889 361 889 q 276 911 299 889 q 254 965 254 933 m -36 965 q -14 1019 -36 997 q 41 1040 8 1040 q 96 1018 73 1040 q 119 965 119 996 q 96 911 119 934 q 43 889 74 889 q -12 911 12 889 q -36 965 -36 933 z "},"ј":{"ha":371,"x_min":-140,"x_max":272,"o":"m 103 1015 q 127 1074 103 1050 q 186 1098 151 1098 q 248 1074 223 1098 q 272 1015 272 1050 q 247 956 272 980 q 186 932 222 932 q 127 957 151 932 q 103 1015 103 981 m 252 29 q 176 -253 252 -153 q -39 -353 100 -353 q -140 -330 -90 -353 l -140 -210 q -39 -242 -87 -242 q 119 9 119 -242 l 119 750 l 252 750 l 252 29 z "},"љ":{"ha":1200,"x_min":12,"x_max":1139,"o":"m 552 0 l 552 642 l 383 642 q 286 150 355 311 q 79 -10 216 -10 q 12 1 39 -10 l 12 110 q 67 97 37 97 q 273 750 225 97 l 684 750 l 684 464 l 886 464 q 1071 404 1003 464 q 1139 235 1139 343 q 1072 65 1139 131 q 896 0 1004 0 l 552 0 m 684 355 l 684 107 l 857 107 q 1003 235 1003 107 q 856 355 1003 355 l 684 355 z "},"њ":{"ha":1219,"x_min":119,"x_max":1152,"o":"m 565 0 l 565 346 l 251 346 l 251 0 l 119 0 l 119 750 l 251 750 l 251 456 l 565 456 l 565 750 l 698 750 l 698 456 l 899 456 q 1085 398 1019 456 q 1152 232 1152 340 q 1084 62 1152 123 q 909 0 1017 0 l 565 0 m 698 348 l 698 108 l 871 108 q 1016 232 1016 108 q 869 348 1016 348 l 698 348 z "},"ћ":{"ha":859,"x_min":22,"x_max":755,"o":"m 755 0 l 623 0 l 623 429 q 454 656 623 656 q 312 590 369 656 q 254 423 254 524 l 254 0 l 122 0 l 122 878 l 22 878 l 22 979 l 122 979 l 122 1110 l 254 1110 l 254 979 l 498 979 l 498 878 l 254 878 l 254 625 l 258 625 q 502 766 345 766 q 755 460 755 766 l 755 0 z "},"ќ":{"ha":756,"x_min":119,"x_max":755,"o":"m 755 0 l 575 0 l 254 361 l 251 361 l 251 0 l 119 0 l 119 750 l 251 750 l 251 406 l 254 406 l 559 750 l 730 750 l 391 389 l 755 0 m 582 1129 l 386 889 l 284 889 l 451 1129 l 582 1129 z "},"ў":{"ha":735,"x_min":9,"x_max":729,"o":"m 729 750 l 389 -113 q 121 -353 294 -353 q 36 -342 71 -353 l 36 -226 q 111 -241 75 -241 q 245 -135 201 -241 l 303 1 l 9 750 l 156 750 l 352 186 l 368 125 l 372 125 q 388 185 376 146 l 593 750 l 729 750 m 582 1079 q 515 941 573 993 q 372 889 456 889 q 229 942 284 889 q 170 1079 173 994 l 249 1079 q 374 966 259 966 q 459 997 425 966 q 500 1079 493 1028 l 582 1079 z "},"џ":{"ha":872,"x_min":119,"x_max":753,"o":"m 753 0 l 493 0 l 493 -273 l 379 -273 l 379 0 l 119 0 l 119 750 l 251 750 l 251 109 l 620 109 l 620 750 l 753 750 l 753 0 z "},"Ґ":{"ha":711,"x_min":136,"x_max":690,"o":"m 690 930 l 271 930 l 271 0 l 136 0 l 136 1050 l 574 1050 l 574 1243 l 690 1243 l 690 930 z "},"ґ":{"ha":593,"x_min":119,"x_max":551,"o":"m 551 640 l 251 640 l 251 0 l 119 0 l 119 750 l 437 750 l 437 947 l 551 947 l 551 640 z "},"ḿ":{"ha":1389,"x_min":153,"x_max":1232,"o":"m 1232 0 l 1099 0 l 1099 431 q 1061 605 1099 553 q 937 658 1023 658 q 811 589 863 658 q 759 427 759 521 l 759 0 l 626 0 l 626 444 q 461 658 626 658 q 335 593 385 658 q 286 427 286 528 l 286 0 l 153 0 l 153 750 l 286 750 l 286 631 l 288 631 q 522 768 368 768 q 655 726 597 768 q 735 614 713 685 q 985 768 819 768 q 1232 463 1232 768 l 1232 0 m 899 1129 l 703 889 l 601 889 l 768 1129 l 899 1129 z "},"Ẁ":{"ha":1413,"x_min":18,"x_max":1396,"o":"m 1396 1050 l 1101 0 l 943 0 l 732 757 q 715 865 718 808 l 712 865 q 693 758 708 809 l 479 0 l 323 0 l 18 1050 l 168 1050 l 382 257 q 399 149 397 203 l 404 149 q 426 257 407 190 l 653 1050 l 787 1050 l 1004 251 q 1021 151 1015 212 l 1024 151 q 1044 254 1027 195 l 1250 1050 l 1396 1050 m 848 1144 l 747 1144 l 551 1384 l 683 1384 l 848 1144 z "},"ẁ":{"ha":1097,"x_min":17,"x_max":1080,"o":"m 1080 750 l 856 0 l 718 0 l 568 526 q 556 598 559 560 l 553 598 q 538 528 551 570 l 376 0 l 242 0 l 17 750 l 155 750 l 305 194 q 315 125 312 169 l 321 125 q 334 196 323 163 l 495 750 l 618 750 l 775 193 q 786 124 782 169 l 792 124 q 804 193 793 154 l 951 750 l 1080 750 m 675 889 l 574 889 l 378 1129 l 511 1129 l 675 889 z "},"Ẃ":{"ha":1413,"x_min":18,"x_max":1396,"o":"m 1396 1050 l 1101 0 l 943 0 l 732 757 q 715 865 718 808 l 712 865 q 693 758 708 809 l 479 0 l 323 0 l 18 1050 l 168 1050 l 382 257 q 399 149 397 203 l 404 149 q 426 257 407 190 l 653 1050 l 787 1050 l 1004 251 q 1021 151 1015 212 l 1024 151 q 1044 254 1027 195 l 1250 1050 l 1396 1050 m 882 1384 l 686 1144 l 585 1144 l 751 1384 l 882 1384 z "},"ẃ":{"ha":1097,"x_min":17,"x_max":1080,"o":"m 1080 750 l 856 0 l 718 0 l 568 526 q 556 598 559 560 l 553 598 q 538 528 551 570 l 376 0 l 242 0 l 17 750 l 155 750 l 305 194 q 315 125 312 169 l 321 125 q 334 196 323 163 l 495 750 l 618 750 l 775 193 q 786 124 782 169 l 792 124 q 804 193 793 154 l 951 750 l 1080 750 m 721 1129 l 525 889 l 423 889 l 590 1129 l 721 1129 z "},"Ẅ":{"ha":1413,"x_min":18,"x_max":1396,"o":"m 1396 1050 l 1101 0 l 943 0 l 732 757 q 715 865 718 808 l 712 865 q 693 758 708 809 l 479 0 l 323 0 l 18 1050 l 168 1050 l 382 257 q 399 149 397 203 l 404 149 q 426 257 407 190 l 653 1050 l 787 1050 l 1004 251 q 1021 151 1015 212 l 1024 151 q 1044 254 1027 195 l 1250 1050 l 1396 1050 m 788 1221 q 810 1275 788 1253 q 863 1296 832 1296 q 919 1274 896 1296 q 941 1221 941 1253 q 919 1166 941 1188 q 865 1145 896 1145 q 811 1167 833 1145 q 788 1221 788 1189 m 498 1221 q 520 1274 498 1253 q 575 1296 543 1296 q 630 1274 607 1296 q 653 1221 653 1252 q 631 1167 653 1190 q 577 1145 608 1145 q 522 1167 546 1145 q 498 1221 498 1189 z "},"ẅ":{"ha":1097,"x_min":17,"x_max":1080,"o":"m 1080 750 l 856 0 l 718 0 l 568 526 q 556 598 559 560 l 553 598 q 538 528 551 570 l 376 0 l 242 0 l 17 750 l 155 750 l 305 194 q 315 125 312 169 l 321 125 q 334 196 323 163 l 495 750 l 618 750 l 775 193 q 786 124 782 169 l 792 124 q 804 193 793 154 l 951 750 l 1080 750 m 631 965 q 653 1019 631 998 q 706 1040 675 1040 q 761 1019 739 1040 q 784 965 784 997 q 761 911 784 932 q 707 889 739 889 q 653 911 676 889 q 631 965 631 933 m 341 965 q 363 1019 341 997 q 418 1040 385 1040 q 473 1018 450 1040 q 496 965 496 996 q 473 911 496 934 q 420 889 451 889 q 365 911 389 889 q 341 965 341 933 z "},"Ỳ":{"ha":838,"x_min":12,"x_max":831,"o":"m 831 1050 l 485 387 l 485 0 l 349 0 l 349 383 l 12 1050 l 167 1050 l 394 585 q 419 518 395 585 l 421 518 q 449 585 429 547 l 686 1050 l 831 1050 m 536 1144 l 435 1144 l 239 1384 l 371 1384 l 536 1144 z "},"ỳ":{"ha":735,"x_min":9,"x_max":729,"o":"m 729 750 l 389 -113 q 121 -353 294 -353 q 36 -342 71 -353 l 36 -226 q 111 -241 75 -241 q 245 -135 201 -241 l 303 1 l 9 750 l 156 750 l 352 186 l 368 125 l 372 125 q 388 185 376 146 l 593 750 l 729 750 m 471 889 l 370 889 l 174 1129 l 307 1129 l 471 889 z "}," ":{"ha":174,"x_min":0,"x_max":0,"o":""},"‐":{"ha":601,"x_min":106,"x_max":505,"o":"m 505 365 l 106 365 l 106 467 l 505 467 l 505 365 z "},"–":{"ha":750,"x_min":0,"x_max":750,"o":"m 750 365 l 0 365 l 0 467 l 750 467 l 750 365 z "},"—":{"ha":1500,"x_min":0,"x_max":1500,"o":"m 1500 365 l 0 365 l 0 467 l 1500 467 l 1500 365 z "},"―":{"ha":623,"x_min":0,"x_max":623,"o":"m 623 1023 l 0 1023 l 0 1110 l 623 1110 l 623 1023 z "},"‖":{"ha":817,"x_min":153,"x_max":665,"o":"m 153 -353 l 153 1147 l 256 1147 l 256 -353 l 153 -353 m 562 -353 l 562 1147 l 665 1147 l 665 -353 l 562 -353 z "},"‘":{"ha":318,"x_min":38,"x_max":237,"o":"m 237 1069 l 158 742 l 38 742 l 145 1069 l 237 1069 z "},"’":{"ha":318,"x_min":81,"x_max":280,"o":"m 280 1069 l 173 742 l 81 742 l 160 1069 l 280 1069 z "},"‚":{"ha":694,"x_min":64,"x_max":264,"o":"m 264 159 l 157 -167 l 64 -167 l 146 159 l 264 159 z "},"‛":{"ha":354,"x_min":81,"x_max":280,"o":"m 280 742 l 189 742 l 81 1069 l 200 1069 l 280 742 z "},"“":{"ha":524,"x_min":10,"x_max":441,"o":"m 441 1069 l 362 742 l 242 742 l 349 1069 l 441 1069 m 210 1069 l 130 742 l 10 742 l 117 1069 l 210 1069 z "},"”":{"ha":524,"x_min":81,"x_max":513,"o":"m 513 1069 l 406 742 l 314 742 l 393 1069 l 513 1069 m 280 1069 l 173 742 l 81 742 l 160 1069 l 280 1069 z "},"„":{"ha":694,"x_min":64,"x_max":496,"o":"m 496 159 l 389 -167 l 296 -167 l 376 159 l 496 159 m 264 159 l 157 -167 l 64 -167 l 146 159 l 264 159 z "},"†":{"ha":568,"x_min":49,"x_max":517,"o":"m 517 728 l 333 728 l 333 180 l 234 180 l 234 728 l 49 728 l 49 814 l 234 814 l 234 1048 l 333 1048 l 333 814 l 517 814 l 517 728 z "},"‡":{"ha":568,"x_min":49,"x_max":517,"o":"m 517 420 l 333 420 l 333 180 l 234 180 l 234 420 l 49 420 l 49 505 l 234 505 l 234 729 l 49 729 l 49 815 l 234 815 l 234 1048 l 333 1048 l 333 815 l 517 815 l 517 729 l 333 729 l 333 505 l 517 505 l 517 420 z "},"•":{"ha":610,"x_min":114,"x_max":496,"o":"m 114 452 q 169 589 114 534 q 305 644 224 644 q 444 589 391 644 q 496 452 496 534 q 444 316 496 370 q 305 261 391 261 q 169 316 224 261 q 114 452 114 371 z "},"․":{"ha":334,"x_min":81,"x_max":256,"o":"m 168 156 q 230 131 203 156 q 256 69 256 106 q 230 8 256 33 q 168 -17 203 -17 q 106 8 132 -17 q 81 69 81 33 q 106 131 81 106 q 168 156 132 156 z "},"‥":{"ha":668,"x_min":81,"x_max":591,"o":"m 503 156 q 564 131 538 156 q 591 69 591 106 q 564 8 591 33 q 503 -17 538 -17 q 440 8 467 -17 q 414 69 414 33 q 440 131 414 106 q 503 156 466 156 m 168 156 q 230 131 203 156 q 256 69 256 106 q 230 8 256 33 q 168 -17 203 -17 q 106 8 132 -17 q 81 69 81 33 q 106 131 81 106 q 168 156 132 156 z "},"…":{"ha":1130,"x_min":102,"x_max":1029,"o":"m 856 71 q 882 133 856 108 q 942 159 907 159 q 1003 133 978 159 q 1029 71 1029 106 q 1004 11 1029 36 q 942 -14 979 -14 q 880 12 905 -14 q 856 71 856 37 m 477 71 q 503 133 477 108 q 565 159 528 159 q 626 133 600 159 q 651 71 651 106 q 626 11 651 36 q 564 -14 601 -14 q 503 11 528 -14 q 477 71 477 36 m 102 71 q 126 133 102 108 q 187 159 151 159 q 248 133 222 159 q 274 71 274 107 q 249 11 274 36 q 186 -14 224 -14 q 126 11 151 -14 q 102 71 102 35 z "},"‧":{"ha":334,"x_min":81,"x_max":256,"o":"m 168 504 q 230 479 203 504 q 256 417 256 454 q 231 356 256 380 q 168 332 205 332 q 106 356 132 332 q 81 417 81 381 q 106 479 81 454 q 168 504 132 504 z "},"‰":{"ha":1823,"x_min":59,"x_max":1763,"o":"m 59 785 q 128 990 59 914 q 313 1066 197 1066 q 488 996 425 1066 q 551 802 551 926 q 481 600 551 677 q 298 523 412 523 q 124 595 189 523 q 59 785 59 667 m 163 792 q 201 657 163 705 q 305 610 239 610 q 410 659 373 610 q 447 798 447 708 q 411 933 447 885 q 309 981 374 981 q 202 931 241 981 q 163 792 163 881 m 1010 1050 l 334 -7 l 220 -7 l 896 1050 l 1010 1050 m 1273 246 q 1342 451 1273 374 q 1526 529 1412 529 q 1700 459 1637 529 q 1763 261 1763 389 q 1694 60 1763 137 q 1511 -16 1625 -16 q 1338 56 1403 -16 q 1273 246 1273 129 m 1377 252 q 1415 118 1377 165 q 1518 71 1453 71 q 1624 121 1586 71 q 1661 259 1661 171 q 1624 394 1661 347 q 1522 441 1586 441 q 1415 391 1453 441 q 1377 252 1377 340 m 688 246 q 757 452 688 375 q 942 529 826 529 q 1116 459 1053 529 q 1179 261 1179 389 q 1109 61 1179 138 q 927 -16 1040 -16 q 754 56 819 -16 q 688 246 688 127 m 792 252 q 830 119 792 167 q 934 71 868 71 q 1039 121 1002 71 q 1076 259 1076 170 q 1039 394 1076 347 q 937 441 1002 441 q 830 391 868 441 q 792 252 792 341 z "},"′":{"ha":355,"x_min":97,"x_max":267,"o":"m 267 1052 l 189 725 l 97 725 l 158 1052 l 267 1052 z "},"″":{"ha":585,"x_min":104,"x_max":492,"o":"m 492 1052 l 412 725 l 320 725 l 381 1052 l 492 1052 m 275 1052 l 196 725 l 104 725 l 165 1052 l 275 1052 z "},"‵":{"ha":354,"x_min":86,"x_max":256,"o":"m 86 1050 l 197 1050 l 256 724 l 165 724 l 86 1050 z "},"‹":{"ha":479,"x_min":64,"x_max":417,"o":"m 416 146 l 286 146 l 64 393 l 286 644 l 417 644 l 191 393 l 416 146 z "},"›":{"ha":479,"x_min":64,"x_max":417,"o":"m 417 394 l 195 146 l 64 146 l 290 394 l 64 644 l 195 644 l 417 394 z "},"※":{"ha":1169,"x_min":40,"x_max":1129,"o":"m 1129 1009 l 644 525 l 1129 41 l 1069 -20 l 585 465 l 100 -18 l 40 42 l 525 525 l 40 1008 l 100 1068 l 585 585 l 1069 1069 l 1129 1009 m 585 976 q 646 949 620 976 q 673 888 673 923 q 646 826 673 852 q 585 800 620 800 q 523 826 549 800 q 496 888 496 852 q 523 949 496 923 q 585 976 549 976 m 1036 525 q 1009 463 1036 490 q 947 437 983 437 q 886 463 912 437 q 859 525 859 490 q 886 587 859 560 q 947 613 912 613 q 1009 587 983 613 q 1036 525 1036 560 m 311 525 q 284 463 311 490 q 222 437 258 437 q 161 463 187 437 q 134 525 134 490 q 161 587 134 560 q 222 613 187 613 q 284 587 258 613 q 311 525 311 560 m 585 251 q 646 224 620 251 q 673 163 673 198 q 646 101 673 127 q 585 75 620 75 q 523 101 549 75 q 496 163 496 127 q 523 224 496 198 q 585 251 549 251 z "},"‼":{"ha":737,"x_min":130,"x_max":597,"o":"m 285 1050 l 269 299 l 161 299 l 146 1050 l 285 1050 m 578 1050 l 563 299 l 454 299 l 439 1050 l 578 1050 m 130 71 q 155 133 130 108 q 217 157 181 157 q 278 132 252 157 q 304 71 304 106 q 279 12 304 37 q 220 -14 254 -14 q 155 12 180 -14 q 130 71 130 37 m 423 71 q 449 133 423 108 q 511 157 475 157 q 572 132 546 157 q 597 71 597 106 q 572 12 597 37 q 514 -14 547 -14 q 448 12 473 -14 q 423 71 423 37 z "},"‾":{"ha":623,"x_min":0,"x_max":623,"o":"m 623 1023 l 0 1023 l 0 1110 l 623 1110 l 623 1023 z "},"⁄":{"ha":290,"x_min":-220,"x_max":526,"o":"m 526 1050 l -106 0 l -220 0 l 412 1050 l 526 1050 z "},"⁴":{"ha":538,"x_min":37,"x_max":509,"o":"m 509 575 l 428 575 l 428 428 l 324 428 l 324 575 l 37 575 l 37 646 l 304 1050 l 428 1050 l 428 659 l 509 659 l 509 575 m 323 954 q 296 901 313 930 l 140 659 l 324 659 l 324 890 q 328 954 324 905 l 323 954 z "},"⁵":{"ha":556,"x_min":93,"x_max":480,"o":"m 93 553 q 239 503 176 503 q 334 534 296 503 q 372 616 372 565 q 226 726 372 726 q 113 719 201 726 l 113 1053 l 450 1053 l 450 958 l 210 958 l 210 817 q 410 772 340 825 q 480 623 480 718 q 415 471 480 529 q 240 412 349 412 q 93 444 147 412 l 93 553 z "},"⁷":{"ha":554,"x_min":57,"x_max":495,"o":"m 495 1014 l 244 428 l 131 428 l 365 966 l 57 966 l 57 1057 l 495 1057 l 495 1014 z "},"⁸":{"ha":556,"x_min":55,"x_max":500,"o":"m 173 755 q 77 901 77 808 q 134 1020 77 975 q 286 1065 191 1065 q 426 1022 371 1065 q 480 910 480 979 q 380 755 480 813 q 500 592 500 704 q 440 460 500 508 q 269 413 380 413 q 116 461 176 413 q 55 585 55 509 q 173 755 55 698 m 374 901 q 279 975 374 975 q 210 955 237 975 q 182 903 183 935 q 278 802 183 842 q 374 901 374 842 m 273 710 q 161 589 161 671 q 194 529 161 553 q 279 504 228 504 q 361 528 328 504 q 394 587 394 551 q 273 710 394 669 z "},"ⁿ":{"ha":597,"x_min":81,"x_max":525,"o":"m 525 525 l 423 525 l 423 854 q 315 981 423 981 q 220 935 262 981 q 181 834 178 890 l 181 525 l 81 525 l 81 1052 l 181 1052 l 181 963 q 339 1066 231 1066 q 476 1013 428 1066 q 525 861 525 960 l 525 525 z "},"₠":{"ha":944,"x_min":83,"x_max":865,"o":"m 865 0 l 428 0 l 428 280 q 177 393 271 286 q 83 659 83 501 q 190 956 83 842 q 476 1069 297 1069 q 656 1034 580 1069 l 656 899 q 475 955 577 955 q 289 875 359 955 q 219 670 219 795 q 428 401 219 435 l 428 750 l 848 750 l 848 640 l 559 640 l 559 431 l 827 431 l 827 321 l 559 321 l 559 110 l 865 110 l 865 0 z "},"₡":{"ha":808,"x_min":83,"x_max":768,"o":"m 292 -82 l 331 27 q 271 66 300 43 l 221 -82 l 134 -82 l 204 127 q 83 505 83 274 q 194 877 83 725 q 488 1061 305 1029 l 519 1170 l 606 1170 l 575 1067 q 645 1063 612 1067 l 677 1170 l 764 1170 l 726 1047 l 768 1034 l 768 905 q 692 937 724 926 l 442 114 q 543 95 486 95 q 768 154 660 95 l 768 35 q 524 -18 659 -18 q 407 -1 462 -18 l 379 -82 l 292 -82 m 541 954 l 315 208 q 370 154 335 181 l 612 953 q 541 954 568 957 m 258 304 l 449 932 q 283 778 344 890 q 223 513 223 666 q 258 304 223 397 z "},"₢":{"ha":815,"x_min":83,"x_max":768,"o":"m 768 575 q 688 596 735 596 q 574 531 618 596 q 530 356 530 465 l 530 96 l 537 95 q 768 154 640 85 l 768 35 q 524 -18 659 -18 q 207 126 330 -18 q 83 505 83 271 q 222 911 83 755 q 566 1068 361 1068 q 768 1036 677 1068 l 768 905 q 566 955 670 955 q 319 832 415 955 q 223 513 223 709 q 273 275 223 377 q 414 126 322 173 l 414 692 l 530 692 l 530 555 l 533 555 q 706 704 583 704 q 768 695 743 704 l 768 575 z "},"₣":{"ha":738,"x_min":18,"x_max":677,"o":"m 677 930 l 271 930 l 271 578 l 647 578 l 647 459 l 271 459 l 271 315 l 452 315 l 452 196 l 271 196 l 271 0 l 136 0 l 136 196 l 18 196 l 18 315 l 136 315 l 136 1050 l 677 1050 l 677 930 z "}}}
